<svg version="1.1" xmlns="http://www.w3.org/2000/svg" xmlns:xlink="http://www.w3.org/1999/xlink" width="600" height="400" style="width: 600px; height: 400px;"><defs><clipPath id="ymfSfUtoKNNo"><path fill="none" stroke="none" d=" M 31 5 L 515 5 L 515 343 L 31 343 L 31 5 Z"/></clipPath><clipPath id="kfDObSyUwowP"><path fill="none" stroke="none" d=" M 31 5 L 515 5 L 515 343 L 31 343 L 31 5 Z"/></clipPath><clipPath id="rByKmqFgueiL"><path fill="none" stroke="none" d=" M 31 5 L 515 5 L 515 343 L 31 343 L 31 5 Z"/></clipPath><clipPath id="ulRanebkTlTX"><path fill="none" stroke="none" d=" M 31 5 L 515 5 L 515 343 L 31 343 L 31 5 Z"/></clipPath><clipPath id="ixxJIezmohxN"><path fill="none" stroke="none" d=" M 31 5 L 515 5 L 515 343 L 31 343 L 31 5 Z"/></clipPath><clipPath id="mUAiPNUwyBsb"><path fill="none" stroke="none" d=" M 31 5 L 515 5 L 515 343 L 31 343 L 31 5 Z"/></clipPath><clipPath id="gcOgvWekBdZp"><path fill="none" stroke="none" d=" M 31 5 L 515 5 L 515 343 L 31 343 L 31 5 Z"/></clipPath><clipPath id="dnUCbiaPQCZh"><path fill="none" stroke="none" d=" M 31 5 L 515 5 L 515 343 L 31 343 L 31 5 Z"/></clipPath><clipPath id="gmCXfgxVlrgK"><path fill="none" stroke="none" d=" M 31 5 L 515 5 L 515 343 L 31 343 L 31 5 Z"/></clipPath><clipPath id="UikJVKMTWswS"><path fill="none" stroke="none" d=" M 31 5 L 515 5 L 515 343 L 31 343 L 31 5 Z"/></clipPath><clipPath id="lHvJhEHVCFoe"><path fill="none" stroke="none" d=" M 31 5 L 515 5 L 515 343 L 31 343 L 31 5 Z"/></clipPath><clipPath id="OGMJRcfPnrOI"><path fill="none" stroke="none" d=" M 31 5 L 515 5 L 515 343 L 31 343 L 31 5 Z"/></clipPath><clipPath id="TmgmKRLypXfk"><path fill="none" stroke="none" d=" M 31 5 L 515 5 L 515 343 L 31 343 L 31 5 Z"/></clipPath><clipPath id="LlcBUzTooREa"><path fill="none" stroke="none" d=" M 31 5 L 515 5 L 515 343 L 31 343 L 31 5 Z"/></clipPath><clipPath id="qGZkSgiRMwAS"><path fill="none" stroke="none" d=" M 31 5 L 515 5 L 515 343 L 31 343 L 31 5 Z"/></clipPath><clipPath id="ghTpNdewXKxo"><path fill="none" stroke="none" d=" M 31 5 L 515 5 L 515 343 L 31 343 L 31 5 Z"/></clipPath><clipPath id="ZMTinsbMCRro"><path fill="none" stroke="none" d=" M 31 5 L 515 5 L 515 343 L 31 343 L 31 5 Z"/></clipPath><clipPath id="nMXGfquBstcv"><path fill="none" stroke="none" d=" M 31 5 L 515 5 L 515 343 L 31 343 L 31 5 Z"/></clipPath><clipPath id="eVkKCPVrIPbZ"><path fill="none" stroke="none" d=" M 31 5 L 515 5 L 515 343 L 31 343 L 31 5 Z"/></clipPath><clipPath id="yckSukDOlECS"><path fill="none" stroke="none" d=" M 31 5 L 515 5 L 515 343 L 31 343 L 31 5 Z"/></clipPath><clipPath id="WGhtqJdhOPQe"><path fill="none" stroke="none" d=" M 31 5 L 515 5 L 515 343 L 31 343 L 31 5 Z"/></clipPath></defs><g><g/><g/><g/><g transform="scale(1,1) translate(0.5,0.5)"><rect fill="#FFFFFF" stroke="none" x="0" y="0" width="600" height="400"/><rect fill="#ffffff" stroke="none" x="0" y="0" width="600" height="400"/><rect fill="#FFFFFF" stroke="none" x="31" y="5" width="484" height="338"/><rect fill="#ffffff" stroke="none" x="31" y="5" width="484" height="338"/><g><rect fill="none" stroke="#e5e5e5" x="31" y="5" width="484" height="338" stroke-linejoin="bevel" stroke-miterlimit="10"/></g><g clip-path="url(#ymfSfUtoKNNo)"><g><g/></g></g><g clip-path="url(#kfDObSyUwowP)"><g><g><path fill="none" stroke="#e5e5e5" paint-order="fill stroke markers" d=" M 31 279 L 515 279" stroke-linejoin="bevel" stroke-miterlimit="10"/><path fill="none" stroke="#e5e5e5" paint-order="fill stroke markers" d=" M 31 214 L 515 214" stroke-linejoin="bevel" stroke-miterlimit="10"/><path fill="none" stroke="#e5e5e5" paint-order="fill stroke markers" d=" M 31 150 L 515 150" stroke-linejoin="bevel" stroke-miterlimit="10"/><path fill="none" stroke="#e5e5e5" paint-order="fill stroke markers" d=" M 31 85 L 515 85" stroke-linejoin="bevel" stroke-miterlimit="10"/><path fill="none" stroke="#e5e5e5" paint-order="fill stroke markers" d=" M 31 21 L 515 21" stroke-linejoin="bevel" stroke-miterlimit="10"/></g></g></g><g clip-path="url(#rByKmqFgueiL)"><g><g><path fill="none" stroke="none"/><path fill="#5e4fa2" stroke="none" paint-order="stroke fill markers" d=" M 59.80952380952382 341.908797417272 L 117.42857142857142 341.908797417272 L 117.42857142857142 343 L 59.80952380952382 343 L 59.80952380952382 341.908797417272 Z" fill-opacity="0.7"/><path fill="none" stroke="#5e4fa2" paint-order="fill stroke markers" d=" M 59.80952380952382 341.908797417272 L 117.42857142857142 341.908797417272 L 117.42857142857142 343 L 59.80952380952382 343 L 59.80952380952382 341.908797417272 Z" stroke-linejoin="bevel" stroke-miterlimit="10" stroke-opacity="0.7"/><path fill="#5e4fa2" stroke="none" paint-order="stroke fill markers" d=" M 123.1904761904762 338.2891986062718 L 180.8095238095238 338.2891986062718 L 180.8095238095238 343 L 123.1904761904762 343 L 123.1904761904762 338.2891986062718 Z" fill-opacity="0.7"/><path fill="none" stroke="#5e4fa2" paint-order="fill stroke markers" d=" M 123.1904761904762 338.2891986062718 L 180.8095238095238 338.2891986062718 L 180.8095238095238 343 L 123.1904761904762 343 L 123.1904761904762 338.2891986062718 Z" stroke-linejoin="bevel" stroke-miterlimit="10" stroke-opacity="0.7"/><path fill="#5e4fa2" stroke="none" paint-order="stroke fill markers" d=" M 186.57142857142856 322.1572456320658 L 244.1904761904762 322.1572456320658 L 244.1904761904762 343 L 186.57142857142856 343 L 186.57142857142856 322.1572456320658 Z" fill-opacity="0.7"/><path fill="none" stroke="#5e4fa2" paint-order="fill stroke markers" d=" M 186.57142857142856 322.1572456320658 L 244.1904761904762 322.1572456320658 L 244.1904761904762 343 L 186.57142857142856 343 L 186.57142857142856 322.1572456320658 Z" stroke-linejoin="bevel" stroke-miterlimit="10" stroke-opacity="0.7"/><path fill="#5e4fa2" stroke="none" paint-order="stroke fill markers" d=" M 301.8095238095238 337.7444120505345 L 359.4285714285714 337.7444120505345 L 359.4285714285714 343 L 301.8095238095238 343 L 301.8095238095238 337.7444120505345 Z" fill-opacity="0.7"/><path fill="none" stroke="#5e4fa2" paint-order="fill stroke markers" d=" M 301.8095238095238 337.7444120505345 L 359.4285714285714 337.7444120505345 L 359.4285714285714 343 L 301.8095238095238 343 L 301.8095238095238 337.7444120505345 Z" stroke-linejoin="bevel" stroke-miterlimit="10" stroke-opacity="0.7"/><path fill="#5e4fa2" stroke="none" paint-order="stroke fill markers" d=" M 365.1904761904762 336.7494220989367 L 422.8095238095238 336.7494220989367 L 422.8095238095238 343 L 365.1904761904762 343 L 365.1904761904762 336.7494220989367 Z" fill-opacity="0.7"/><path fill="none" stroke="#5e4fa2" paint-order="fill stroke markers" d=" M 365.1904761904762 336.7494220989367 L 422.8095238095238 336.7494220989367 L 422.8095238095238 343 L 365.1904761904762 343 L 365.1904761904762 336.7494220989367 Z" stroke-linejoin="bevel" stroke-miterlimit="10" stroke-opacity="0.7"/><path fill="#5e4fa2" stroke="none" paint-order="stroke fill markers" d=" M 428.57142857142856 307.34599156118145 L 486.19047619047615 307.34599156118145 L 486.19047619047615 343 L 428.57142857142856 343 L 428.57142857142856 307.34599156118145 Z" fill-opacity="0.7"/><path fill="none" stroke="#5e4fa2" paint-order="fill stroke markers" d=" M 428.57142857142856 307.34599156118145 L 486.19047619047615 307.34599156118145 L 486.19047619047615 343 L 428.57142857142856 343 L 428.57142857142856 307.34599156118145 Z" stroke-linejoin="bevel" stroke-miterlimit="10" stroke-opacity="0.7"/></g></g></g><g clip-path="url(#ulRanebkTlTX)"><g><g><path fill="none" stroke="none"/><path fill="#3288bd" stroke="none" paint-order="stroke fill markers" d=" M 59.80952380952382 333.17917675544794 L 117.42857142857142 333.17917675544794 L 117.42857142857142 341.908797417272 L 59.80952380952382 341.908797417272 L 59.80952380952382 333.17917675544794 Z" fill-opacity="0.7"/><path fill="none" stroke="#3288bd" paint-order="fill stroke markers" d=" M 59.80952380952382 333.17917675544794 L 117.42857142857142 333.17917675544794 L 117.42857142857142 341.908797417272 L 59.80952380952382 341.908797417272 L 59.80952380952382 333.17917675544794 Z" stroke-linejoin="bevel" stroke-miterlimit="10" stroke-opacity="0.7"/><path fill="#3288bd" stroke="none" paint-order="stroke fill markers" d=" M 123.1904761904762 338.2891986062718 L 180.8095238095238 338.2891986062718 L 180.8095238095238 338.2891986062718 L 123.1904761904762 338.2891986062718 L 123.1904761904762 338.2891986062718 Z" fill-opacity="0.7"/><path fill="none" stroke="#3288bd" paint-order="fill stroke markers" d=" M 123.1904761904762 338.2891986062718 L 180.8095238095238 338.2891986062718 L 180.8095238095238 338.2891986062718 L 123.1904761904762 338.2891986062718 L 123.1904761904762 338.2891986062718 Z" stroke-linejoin="bevel" stroke-miterlimit="10" stroke-opacity="0.7"/><path fill="#3288bd" stroke="none" paint-order="stroke fill markers" d=" M 186.57142857142856 317.5255224391915 L 244.1904761904762 317.5255224391915 L 244.1904761904762 322.1572456320658 L 186.57142857142856 322.1572456320658 L 186.57142857142856 317.5255224391915 Z" fill-opacity="0.7"/><path fill="none" stroke="#3288bd" paint-order="fill stroke markers" d=" M 186.57142857142856 317.5255224391915 L 244.1904761904762 317.5255224391915 L 244.1904761904762 322.1572456320658 L 186.57142857142856 322.1572456320658 L 186.57142857142856 317.5255224391915 Z" stroke-linejoin="bevel" stroke-miterlimit="10" stroke-opacity="0.7"/><path fill="#3288bd" stroke="none" paint-order="stroke fill markers" d=" M 301.8095238095238 306.2108843537415 L 359.4285714285714 306.2108843537415 L 359.4285714285714 337.7444120505345 L 301.8095238095238 337.7444120505345 L 301.8095238095238 306.2108843537415 Z" fill-opacity="0.7"/><path fill="none" stroke="#3288bd" paint-order="fill stroke markers" d=" M 301.8095238095238 306.2108843537415 L 359.4285714285714 306.2108843537415 L 359.4285714285714 337.7444120505345 L 301.8095238095238 337.7444120505345 L 301.8095238095238 306.2108843537415 Z" stroke-linejoin="bevel" stroke-miterlimit="10" stroke-opacity="0.7"/><path fill="#3288bd" stroke="none" paint-order="stroke fill markers" d=" M 365.1904761904762 335.1867776236708 L 422.8095238095238 335.1867776236708 L 422.8095238095238 336.7494220989367 L 365.1904761904762 336.7494220989367 L 365.1904761904762 335.1867776236708 Z" fill-opacity="0.7"/><path fill="none" stroke="#3288bd" paint-order="fill stroke markers" d=" M 365.1904761904762 335.1867776236708 L 422.8095238095238 335.1867776236708 L 422.8095238095238 336.7494220989367 L 365.1904761904762 336.7494220989367 L 365.1904761904762 335.1867776236708 Z" stroke-linejoin="bevel" stroke-miterlimit="10" stroke-opacity="0.7"/><path fill="#3288bd" stroke="none" paint-order="stroke fill markers" d=" M 428.57142857142856 290.02833031946955 L 486.19047619047615 290.02833031946955 L 486.19047619047615 307.34599156118145 L 428.57142857142856 307.34599156118145 L 428.57142857142856 290.02833031946955 Z" fill-opacity="0.7"/><path fill="none" stroke="#3288bd" paint-order="fill stroke markers" d=" M 428.57142857142856 290.02833031946955 L 486.19047619047615 290.02833031946955 L 486.19047619047615 307.34599156118145 L 428.57142857142856 307.34599156118145 L 428.57142857142856 290.02833031946955 Z" stroke-linejoin="bevel" stroke-miterlimit="10" stroke-opacity="0.7"/></g></g></g><g clip-path="url(#ixxJIezmohxN)"><g><g><path fill="none" stroke="none"/><path fill="#66c2a5" stroke="none" paint-order="stroke fill markers" d=" M 59.80952380952382 318.9935431799839 L 117.42857142857142 318.9935431799839 L 117.42857142857142 333.17917675544794 L 59.80952380952382 333.17917675544794 L 59.80952380952382 318.9935431799839 Z" fill-opacity="0.7"/><path fill="none" stroke="#66c2a5" paint-order="fill stroke markers" d=" M 59.80952380952382 318.9935431799839 L 117.42857142857142 318.9935431799839 L 117.42857142857142 333.17917675544794 L 59.80952380952382 333.17917675544794 L 59.80952380952382 318.9935431799839 Z" stroke-linejoin="bevel" stroke-miterlimit="10" stroke-opacity="0.7"/><path fill="#66c2a5" stroke="none" paint-order="stroke fill markers" d=" M 123.1904761904762 333.57839721254356 L 180.8095238095238 333.57839721254356 L 180.8095238095238 338.2891986062718 L 123.1904761904762 338.2891986062718 L 123.1904761904762 333.57839721254356 Z" fill-opacity="0.7"/><path fill="none" stroke="#66c2a5" paint-order="fill stroke markers" d=" M 123.1904761904762 333.57839721254356 L 180.8095238095238 333.57839721254356 L 180.8095238095238 338.2891986062718 L 123.1904761904762 338.2891986062718 L 123.1904761904762 333.57839721254356 Z" stroke-linejoin="bevel" stroke-miterlimit="10" stroke-opacity="0.7"/><path fill="#66c2a5" stroke="none" paint-order="stroke fill markers" d=" M 186.57142857142856 276.9979445015416 L 244.1904761904762 276.9979445015416 L 244.1904761904762 317.5255224391915 L 186.57142857142856 317.5255224391915 L 186.57142857142856 276.9979445015416 Z" fill-opacity="0.7"/><path fill="none" stroke="#66c2a5" paint-order="fill stroke markers" d=" M 186.57142857142856 276.9979445015416 L 244.1904761904762 276.9979445015416 L 244.1904761904762 317.5255224391915 L 186.57142857142856 317.5255224391915 L 186.57142857142856 276.9979445015416 Z" stroke-linejoin="bevel" stroke-miterlimit="10" stroke-opacity="0.7"/><path fill="#66c2a5" stroke="none" paint-order="stroke fill markers" d=" M 301.8095238095238 291.75801749271136 L 359.4285714285714 291.75801749271136 L 359.4285714285714 306.2108843537415 L 301.8095238095238 306.2108843537415 L 301.8095238095238 291.75801749271136 Z" fill-opacity="0.7"/><path fill="none" stroke="#66c2a5" paint-order="fill stroke markers" d=" M 301.8095238095238 291.75801749271136 L 359.4285714285714 291.75801749271136 L 359.4285714285714 306.2108843537415 L 301.8095238095238 306.2108843537415 L 301.8095238095238 291.75801749271136 Z" stroke-linejoin="bevel" stroke-miterlimit="10" stroke-opacity="0.7"/><path fill="#66c2a5" stroke="none" paint-order="stroke fill markers" d=" M 365.1904761904762 310.18446601941747 L 422.8095238095238 310.18446601941747 L 422.8095238095238 335.1867776236708 L 365.1904761904762 335.1867776236708 L 365.1904761904762 310.18446601941747 Z" fill-opacity="0.7"/><path fill="none" stroke="#66c2a5" paint-order="fill stroke markers" d=" M 365.1904761904762 310.18446601941747 L 422.8095238095238 310.18446601941747 L 422.8095238095238 335.1867776236708 L 365.1904761904762 335.1867776236708 L 365.1904761904762 310.18446601941747 Z" stroke-linejoin="bevel" stroke-miterlimit="10" stroke-opacity="0.7"/><path fill="#66c2a5" stroke="none" paint-order="stroke fill markers" d=" M 428.57142857142856 268.63592525617844 L 486.19047619047615 268.63592525617844 L 486.19047619047615 290.02833031946955 L 428.57142857142856 290.02833031946955 L 428.57142857142856 268.63592525617844 Z" fill-opacity="0.7"/><path fill="none" stroke="#66c2a5" paint-order="fill stroke markers" d=" M 428.57142857142856 268.63592525617844 L 486.19047619047615 268.63592525617844 L 486.19047619047615 290.02833031946955 L 428.57142857142856 290.02833031946955 L 428.57142857142856 268.63592525617844 Z" stroke-linejoin="bevel" stroke-miterlimit="10" stroke-opacity="0.7"/></g></g></g><g clip-path="url(#mUAiPNUwyBsb)"><g><g><path fill="none" stroke="none"/><path fill="#abdda4" stroke="none" paint-order="stroke fill markers" d=" M 59.80952380952382 257.8861985472155 L 117.42857142857142 257.8861985472155 L 117.42857142857142 318.9935431799839 L 59.80952380952382 318.9935431799839 L 59.80952380952382 257.8861985472155 Z" fill-opacity="0.7"/><path fill="none" stroke="#abdda4" paint-order="fill stroke markers" d=" M 59.80952380952382 257.8861985472155 L 117.42857142857142 257.8861985472155 L 117.42857142857142 318.9935431799839 L 59.80952380952382 318.9935431799839 L 59.80952380952382 257.8861985472155 Z" stroke-linejoin="bevel" stroke-miterlimit="10" stroke-opacity="0.7"/><path fill="#abdda4" stroke="none" paint-order="stroke fill markers" d=" M 123.1904761904762 324.1567944250871 L 180.8095238095238 324.1567944250871 L 180.8095238095238 333.57839721254356 L 123.1904761904762 333.57839721254356 L 123.1904761904762 324.1567944250871 Z" fill-opacity="0.7"/><path fill="none" stroke="#abdda4" paint-order="fill stroke markers" d=" M 123.1904761904762 324.1567944250871 L 180.8095238095238 324.1567944250871 L 180.8095238095238 333.57839721254356 L 123.1904761904762 333.57839721254356 L 123.1904761904762 324.1567944250871 Z" stroke-linejoin="bevel" stroke-miterlimit="10" stroke-opacity="0.7"/><path fill="#abdda4" stroke="none" paint-order="stroke fill markers" d=" M 186.57142857142856 229.52278177458038 L 244.1904761904762 229.52278177458038 L 244.1904761904762 276.9979445015416 L 186.57142857142856 276.9979445015416 L 186.57142857142856 229.52278177458038 Z" fill-opacity="0.7"/><path fill="none" stroke="#abdda4" paint-order="fill stroke markers" d=" M 186.57142857142856 229.52278177458038 L 244.1904761904762 229.52278177458038 L 244.1904761904762 276.9979445015416 L 186.57142857142856 276.9979445015416 L 186.57142857142856 229.52278177458038 Z" stroke-linejoin="bevel" stroke-miterlimit="10" stroke-opacity="0.7"/><path fill="#abdda4" stroke="none" paint-order="stroke fill markers" d=" M 301.8095238095238 262.8522837706511 L 359.4285714285714 262.8522837706511 L 359.4285714285714 291.75801749271136 L 301.8095238095238 291.75801749271136 L 301.8095238095238 262.8522837706511 Z" fill-opacity="0.7"/><path fill="none" stroke="#abdda4" paint-order="fill stroke markers" d=" M 301.8095238095238 262.8522837706511 L 359.4285714285714 262.8522837706511 L 359.4285714285714 291.75801749271136 L 301.8095238095238 291.75801749271136 L 301.8095238095238 262.8522837706511 Z" stroke-linejoin="bevel" stroke-miterlimit="10" stroke-opacity="0.7"/><path fill="#abdda4" stroke="none" paint-order="stroke fill markers" d=" M 365.1904761904762 292.9953767914933 L 422.8095238095238 292.9953767914933 L 422.8095238095238 310.18446601941747 L 365.1904761904762 310.18446601941747 L 365.1904761904762 292.9953767914933 Z" fill-opacity="0.7"/><path fill="none" stroke="#abdda4" paint-order="fill stroke markers" d=" M 365.1904761904762 292.9953767914933 L 422.8095238095238 292.9953767914933 L 422.8095238095238 310.18446601941747 L 365.1904761904762 310.18446601941747 L 365.1904761904762 292.9953767914933 Z" stroke-linejoin="bevel" stroke-miterlimit="10" stroke-opacity="0.7"/><path fill="#abdda4" stroke="none" paint-order="stroke fill markers" d=" M 428.57142857142856 264.5611814345992 L 486.19047619047615 264.5611814345992 L 486.19047619047615 268.63592525617844 L 428.57142857142856 268.63592525617844 L 428.57142857142856 264.5611814345992 Z" fill-opacity="0.7"/><path fill="none" stroke="#abdda4" paint-order="fill stroke markers" d=" M 428.57142857142856 264.5611814345992 L 486.19047619047615 264.5611814345992 L 486.19047619047615 268.63592525617844 L 428.57142857142856 268.63592525617844 L 428.57142857142856 264.5611814345992 Z" stroke-linejoin="bevel" stroke-miterlimit="10" stroke-opacity="0.7"/></g></g></g><g clip-path="url(#gcOgvWekBdZp)"><g><g><path fill="none" stroke="none"/><path fill="#e6f598" stroke="none" paint-order="stroke fill markers" d=" M 59.80952380952382 229.51493139628735 L 117.42857142857142 229.51493139628735 L 117.42857142857142 257.8861985472155 L 59.80952380952382 257.8861985472155 L 59.80952380952382 229.51493139628735 Z" fill-opacity="0.7"/><path fill="none" stroke="#e6f598" paint-order="fill stroke markers" d=" M 59.80952380952382 229.51493139628735 L 117.42857142857142 229.51493139628735 L 117.42857142857142 257.8861985472155 L 59.80952380952382 257.8861985472155 L 59.80952380952382 229.51493139628735 Z" stroke-linejoin="bevel" stroke-miterlimit="10" stroke-opacity="0.7"/><path fill="#e6f598" stroke="none" paint-order="stroke fill markers" d=" M 123.1904761904762 234.65156794425087 L 180.8095238095238 234.65156794425087 L 180.8095238095238 324.1567944250871 L 123.1904761904762 324.1567944250871 L 123.1904761904762 234.65156794425087 Z" fill-opacity="0.7"/><path fill="none" stroke="#e6f598" paint-order="fill stroke markers" d=" M 123.1904761904762 234.65156794425087 L 180.8095238095238 234.65156794425087 L 180.8095238095238 324.1567944250871 L 123.1904761904762 324.1567944250871 L 123.1904761904762 234.65156794425087 Z" stroke-linejoin="bevel" stroke-miterlimit="10" stroke-opacity="0.7"/><path fill="#e6f598" stroke="none" paint-order="stroke fill markers" d=" M 186.57142857142856 212.15381980130186 L 244.1904761904762 212.15381980130186 L 244.1904761904762 229.52278177458038 L 186.57142857142856 229.52278177458038 L 186.57142857142856 212.15381980130186 Z" fill-opacity="0.7"/><path fill="none" stroke="#e6f598" paint-order="fill stroke markers" d=" M 186.57142857142856 212.15381980130186 L 244.1904761904762 212.15381980130186 L 244.1904761904762 229.52278177458038 L 186.57142857142856 229.52278177458038 L 186.57142857142856 212.15381980130186 Z" stroke-linejoin="bevel" stroke-miterlimit="10" stroke-opacity="0.7"/><path fill="#e6f598" stroke="none" paint-order="stroke fill markers" d=" M 301.8095238095238 243.1438289601555 L 359.4285714285714 243.1438289601555 L 359.4285714285714 262.8522837706511 L 301.8095238095238 262.8522837706511 L 301.8095238095238 243.1438289601555 Z" fill-opacity="0.7"/><path fill="none" stroke="#e6f598" paint-order="fill stroke markers" d=" M 301.8095238095238 243.1438289601555 L 359.4285714285714 243.1438289601555 L 359.4285714285714 262.8522837706511 L 301.8095238095238 262.8522837706511 L 301.8095238095238 243.1438289601555 Z" stroke-linejoin="bevel" stroke-miterlimit="10" stroke-opacity="0.7"/><path fill="#e6f598" stroke="none" paint-order="stroke fill markers" d=" M 365.1904761904762 283.6195099398983 L 422.8095238095238 283.6195099398983 L 422.8095238095238 292.9953767914933 L 365.1904761904762 292.9953767914933 L 365.1904761904762 283.6195099398983 Z" fill-opacity="0.7"/><path fill="none" stroke="#e6f598" paint-order="fill stroke markers" d=" M 365.1904761904762 283.6195099398983 L 422.8095238095238 283.6195099398983 L 422.8095238095238 292.9953767914933 L 365.1904761904762 292.9953767914933 L 365.1904761904762 283.6195099398983 Z" stroke-linejoin="bevel" stroke-miterlimit="10" stroke-opacity="0.7"/><path fill="#e6f598" stroke="none" paint-order="stroke fill markers" d=" M 428.57142857142856 241.1314044605184 L 486.19047619047615 241.1314044605184 L 486.19047619047615 264.5611814345992 L 428.57142857142856 264.5611814345992 L 428.57142857142856 241.1314044605184 Z" fill-opacity="0.7"/><path fill="none" stroke="#e6f598" paint-order="fill stroke markers" d=" M 428.57142857142856 241.1314044605184 L 486.19047619047615 241.1314044605184 L 486.19047619047615 264.5611814345992 L 428.57142857142856 264.5611814345992 L 428.57142857142856 241.1314044605184 Z" stroke-linejoin="bevel" stroke-miterlimit="10" stroke-opacity="0.7"/></g></g></g><g clip-path="url(#dnUCbiaPQCZh)"><g><g><path fill="none" stroke="none"/><path fill="#ffffbf" stroke="none" paint-order="stroke fill markers" d=" M 59.80952380952382 198.9612590799032 L 117.42857142857142 198.9612590799032 L 117.42857142857142 229.51493139628735 L 59.80952380952382 229.51493139628735 L 59.80952380952382 198.9612590799032 Z" fill-opacity="0.7"/><path fill="none" stroke="#ffffbf" paint-order="fill stroke markers" d=" M 59.80952380952382 198.9612590799032 L 117.42857142857142 198.9612590799032 L 117.42857142857142 229.51493139628735 L 59.80952380952382 229.51493139628735 L 59.80952380952382 198.9612590799032 Z" stroke-linejoin="bevel" stroke-miterlimit="10" stroke-opacity="0.7"/><path fill="#ffffbf" stroke="none" paint-order="stroke fill markers" d=" M 123.1904761904762 229.94076655052265 L 180.8095238095238 229.94076655052265 L 180.8095238095238 234.65156794425087 L 123.1904761904762 234.65156794425087 L 123.1904761904762 229.94076655052265 Z" fill-opacity="0.7"/><path fill="none" stroke="#ffffbf" paint-order="fill stroke markers" d=" M 123.1904761904762 229.94076655052265 L 180.8095238095238 229.94076655052265 L 180.8095238095238 234.65156794425087 L 123.1904761904762 234.65156794425087 L 123.1904761904762 229.94076655052265 Z" stroke-linejoin="bevel" stroke-miterlimit="10" stroke-opacity="0.7"/><path fill="#ffffbf" stroke="none" paint-order="stroke fill markers" d=" M 186.57142857142856 185.5214114422748 L 244.1904761904762 185.5214114422748 L 244.1904761904762 212.15381980130186 L 186.57142857142856 212.15381980130186 L 186.57142857142856 185.5214114422748 Z" fill-opacity="0.7"/><path fill="none" stroke="#ffffbf" paint-order="fill stroke markers" d=" M 186.57142857142856 185.5214114422748 L 244.1904761904762 185.5214114422748 L 244.1904761904762 212.15381980130186 L 186.57142857142856 212.15381980130186 L 186.57142857142856 185.5214114422748 Z" stroke-linejoin="bevel" stroke-miterlimit="10" stroke-opacity="0.7"/><path fill="#ffffbf" stroke="none" paint-order="stroke fill markers" d=" M 301.8095238095238 231.31875607385814 L 359.4285714285714 231.31875607385814 L 359.4285714285714 243.1438289601555 L 301.8095238095238 243.1438289601555 L 301.8095238095238 231.31875607385814 Z" fill-opacity="0.7"/><path fill="none" stroke="#ffffbf" paint-order="fill stroke markers" d=" M 301.8095238095238 231.31875607385814 L 359.4285714285714 231.31875607385814 L 359.4285714285714 243.1438289601555 L 301.8095238095238 243.1438289601555 L 301.8095238095238 231.31875607385814 Z" stroke-linejoin="bevel" stroke-miterlimit="10" stroke-opacity="0.7"/><path fill="#ffffbf" stroke="none" paint-order="stroke fill markers" d=" M 365.1904761904762 277.368932038835 L 422.8095238095238 277.368932038835 L 422.8095238095238 283.6195099398983 L 365.1904761904762 283.6195099398983 L 365.1904761904762 277.368932038835 Z" fill-opacity="0.7"/><path fill="none" stroke="#ffffbf" paint-order="fill stroke markers" d=" M 365.1904761904762 277.368932038835 L 422.8095238095238 277.368932038835 L 422.8095238095238 283.6195099398983 L 365.1904761904762 283.6195099398983 L 365.1904761904762 277.368932038835 Z" stroke-linejoin="bevel" stroke-miterlimit="10" stroke-opacity="0.7"/><path fill="#ffffbf" stroke="none" paint-order="stroke fill markers" d=" M 428.57142857142856 224.83242917420137 L 486.19047619047615 224.83242917420137 L 486.19047619047615 241.1314044605184 L 428.57142857142856 241.1314044605184 L 428.57142857142856 224.83242917420137 Z" fill-opacity="0.7"/><path fill="none" stroke="#ffffbf" paint-order="fill stroke markers" d=" M 428.57142857142856 224.83242917420137 L 486.19047619047615 224.83242917420137 L 486.19047619047615 241.1314044605184 L 428.57142857142856 241.1314044605184 L 428.57142857142856 224.83242917420137 Z" stroke-linejoin="bevel" stroke-miterlimit="10" stroke-opacity="0.7"/></g></g></g><g clip-path="url(#gmCXfgxVlrgK)"><g><g><path fill="none" stroke="none"/><path fill="#fee08b" stroke="none" paint-order="stroke fill markers" d=" M 59.80952380952382 171.68119451170307 L 117.42857142857142 171.68119451170307 L 117.42857142857142 198.9612590799032 L 59.80952380952382 198.9612590799032 L 59.80952380952382 171.68119451170307 Z" fill-opacity="0.7"/><path fill="none" stroke="#fee08b" paint-order="fill stroke markers" d=" M 59.80952380952382 171.68119451170307 L 117.42857142857142 171.68119451170307 L 117.42857142857142 198.9612590799032 L 59.80952380952382 198.9612590799032 L 59.80952380952382 171.68119451170307 Z" stroke-linejoin="bevel" stroke-miterlimit="10" stroke-opacity="0.7"/><path fill="#fee08b" stroke="none" paint-order="stroke fill markers" d=" M 123.1904761904762 206.38675958188156 L 180.8095238095238 206.38675958188156 L 180.8095238095238 229.94076655052265 L 123.1904761904762 229.94076655052265 L 123.1904761904762 206.38675958188156 Z" fill-opacity="0.7"/><path fill="none" stroke="#fee08b" paint-order="fill stroke markers" d=" M 123.1904761904762 206.38675958188156 L 180.8095238095238 206.38675958188156 L 180.8095238095238 229.94076655052265 L 123.1904761904762 229.94076655052265 L 123.1904761904762 206.38675958188156 Z" stroke-linejoin="bevel" stroke-miterlimit="10" stroke-opacity="0.7"/><path fill="#fee08b" stroke="none" paint-order="stroke fill markers" d=" M 186.57142857142856 179.73175745118198 L 244.1904761904762 179.73175745118198 L 244.1904761904762 185.5214114422748 L 186.57142857142856 185.5214114422748 L 186.57142857142856 179.73175745118198 Z" fill-opacity="0.7"/><path fill="none" stroke="#fee08b" paint-order="fill stroke markers" d=" M 186.57142857142856 179.73175745118198 L 244.1904761904762 179.73175745118198 L 244.1904761904762 185.5214114422748 L 186.57142857142856 185.5214114422748 L 186.57142857142856 179.73175745118198 Z" stroke-linejoin="bevel" stroke-miterlimit="10" stroke-opacity="0.7"/><path fill="#fee08b" stroke="none" paint-order="stroke fill markers" d=" M 301.8095238095238 208.98250728862976 L 359.4285714285714 208.98250728862976 L 359.4285714285714 231.31875607385814 L 301.8095238095238 231.31875607385814 L 301.8095238095238 208.98250728862976 Z" fill-opacity="0.7"/><path fill="none" stroke="#fee08b" paint-order="fill stroke markers" d=" M 301.8095238095238 208.98250728862976 L 359.4285714285714 208.98250728862976 L 359.4285714285714 231.31875607385814 L 301.8095238095238 231.31875607385814 L 301.8095238095238 208.98250728862976 Z" stroke-linejoin="bevel" stroke-miterlimit="10" stroke-opacity="0.7"/><path fill="#fee08b" stroke="none" paint-order="stroke fill markers" d=" M 365.1904761904762 224.23901987979661 L 422.8095238095238 224.23901987979661 L 422.8095238095238 277.368932038835 L 365.1904761904762 277.368932038835 L 365.1904761904762 224.23901987979661 Z" fill-opacity="0.7"/><path fill="none" stroke="#fee08b" paint-order="fill stroke markers" d=" M 365.1904761904762 224.23901987979661 L 422.8095238095238 224.23901987979661 L 422.8095238095238 277.368932038835 L 365.1904761904762 277.368932038835 L 365.1904761904762 224.23901987979661 Z" stroke-linejoin="bevel" stroke-miterlimit="10" stroke-opacity="0.7"/><path fill="#fee08b" stroke="none" paint-order="stroke fill markers" d=" M 428.57142857142856 220.7576853526221 L 486.19047619047615 220.7576853526221 L 486.19047619047615 224.83242917420137 L 428.57142857142856 224.83242917420137 L 428.57142857142856 220.7576853526221 Z" fill-opacity="0.7"/><path fill="none" stroke="#fee08b" paint-order="fill stroke markers" d=" M 428.57142857142856 220.7576853526221 L 486.19047619047615 220.7576853526221 L 486.19047619047615 224.83242917420137 L 428.57142857142856 224.83242917420137 L 428.57142857142856 220.7576853526221 Z" stroke-linejoin="bevel" stroke-miterlimit="10" stroke-opacity="0.7"/></g></g></g><g clip-path="url(#UikJVKMTWswS)"><g><g><path fill="none" stroke="none"/><path fill="#fdae61" stroke="none" paint-order="stroke fill markers" d=" M 59.80952380952382 164.042776432607 L 117.42857142857142 164.042776432607 L 117.42857142857142 171.68119451170307 L 59.80952380952382 171.68119451170307 L 59.80952380952382 164.042776432607 Z" fill-opacity="0.7"/><path fill="none" stroke="#fdae61" paint-order="fill stroke markers" d=" M 59.80952380952382 164.042776432607 L 117.42857142857142 164.042776432607 L 117.42857142857142 171.68119451170307 L 59.80952380952382 171.68119451170307 L 59.80952380952382 164.042776432607 Z" stroke-linejoin="bevel" stroke-miterlimit="10" stroke-opacity="0.7"/><path fill="#fdae61" stroke="none" paint-order="stroke fill markers" d=" M 123.1904761904762 200.10569105691062 L 180.8095238095238 200.10569105691062 L 180.8095238095238 206.38675958188156 L 123.1904761904762 206.38675958188156 L 123.1904761904762 200.10569105691062 Z" fill-opacity="0.7"/><path fill="none" stroke="#fdae61" paint-order="fill stroke markers" d=" M 123.1904761904762 200.10569105691062 L 180.8095238095238 200.10569105691062 L 180.8095238095238 206.38675958188156 L 123.1904761904762 206.38675958188156 L 123.1904761904762 200.10569105691062 Z" stroke-linejoin="bevel" stroke-miterlimit="10" stroke-opacity="0.7"/><path fill="#fdae61" stroke="none" paint-order="stroke fill markers" d=" M 186.57142857142856 160.04693388146632 L 244.1904761904762 160.04693388146632 L 244.1904761904762 179.73175745118198 L 186.57142857142856 179.73175745118198 L 186.57142857142856 160.04693388146632 Z" fill-opacity="0.7"/><path fill="none" stroke="#fdae61" paint-order="fill stroke markers" d=" M 186.57142857142856 160.04693388146632 L 244.1904761904762 160.04693388146632 L 244.1904761904762 179.73175745118198 L 186.57142857142856 179.73175745118198 L 186.57142857142856 160.04693388146632 Z" stroke-linejoin="bevel" stroke-miterlimit="10" stroke-opacity="0.7"/><path fill="#fdae61" stroke="none" paint-order="stroke fill markers" d=" M 301.8095238095238 195.843537414966 L 359.4285714285714 195.843537414966 L 359.4285714285714 208.98250728862976 L 301.8095238095238 208.98250728862976 L 301.8095238095238 195.843537414966 Z" fill-opacity="0.7"/><path fill="none" stroke="#fdae61" paint-order="fill stroke markers" d=" M 301.8095238095238 195.843537414966 L 359.4285714285714 195.843537414966 L 359.4285714285714 208.98250728862976 L 301.8095238095238 208.98250728862976 L 301.8095238095238 195.843537414966 Z" stroke-linejoin="bevel" stroke-miterlimit="10" stroke-opacity="0.7"/><path fill="#fdae61" stroke="none" paint-order="stroke fill markers" d=" M 365.1904761904762 224.23901987979661 L 422.8095238095238 224.23901987979661 L 422.8095238095238 224.23901987979661 L 365.1904761904762 224.23901987979661 L 365.1904761904762 224.23901987979661 Z" fill-opacity="0.7"/><path fill="none" stroke="#fdae61" paint-order="fill stroke markers" d=" M 365.1904761904762 224.23901987979661 L 422.8095238095238 224.23901987979661 L 422.8095238095238 224.23901987979661 L 365.1904761904762 224.23901987979661 L 365.1904761904762 224.23901987979661 Z" stroke-linejoin="bevel" stroke-miterlimit="10" stroke-opacity="0.7"/><path fill="#fdae61" stroke="none" paint-order="stroke fill markers" d=" M 428.57142857142856 217.70162748643764 L 486.19047619047615 217.70162748643764 L 486.19047619047615 220.7576853526221 L 428.57142857142856 220.7576853526221 L 428.57142857142856 217.70162748643764 Z" fill-opacity="0.7"/><path fill="none" stroke="#fdae61" paint-order="fill stroke markers" d=" M 428.57142857142856 217.70162748643764 L 486.19047619047615 217.70162748643764 L 486.19047619047615 220.7576853526221 L 428.57142857142856 220.7576853526221 L 428.57142857142856 217.70162748643764 Z" stroke-linejoin="bevel" stroke-miterlimit="10" stroke-opacity="0.7"/></g></g></g><g clip-path="url(#lHvJhEHVCFoe)"><g><g><path fill="none" stroke="none"/><path fill="#f46d43" stroke="none" paint-order="stroke fill markers" d=" M 59.80952380952382 107.30024213075069 L 117.42857142857142 107.30024213075069 L 117.42857142857142 164.042776432607 L 59.80952380952382 164.042776432607 L 59.80952380952382 107.30024213075069 Z" fill-opacity="0.7"/><path fill="none" stroke="#f46d43" paint-order="fill stroke markers" d=" M 59.80952380952382 107.30024213075069 L 117.42857142857142 107.30024213075069 L 117.42857142857142 164.042776432607 L 59.80952380952382 164.042776432607 L 59.80952380952382 107.30024213075069 Z" stroke-linejoin="bevel" stroke-miterlimit="10" stroke-opacity="0.7"/><path fill="#f46d43" stroke="none" paint-order="stroke fill markers" d=" M 123.1904761904762 149.8571428571429 L 180.8095238095238 149.8571428571429 L 180.8095238095238 200.10569105691062 L 123.1904761904762 200.10569105691062 L 123.1904761904762 149.8571428571429 Z" fill-opacity="0.7"/><path fill="none" stroke="#f46d43" paint-order="fill stroke markers" d=" M 123.1904761904762 149.8571428571429 L 180.8095238095238 149.8571428571429 L 180.8095238095238 200.10569105691062 L 123.1904761904762 200.10569105691062 L 123.1904761904762 149.8571428571429 Z" stroke-linejoin="bevel" stroke-miterlimit="10" stroke-opacity="0.7"/><path fill="#f46d43" stroke="none" paint-order="stroke fill markers" d=" M 186.57142857142856 150.78348749571776 L 244.1904761904762 150.78348749571776 L 244.1904761904762 160.04693388146632 L 186.57142857142856 160.04693388146632 L 186.57142857142856 150.78348749571776 Z" fill-opacity="0.7"/><path fill="none" stroke="#f46d43" paint-order="fill stroke markers" d=" M 186.57142857142856 150.78348749571776 L 244.1904761904762 150.78348749571776 L 244.1904761904762 160.04693388146632 L 186.57142857142856 160.04693388146632 L 186.57142857142856 150.78348749571776 Z" stroke-linejoin="bevel" stroke-miterlimit="10" stroke-opacity="0.7"/><path fill="#f46d43" stroke="none" paint-order="stroke fill markers" d=" M 301.8095238095238 181.39067055393588 L 359.4285714285714 181.39067055393588 L 359.4285714285714 195.843537414966 L 301.8095238095238 195.843537414966 L 301.8095238095238 181.39067055393588 Z" fill-opacity="0.7"/><path fill="none" stroke="#f46d43" paint-order="fill stroke markers" d=" M 301.8095238095238 181.39067055393588 L 359.4285714285714 181.39067055393588 L 359.4285714285714 195.843537414966 L 301.8095238095238 195.843537414966 L 301.8095238095238 181.39067055393588 Z" stroke-linejoin="bevel" stroke-miterlimit="10" stroke-opacity="0.7"/><path fill="#f46d43" stroke="none" paint-order="stroke fill markers" d=" M 365.1904761904762 208.61257512713826 L 422.8095238095238 208.61257512713826 L 422.8095238095238 224.23901987979661 L 365.1904761904762 224.23901987979661 L 365.1904761904762 208.61257512713826 Z" fill-opacity="0.7"/><path fill="none" stroke="#f46d43" paint-order="fill stroke markers" d=" M 365.1904761904762 208.61257512713826 L 422.8095238095238 208.61257512713826 L 422.8095238095238 224.23901987979661 L 365.1904761904762 224.23901987979661 L 365.1904761904762 208.61257512713826 Z" stroke-linejoin="bevel" stroke-miterlimit="10" stroke-opacity="0.7"/><path fill="#f46d43" stroke="none" paint-order="stroke fill markers" d=" M 428.57142857142856 216.68294153104284 L 486.19047619047615 216.68294153104284 L 486.19047619047615 217.70162748643764 L 428.57142857142856 217.70162748643764 L 428.57142857142856 216.68294153104284 Z" fill-opacity="0.7"/><path fill="none" stroke="#f46d43" paint-order="fill stroke markers" d=" M 428.57142857142856 216.68294153104284 L 486.19047619047615 216.68294153104284 L 486.19047619047615 217.70162748643764 L 428.57142857142856 217.70162748643764 L 428.57142857142856 216.68294153104284 Z" stroke-linejoin="bevel" stroke-miterlimit="10" stroke-opacity="0.7"/></g></g></g><g clip-path="url(#OGMJRcfPnrOI)"><g><g><path fill="none" stroke="none"/><path fill="#d53e4f" stroke="none" paint-order="stroke fill markers" d=" M 59.80952380952382 63.652138821630444 L 117.42857142857142 63.652138821630444 L 117.42857142857142 107.30024213075069 L 59.80952380952382 107.30024213075069 L 59.80952380952382 63.652138821630444 Z" fill-opacity="0.7"/><path fill="none" stroke="#d53e4f" paint-order="fill stroke markers" d=" M 59.80952380952382 63.652138821630444 L 117.42857142857142 63.652138821630444 L 117.42857142857142 107.30024213075069 L 59.80952380952382 107.30024213075069 L 59.80952380952382 63.652138821630444 Z" stroke-linejoin="bevel" stroke-miterlimit="10" stroke-opacity="0.7"/><path fill="#d53e4f" stroke="none" paint-order="stroke fill markers" d=" M 123.1904761904762 142.0058072009292 L 180.8095238095238 142.0058072009292 L 180.8095238095238 149.8571428571429 L 123.1904761904762 149.8571428571429 L 123.1904761904762 142.0058072009292 Z" fill-opacity="0.7"/><path fill="none" stroke="#d53e4f" paint-order="fill stroke markers" d=" M 123.1904761904762 142.0058072009292 L 180.8095238095238 142.0058072009292 L 180.8095238095238 149.8571428571429 L 123.1904761904762 149.8571428571429 L 123.1904761904762 142.0058072009292 Z" stroke-linejoin="bevel" stroke-miterlimit="10" stroke-opacity="0.7"/><path fill="#d53e4f" stroke="none" paint-order="stroke fill markers" d=" M 186.57142857142856 124.15107913669073 L 244.1904761904762 124.15107913669073 L 244.1904761904762 150.78348749571776 L 186.57142857142856 150.78348749571776 L 186.57142857142856 124.15107913669073 Z" fill-opacity="0.7"/><path fill="none" stroke="#d53e4f" paint-order="fill stroke markers" d=" M 186.57142857142856 124.15107913669073 L 244.1904761904762 124.15107913669073 L 244.1904761904762 150.78348749571776 L 186.57142857142856 150.78348749571776 L 186.57142857142856 124.15107913669073 Z" stroke-linejoin="bevel" stroke-miterlimit="10" stroke-opacity="0.7"/><path fill="#d53e4f" stroke="none" paint-order="stroke fill markers" d=" M 301.8095238095238 153.798833819242 L 359.4285714285714 153.798833819242 L 359.4285714285714 181.39067055393588 L 301.8095238095238 181.39067055393588 L 301.8095238095238 153.798833819242 Z" fill-opacity="0.7"/><path fill="none" stroke="#d53e4f" paint-order="fill stroke markers" d=" M 301.8095238095238 153.798833819242 L 359.4285714285714 153.798833819242 L 359.4285714285714 181.39067055393588 L 301.8095238095238 181.39067055393588 L 301.8095238095238 153.798833819242 Z" stroke-linejoin="bevel" stroke-miterlimit="10" stroke-opacity="0.7"/><path fill="#d53e4f" stroke="none" paint-order="stroke fill markers" d=" M 365.1904761904762 166.42117429496074 L 422.8095238095238 166.42117429496074 L 422.8095238095238 208.61257512713826 L 365.1904761904762 208.61257512713826 L 365.1904761904762 166.42117429496074 Z" fill-opacity="0.7"/><path fill="none" stroke="#d53e4f" paint-order="fill stroke markers" d=" M 365.1904761904762 166.42117429496074 L 422.8095238095238 166.42117429496074 L 422.8095238095238 208.61257512713826 L 365.1904761904762 208.61257512713826 L 365.1904761904762 166.42117429496074 Z" stroke-linejoin="bevel" stroke-miterlimit="10" stroke-opacity="0.7"/><path fill="#d53e4f" stroke="none" paint-order="stroke fill markers" d=" M 428.57142857142856 213.62688366485838 L 486.19047619047615 213.62688366485838 L 486.19047619047615 216.68294153104284 L 428.57142857142856 216.68294153104284 L 428.57142857142856 213.62688366485838 Z" fill-opacity="0.7"/><path fill="none" stroke="#d53e4f" paint-order="fill stroke markers" d=" M 428.57142857142856 213.62688366485838 L 486.19047619047615 213.62688366485838 L 486.19047619047615 216.68294153104284 L 428.57142857142856 216.68294153104284 L 428.57142857142856 213.62688366485838 Z" stroke-linejoin="bevel" stroke-miterlimit="10" stroke-opacity="0.7"/></g></g></g><g clip-path="url(#TmgmKRLypXfk)"><g><g><path fill="none" stroke="none"/><path fill="#9e0142" stroke="none" paint-order="stroke fill markers" d=" M 59.80952380952382 61.46973365617441 L 117.42857142857142 61.46973365617441 L 117.42857142857142 63.652138821630444 L 59.80952380952382 63.652138821630444 L 59.80952380952382 61.46973365617441 Z" fill-opacity="0.7"/><path fill="none" stroke="#9e0142" paint-order="fill stroke markers" d=" M 59.80952380952382 61.46973365617441 L 117.42857142857142 61.46973365617441 L 117.42857142857142 63.652138821630444 L 59.80952380952382 63.652138821630444 L 59.80952380952382 61.46973365617441 Z" stroke-linejoin="bevel" stroke-miterlimit="10" stroke-opacity="0.7"/><path fill="#9e0142" stroke="none" paint-order="stroke fill markers" d=" M 123.1904761904762 126.3031358885018 L 180.8095238095238 126.3031358885018 L 180.8095238095238 142.0058072009292 L 123.1904761904762 142.0058072009292 L 123.1904761904762 126.3031358885018 Z" fill-opacity="0.7"/><path fill="none" stroke="#9e0142" paint-order="fill stroke markers" d=" M 123.1904761904762 126.3031358885018 L 180.8095238095238 126.3031358885018 L 180.8095238095238 142.0058072009292 L 123.1904761904762 142.0058072009292 L 123.1904761904762 126.3031358885018 Z" stroke-linejoin="bevel" stroke-miterlimit="10" stroke-opacity="0.7"/><path fill="#9e0142" stroke="none" paint-order="stroke fill markers" d=" M 186.57142857142856 120.677286742035 L 244.1904761904762 120.677286742035 L 244.1904761904762 124.15107913669073 L 186.57142857142856 124.15107913669073 L 186.57142857142856 120.677286742035 Z" fill-opacity="0.7"/><path fill="none" stroke="#9e0142" paint-order="fill stroke markers" d=" M 186.57142857142856 120.677286742035 L 244.1904761904762 120.677286742035 L 244.1904761904762 124.15107913669073 L 186.57142857142856 124.15107913669073 L 186.57142857142856 120.677286742035 Z" stroke-linejoin="bevel" stroke-miterlimit="10" stroke-opacity="0.7"/><path fill="#9e0142" stroke="none" paint-order="stroke fill markers" d=" M 301.8095238095238 152.48493683187561 L 359.4285714285714 152.48493683187561 L 359.4285714285714 153.798833819242 L 301.8095238095238 153.798833819242 L 301.8095238095238 152.48493683187561 Z" fill-opacity="0.7"/><path fill="none" stroke="#9e0142" paint-order="fill stroke markers" d=" M 301.8095238095238 152.48493683187561 L 359.4285714285714 152.48493683187561 L 359.4285714285714 153.798833819242 L 301.8095238095238 153.798833819242 L 301.8095238095238 152.48493683187561 Z" stroke-linejoin="bevel" stroke-miterlimit="10" stroke-opacity="0.7"/><path fill="#9e0142" stroke="none" paint-order="stroke fill markers" d=" M 365.1904761904762 138.2935737401757 L 422.8095238095238 138.2935737401757 L 422.8095238095238 166.42117429496074 L 365.1904761904762 166.42117429496074 L 365.1904761904762 138.2935737401757 Z" fill-opacity="0.7"/><path fill="none" stroke="#9e0142" paint-order="fill stroke markers" d=" M 365.1904761904762 138.2935737401757 L 422.8095238095238 138.2935737401757 L 422.8095238095238 166.42117429496074 L 365.1904761904762 166.42117429496074 L 365.1904761904762 138.2935737401757 Z" stroke-linejoin="bevel" stroke-miterlimit="10" stroke-opacity="0.7"/><path fill="#9e0142" stroke="none" paint-order="stroke fill markers" d=" M 428.57142857142856 173.89813140446057 L 486.19047619047615 173.89813140446057 L 486.19047619047615 213.62688366485838 L 428.57142857142856 213.62688366485838 L 428.57142857142856 173.89813140446057 Z" fill-opacity="0.7"/><path fill="none" stroke="#9e0142" paint-order="fill stroke markers" d=" M 428.57142857142856 173.89813140446057 L 486.19047619047615 173.89813140446057 L 486.19047619047615 213.62688366485838 L 428.57142857142856 213.62688366485838 L 428.57142857142856 173.89813140446057 Z" stroke-linejoin="bevel" stroke-miterlimit="10" stroke-opacity="0.7"/></g></g></g><g clip-path="url(#LlcBUzTooREa)"><g><g><path fill="none" stroke="none"/><path fill="#1f77b4" stroke="none" paint-order="stroke fill markers" d=" M 59.80952380952382 57.104923325262405 L 117.42857142857142 57.104923325262405 L 117.42857142857142 61.46973365617441 L 59.80952380952382 61.46973365617441 L 59.80952380952382 57.104923325262405 Z" fill-opacity="0.7"/><path fill="none" stroke="#1f77b4" paint-order="fill stroke markers" d=" M 59.80952380952382 57.104923325262405 L 117.42857142857142 57.104923325262405 L 117.42857142857142 61.46973365617441 L 59.80952380952382 61.46973365617441 L 59.80952380952382 57.104923325262405 Z" stroke-linejoin="bevel" stroke-miterlimit="10" stroke-opacity="0.7"/><path fill="#1f77b4" stroke="none" paint-order="stroke fill markers" d=" M 123.1904761904762 57.21138211382123 L 180.8095238095238 57.21138211382123 L 180.8095238095238 126.3031358885018 L 123.1904761904762 126.3031358885018 L 123.1904761904762 57.21138211382123 Z" fill-opacity="0.7"/><path fill="none" stroke="#1f77b4" paint-order="fill stroke markers" d=" M 123.1904761904762 57.21138211382123 L 180.8095238095238 57.21138211382123 L 180.8095238095238 126.3031358885018 L 123.1904761904762 126.3031358885018 L 123.1904761904762 57.21138211382123 Z" stroke-linejoin="bevel" stroke-miterlimit="10" stroke-opacity="0.7"/><path fill="#1f77b4" stroke="none" paint-order="stroke fill markers" d=" M 186.57142857142856 113.72970195272362 L 244.1904761904762 113.72970195272362 L 244.1904761904762 120.677286742035 L 186.57142857142856 120.677286742035 L 186.57142857142856 113.72970195272362 Z" fill-opacity="0.7"/><path fill="none" stroke="#1f77b4" paint-order="fill stroke markers" d=" M 186.57142857142856 113.72970195272362 L 244.1904761904762 113.72970195272362 L 244.1904761904762 120.677286742035 L 186.57142857142856 120.677286742035 L 186.57142857142856 113.72970195272362 Z" stroke-linejoin="bevel" stroke-miterlimit="10" stroke-opacity="0.7"/><path fill="#1f77b4" stroke="none" paint-order="stroke fill markers" d=" M 301.8095238095238 103.87074829931976 L 359.4285714285714 103.87074829931976 L 359.4285714285714 152.48493683187561 L 301.8095238095238 152.48493683187561 L 301.8095238095238 103.87074829931976 Z" fill-opacity="0.7"/><path fill="none" stroke="#1f77b4" paint-order="fill stroke markers" d=" M 301.8095238095238 103.87074829931976 L 359.4285714285714 103.87074829931976 L 359.4285714285714 152.48493683187561 L 301.8095238095238 152.48493683187561 L 301.8095238095238 103.87074829931976 Z" stroke-linejoin="bevel" stroke-miterlimit="10" stroke-opacity="0.7"/><path fill="#1f77b4" stroke="none" paint-order="stroke fill markers" d=" M 365.1904761904762 128.9177068885807 L 422.8095238095238 128.9177068885807 L 422.8095238095238 138.2935737401757 L 365.1904761904762 138.2935737401757 L 365.1904761904762 128.9177068885807 Z" fill-opacity="0.7"/><path fill="none" stroke="#1f77b4" paint-order="fill stroke markers" d=" M 365.1904761904762 128.9177068885807 L 422.8095238095238 128.9177068885807 L 422.8095238095238 138.2935737401757 L 365.1904761904762 138.2935737401757 L 365.1904761904762 128.9177068885807 Z" stroke-linejoin="bevel" stroke-miterlimit="10" stroke-opacity="0.7"/><path fill="#1f77b4" stroke="none" paint-order="stroke fill markers" d=" M 428.57142857142856 167.78601567209168 L 486.19047619047615 167.78601567209168 L 486.19047619047615 173.89813140446057 L 428.57142857142856 173.89813140446057 L 428.57142857142856 167.78601567209168 Z" fill-opacity="0.7"/><path fill="none" stroke="#1f77b4" paint-order="fill stroke markers" d=" M 428.57142857142856 167.78601567209168 L 486.19047619047615 167.78601567209168 L 486.19047619047615 173.89813140446057 L 428.57142857142856 173.89813140446057 L 428.57142857142856 167.78601567209168 Z" stroke-linejoin="bevel" stroke-miterlimit="10" stroke-opacity="0.7"/></g></g></g><g clip-path="url(#qGZkSgiRMwAS)"><g><g><path fill="none" stroke="none"/><path fill="#aec7e8" stroke="none" paint-order="stroke fill markers" d=" M 59.80952380952382 57.104923325262405 L 117.42857142857142 57.104923325262405 L 117.42857142857142 57.104923325262405 L 59.80952380952382 57.104923325262405 L 59.80952380952382 57.104923325262405 Z" fill-opacity="0.7"/><path fill="none" stroke="#aec7e8" paint-order="fill stroke markers" d=" M 59.80952380952382 57.104923325262405 L 117.42857142857142 57.104923325262405 L 117.42857142857142 57.104923325262405 L 59.80952380952382 57.104923325262405 L 59.80952380952382 57.104923325262405 Z" stroke-linejoin="bevel" stroke-miterlimit="10" stroke-opacity="0.7"/><path fill="#aec7e8" stroke="none" paint-order="stroke fill markers" d=" M 123.1904761904762 49.360046457607496 L 180.8095238095238 49.360046457607496 L 180.8095238095238 57.21138211382123 L 123.1904761904762 57.21138211382123 L 123.1904761904762 49.360046457607496 Z" fill-opacity="0.7"/><path fill="none" stroke="#aec7e8" paint-order="fill stroke markers" d=" M 123.1904761904762 49.360046457607496 L 180.8095238095238 49.360046457607496 L 180.8095238095238 57.21138211382123 L 123.1904761904762 57.21138211382123 L 123.1904761904762 49.360046457607496 Z" stroke-linejoin="bevel" stroke-miterlimit="10" stroke-opacity="0.7"/><path fill="#aec7e8" stroke="none" paint-order="stroke fill markers" d=" M 186.57142857142856 91.72901678657084 L 244.1904761904762 91.72901678657084 L 244.1904761904762 113.72970195272362 L 186.57142857142856 113.72970195272362 L 186.57142857142856 91.72901678657084 Z" fill-opacity="0.7"/><path fill="none" stroke="#aec7e8" paint-order="fill stroke markers" d=" M 186.57142857142856 91.72901678657084 L 244.1904761904762 91.72901678657084 L 244.1904761904762 113.72970195272362 L 186.57142857142856 113.72970195272362 L 186.57142857142856 91.72901678657084 Z" stroke-linejoin="bevel" stroke-miterlimit="10" stroke-opacity="0.7"/><path fill="#aec7e8" stroke="none" paint-order="stroke fill markers" d=" M 301.8095238095238 84.16229348882416 L 359.4285714285714 84.16229348882416 L 359.4285714285714 103.87074829931976 L 301.8095238095238 103.87074829931976 L 301.8095238095238 84.16229348882416 Z" fill-opacity="0.7"/><path fill="none" stroke="#aec7e8" paint-order="fill stroke markers" d=" M 301.8095238095238 84.16229348882416 L 359.4285714285714 84.16229348882416 L 359.4285714285714 103.87074829931976 L 301.8095238095238 103.87074829931976 L 301.8095238095238 84.16229348882416 Z" stroke-linejoin="bevel" stroke-miterlimit="10" stroke-opacity="0.7"/><path fill="#aec7e8" stroke="none" paint-order="stroke fill markers" d=" M 365.1904761904762 116.416551086454 L 422.8095238095238 116.416551086454 L 422.8095238095238 128.9177068885807 L 365.1904761904762 128.9177068885807 L 365.1904761904762 116.416551086454 Z" fill-opacity="0.7"/><path fill="none" stroke="#aec7e8" paint-order="fill stroke markers" d=" M 365.1904761904762 116.416551086454 L 422.8095238095238 116.416551086454 L 422.8095238095238 128.9177068885807 L 365.1904761904762 128.9177068885807 L 365.1904761904762 116.416551086454 Z" stroke-linejoin="bevel" stroke-miterlimit="10" stroke-opacity="0.7"/><path fill="#aec7e8" stroke="none" paint-order="stroke fill markers" d=" M 428.57142857142856 95.45931283905975 L 486.19047619047615 95.45931283905975 L 486.19047619047615 167.78601567209168 L 428.57142857142856 167.78601567209168 L 428.57142857142856 95.45931283905975 Z" fill-opacity="0.7"/><path fill="none" stroke="#aec7e8" paint-order="fill stroke markers" d=" M 428.57142857142856 95.45931283905975 L 486.19047619047615 95.45931283905975 L 486.19047619047615 167.78601567209168 L 428.57142857142856 167.78601567209168 L 428.57142857142856 95.45931283905975 Z" stroke-linejoin="bevel" stroke-miterlimit="10" stroke-opacity="0.7"/></g></g></g><g clip-path="url(#ghTpNdewXKxo)"><g><g><path fill="none" stroke="none"/><path fill="#ff7f0e" stroke="none" paint-order="stroke fill markers" d=" M 59.80952380952382 57.104923325262405 L 117.42857142857142 57.104923325262405 L 117.42857142857142 57.104923325262405 L 59.80952380952382 57.104923325262405 L 59.80952380952382 57.104923325262405 Z" fill-opacity="0.7"/><path fill="none" stroke="#ff7f0e" paint-order="fill stroke markers" d=" M 59.80952380952382 57.104923325262405 L 117.42857142857142 57.104923325262405 L 117.42857142857142 57.104923325262405 L 59.80952380952382 57.104923325262405 L 59.80952380952382 57.104923325262405 Z" stroke-linejoin="bevel" stroke-miterlimit="10" stroke-opacity="0.7"/><path fill="#ff7f0e" stroke="none" paint-order="stroke fill markers" d=" M 123.1904761904762 49.360046457607496 L 180.8095238095238 49.360046457607496 L 180.8095238095238 49.360046457607496 L 123.1904761904762 49.360046457607496 L 123.1904761904762 49.360046457607496 Z" fill-opacity="0.7"/><path fill="none" stroke="#ff7f0e" paint-order="fill stroke markers" d=" M 123.1904761904762 49.360046457607496 L 180.8095238095238 49.360046457607496 L 180.8095238095238 49.360046457607496 L 123.1904761904762 49.360046457607496 L 123.1904761904762 49.360046457607496 Z" stroke-linejoin="bevel" stroke-miterlimit="10" stroke-opacity="0.7"/><path fill="#ff7f0e" stroke="none" paint-order="stroke fill markers" d=" M 186.57142857142856 63.938677629325184 L 244.1904761904762 63.938677629325184 L 244.1904761904762 91.72901678657084 L 186.57142857142856 91.72901678657084 L 186.57142857142856 63.938677629325184 Z" fill-opacity="0.7"/><path fill="none" stroke="#ff7f0e" paint-order="fill stroke markers" d=" M 186.57142857142856 63.938677629325184 L 244.1904761904762 63.938677629325184 L 244.1904761904762 91.72901678657084 L 186.57142857142856 91.72901678657084 L 186.57142857142856 63.938677629325184 Z" stroke-linejoin="bevel" stroke-miterlimit="10" stroke-opacity="0.7"/><path fill="#ff7f0e" stroke="none" paint-order="stroke fill markers" d=" M 301.8095238095238 55.25655976676387 L 359.4285714285714 55.25655976676387 L 359.4285714285714 84.16229348882416 L 301.8095238095238 84.16229348882416 L 301.8095238095238 55.25655976676387 Z" fill-opacity="0.7"/><path fill="none" stroke="#ff7f0e" paint-order="fill stroke markers" d=" M 301.8095238095238 55.25655976676387 L 359.4285714285714 55.25655976676387 L 359.4285714285714 84.16229348882416 L 301.8095238095238 84.16229348882416 L 301.8095238095238 55.25655976676387 Z" stroke-linejoin="bevel" stroke-miterlimit="10" stroke-opacity="0.7"/><path fill="#ff7f0e" stroke="none" paint-order="stroke fill markers" d=" M 365.1904761904762 94.53952843273234 L 422.8095238095238 94.53952843273234 L 422.8095238095238 116.416551086454 L 365.1904761904762 116.416551086454 L 365.1904761904762 94.53952843273234 Z" fill-opacity="0.7"/><path fill="none" stroke="#ff7f0e" paint-order="fill stroke markers" d=" M 365.1904761904762 94.53952843273234 L 422.8095238095238 94.53952843273234 L 422.8095238095238 116.416551086454 L 365.1904761904762 116.416551086454 L 365.1904761904762 94.53952843273234 Z" stroke-linejoin="bevel" stroke-miterlimit="10" stroke-opacity="0.7"/><path fill="#ff7f0e" stroke="none" paint-order="stroke fill markers" d=" M 428.57142857142856 77.12296564195304 L 486.19047619047615 77.12296564195304 L 486.19047619047615 95.45931283905975 L 428.57142857142856 95.45931283905975 L 428.57142857142856 77.12296564195304 Z" fill-opacity="0.7"/><path fill="none" stroke="#ff7f0e" paint-order="fill stroke markers" d=" M 428.57142857142856 77.12296564195304 L 486.19047619047615 77.12296564195304 L 486.19047619047615 95.45931283905975 L 428.57142857142856 95.45931283905975 L 428.57142857142856 77.12296564195304 Z" stroke-linejoin="bevel" stroke-miterlimit="10" stroke-opacity="0.7"/></g></g></g><g clip-path="url(#ZMTinsbMCRro)"><g><g><path fill="none" stroke="none"/><path fill="#ffbb78" stroke="none" paint-order="stroke fill markers" d=" M 59.80952380952382 57.104923325262405 L 117.42857142857142 57.104923325262405 L 117.42857142857142 57.104923325262405 L 59.80952380952382 57.104923325262405 L 59.80952380952382 57.104923325262405 Z" fill-opacity="0.7"/><path fill="none" stroke="#ffbb78" paint-order="fill stroke markers" d=" M 59.80952380952382 57.104923325262405 L 117.42857142857142 57.104923325262405 L 117.42857142857142 57.104923325262405 L 59.80952380952382 57.104923325262405 L 59.80952380952382 57.104923325262405 Z" stroke-linejoin="bevel" stroke-miterlimit="10" stroke-opacity="0.7"/><path fill="#ffbb78" stroke="none" paint-order="stroke fill markers" d=" M 123.1904761904762 49.360046457607496 L 180.8095238095238 49.360046457607496 L 180.8095238095238 49.360046457607496 L 123.1904761904762 49.360046457607496 L 123.1904761904762 49.360046457607496 Z" fill-opacity="0.7"/><path fill="none" stroke="#ffbb78" paint-order="fill stroke markers" d=" M 123.1904761904762 49.360046457607496 L 180.8095238095238 49.360046457607496 L 180.8095238095238 49.360046457607496 L 123.1904761904762 49.360046457607496 L 123.1904761904762 49.360046457607496 Z" stroke-linejoin="bevel" stroke-miterlimit="10" stroke-opacity="0.7"/><path fill="#ffbb78" stroke="none" paint-order="stroke fill markers" d=" M 186.57142857142856 45.41178485782808 L 244.1904761904762 45.41178485782808 L 244.1904761904762 63.938677629325184 L 186.57142857142856 63.938677629325184 L 186.57142857142856 45.41178485782808 Z" fill-opacity="0.7"/><path fill="none" stroke="#ffbb78" paint-order="fill stroke markers" d=" M 186.57142857142856 45.41178485782808 L 244.1904761904762 45.41178485782808 L 244.1904761904762 63.938677629325184 L 186.57142857142856 63.938677629325184 L 186.57142857142856 45.41178485782808 Z" stroke-linejoin="bevel" stroke-miterlimit="10" stroke-opacity="0.7"/><path fill="#ffbb78" stroke="none" paint-order="stroke fill markers" d=" M 301.8095238095238 31.60641399416909 L 359.4285714285714 31.60641399416909 L 359.4285714285714 55.25655976676387 L 301.8095238095238 55.25655976676387 L 301.8095238095238 31.60641399416909 Z" fill-opacity="0.7"/><path fill="none" stroke="#ffbb78" paint-order="fill stroke markers" d=" M 301.8095238095238 31.60641399416909 L 359.4285714285714 31.60641399416909 L 359.4285714285714 55.25655976676387 L 301.8095238095238 55.25655976676387 L 301.8095238095238 31.60641399416909 Z" stroke-linejoin="bevel" stroke-miterlimit="10" stroke-opacity="0.7"/><path fill="#ffbb78" stroke="none" paint-order="stroke fill markers" d=" M 365.1904761904762 77.35043920480814 L 422.8095238095238 77.35043920480814 L 422.8095238095238 94.53952843273234 L 365.1904761904762 94.53952843273234 L 365.1904761904762 77.35043920480814 Z" fill-opacity="0.7"/><path fill="none" stroke="#ffbb78" paint-order="fill stroke markers" d=" M 365.1904761904762 77.35043920480814 L 422.8095238095238 77.35043920480814 L 422.8095238095238 94.53952843273234 L 365.1904761904762 94.53952843273234 L 365.1904761904762 77.35043920480814 Z" stroke-linejoin="bevel" stroke-miterlimit="10" stroke-opacity="0.7"/><path fill="#ffbb78" stroke="none" paint-order="stroke fill markers" d=" M 428.57142857142856 66.93610608800492 L 486.19047619047615 66.93610608800492 L 486.19047619047615 77.12296564195304 L 428.57142857142856 77.12296564195304 L 428.57142857142856 66.93610608800492 Z" fill-opacity="0.7"/><path fill="none" stroke="#ffbb78" paint-order="fill stroke markers" d=" M 428.57142857142856 66.93610608800492 L 486.19047619047615 66.93610608800492 L 486.19047619047615 77.12296564195304 L 428.57142857142856 77.12296564195304 L 428.57142857142856 66.93610608800492 Z" stroke-linejoin="bevel" stroke-miterlimit="10" stroke-opacity="0.7"/></g></g></g><g clip-path="url(#nMXGfquBstcv)"><g><g><path fill="none" stroke="none"/><path fill="#2ca02c" stroke="none" paint-order="stroke fill markers" d=" M 59.80952380952382 57.104923325262405 L 117.42857142857142 57.104923325262405 L 117.42857142857142 57.104923325262405 L 59.80952380952382 57.104923325262405 L 59.80952380952382 57.104923325262405 Z" fill-opacity="0.7"/><path fill="none" stroke="#2ca02c" paint-order="fill stroke markers" d=" M 59.80952380952382 57.104923325262405 L 117.42857142857142 57.104923325262405 L 117.42857142857142 57.104923325262405 L 59.80952380952382 57.104923325262405 L 59.80952380952382 57.104923325262405 Z" stroke-linejoin="bevel" stroke-miterlimit="10" stroke-opacity="0.7"/><path fill="#2ca02c" stroke="none" paint-order="stroke fill markers" d=" M 123.1904761904762 49.360046457607496 L 180.8095238095238 49.360046457607496 L 180.8095238095238 49.360046457607496 L 123.1904761904762 49.360046457607496 L 123.1904761904762 49.360046457607496 Z" fill-opacity="0.7"/><path fill="none" stroke="#2ca02c" paint-order="fill stroke markers" d=" M 123.1904761904762 49.360046457607496 L 180.8095238095238 49.360046457607496 L 180.8095238095238 49.360046457607496 L 123.1904761904762 49.360046457607496 L 123.1904761904762 49.360046457607496 Z" stroke-linejoin="bevel" stroke-miterlimit="10" stroke-opacity="0.7"/><path fill="#2ca02c" stroke="none" paint-order="stroke fill markers" d=" M 186.57142857142856 23.411099691675304 L 244.1904761904762 23.411099691675304 L 244.1904761904762 45.41178485782808 L 186.57142857142856 45.41178485782808 L 186.57142857142856 23.411099691675304 Z" fill-opacity="0.7"/><path fill="none" stroke="#2ca02c" paint-order="fill stroke markers" d=" M 186.57142857142856 23.411099691675304 L 244.1904761904762 23.411099691675304 L 244.1904761904762 45.41178485782808 L 186.57142857142856 45.41178485782808 L 186.57142857142856 23.411099691675304 Z" stroke-linejoin="bevel" stroke-miterlimit="10" stroke-opacity="0.7"/><path fill="#2ca02c" stroke="none" paint-order="stroke fill markers" d=" M 301.8095238095238 23.723032069970884 L 359.4285714285714 23.723032069970884 L 359.4285714285714 31.60641399416909 L 301.8095238095238 31.60641399416909 L 301.8095238095238 23.723032069970884 Z" fill-opacity="0.7"/><path fill="none" stroke="#2ca02c" paint-order="fill stroke markers" d=" M 301.8095238095238 23.723032069970884 L 359.4285714285714 23.723032069970884 L 359.4285714285714 31.60641399416909 L 301.8095238095238 31.60641399416909 L 301.8095238095238 23.723032069970884 Z" stroke-linejoin="bevel" stroke-miterlimit="10" stroke-opacity="0.7"/><path fill="#2ca02c" stroke="none" paint-order="stroke fill markers" d=" M 365.1904761904762 74.22515025427651 L 422.8095238095238 74.22515025427651 L 422.8095238095238 77.35043920480814 L 365.1904761904762 77.35043920480814 L 365.1904761904762 74.22515025427651 Z" fill-opacity="0.7"/><path fill="none" stroke="#2ca02c" paint-order="fill stroke markers" d=" M 365.1904761904762 74.22515025427651 L 422.8095238095238 74.22515025427651 L 422.8095238095238 77.35043920480814 L 365.1904761904762 77.35043920480814 L 365.1904761904762 74.22515025427651 Z" stroke-linejoin="bevel" stroke-miterlimit="10" stroke-opacity="0.7"/><path fill="#2ca02c" stroke="none" paint-order="stroke fill markers" d=" M 428.57142857142856 46.56238698010861 L 486.19047619047615 46.56238698010861 L 486.19047619047615 66.93610608800492 L 428.57142857142856 66.93610608800492 L 428.57142857142856 46.56238698010861 Z" fill-opacity="0.7"/><path fill="none" stroke="#2ca02c" paint-order="fill stroke markers" d=" M 428.57142857142856 46.56238698010861 L 486.19047619047615 46.56238698010861 L 486.19047619047615 66.93610608800492 L 428.57142857142856 66.93610608800492 L 428.57142857142856 46.56238698010861 Z" stroke-linejoin="bevel" stroke-miterlimit="10" stroke-opacity="0.7"/></g></g></g><g clip-path="url(#eVkKCPVrIPbZ)"><g><g><path fill="none" stroke="none"/><path fill="#98df8a" stroke="none" paint-order="stroke fill markers" d=" M 59.80952380952382 21.095238095238187 L 117.42857142857142 21.095238095238187 L 117.42857142857142 57.104923325262405 L 59.80952380952382 57.104923325262405 L 59.80952380952382 21.095238095238187 Z" fill-opacity="0.7"/><path fill="none" stroke="#98df8a" paint-order="fill stroke markers" d=" M 59.80952380952382 21.095238095238187 L 117.42857142857142 21.095238095238187 L 117.42857142857142 57.104923325262405 L 59.80952380952382 57.104923325262405 L 59.80952380952382 21.095238095238187 Z" stroke-linejoin="bevel" stroke-miterlimit="10" stroke-opacity="0.7"/><path fill="#98df8a" stroke="none" paint-order="stroke fill markers" d=" M 123.1904761904762 39.93844367015106 L 180.8095238095238 39.93844367015106 L 180.8095238095238 49.360046457607496 L 123.1904761904762 49.360046457607496 L 123.1904761904762 39.93844367015106 Z" fill-opacity="0.7"/><path fill="none" stroke="#98df8a" paint-order="fill stroke markers" d=" M 123.1904761904762 39.93844367015106 L 180.8095238095238 39.93844367015106 L 180.8095238095238 49.360046457607496 L 123.1904761904762 49.360046457607496 L 123.1904761904762 39.93844367015106 Z" stroke-linejoin="bevel" stroke-miterlimit="10" stroke-opacity="0.7"/><path fill="#98df8a" stroke="none" paint-order="stroke fill markers" d=" M 186.57142857142856 21.095238095238187 L 244.1904761904762 21.095238095238187 L 244.1904761904762 23.411099691675304 L 186.57142857142856 23.411099691675304 L 186.57142857142856 21.095238095238187 Z" fill-opacity="0.7"/><path fill="none" stroke="#98df8a" paint-order="fill stroke markers" d=" M 186.57142857142856 21.095238095238187 L 244.1904761904762 21.095238095238187 L 244.1904761904762 23.411099691675304 L 186.57142857142856 23.411099691675304 L 186.57142857142856 21.095238095238187 Z" stroke-linejoin="bevel" stroke-miterlimit="10" stroke-opacity="0.7"/><path fill="#98df8a" stroke="none" paint-order="stroke fill markers" d=" M 301.8095238095238 21.09523809523813 L 359.4285714285714 21.09523809523813 L 359.4285714285714 23.723032069970884 L 301.8095238095238 23.723032069970884 L 301.8095238095238 21.09523809523813 Z" fill-opacity="0.7"/><path fill="none" stroke="#98df8a" paint-order="fill stroke markers" d=" M 301.8095238095238 21.09523809523813 L 359.4285714285714 21.09523809523813 L 359.4285714285714 23.723032069970884 L 301.8095238095238 23.723032069970884 L 301.8095238095238 21.09523809523813 Z" stroke-linejoin="bevel" stroke-miterlimit="10" stroke-opacity="0.7"/><path fill="#98df8a" stroke="none" paint-order="stroke fill markers" d=" M 365.1904761904762 64.84928340268152 L 422.8095238095238 64.84928340268152 L 422.8095238095238 74.22515025427651 L 365.1904761904762 74.22515025427651 L 365.1904761904762 64.84928340268152 Z" fill-opacity="0.7"/><path fill="none" stroke="#98df8a" paint-order="fill stroke markers" d=" M 365.1904761904762 64.84928340268152 L 422.8095238095238 64.84928340268152 L 422.8095238095238 74.22515025427651 L 365.1904761904762 74.22515025427651 L 365.1904761904762 64.84928340268152 Z" stroke-linejoin="bevel" stroke-miterlimit="10" stroke-opacity="0.7"/><path fill="#98df8a" stroke="none" paint-order="stroke fill markers" d=" M 428.57142857142856 46.56238698010861 L 486.19047619047615 46.56238698010861 L 486.19047619047615 46.56238698010861 L 428.57142857142856 46.56238698010861 L 428.57142857142856 46.56238698010861 Z" fill-opacity="0.7"/><path fill="none" stroke="#98df8a" paint-order="fill stroke markers" d=" M 428.57142857142856 46.56238698010861 L 486.19047619047615 46.56238698010861 L 486.19047619047615 46.56238698010861 L 428.57142857142856 46.56238698010861 L 428.57142857142856 46.56238698010861 Z" stroke-linejoin="bevel" stroke-miterlimit="10" stroke-opacity="0.7"/></g></g></g><g clip-path="url(#yckSukDOlECS)"><g><g><path fill="none" stroke="none"/><path fill="#d62728" stroke="none" paint-order="stroke fill markers" d=" M 59.80952380952382 21.095238095238187 L 117.42857142857142 21.095238095238187 L 117.42857142857142 21.095238095238187 L 59.80952380952382 21.095238095238187 L 59.80952380952382 21.095238095238187 Z" fill-opacity="0.7"/><path fill="none" stroke="#d62728" paint-order="fill stroke markers" d=" M 59.80952380952382 21.095238095238187 L 117.42857142857142 21.095238095238187 L 117.42857142857142 21.095238095238187 L 59.80952380952382 21.095238095238187 L 59.80952380952382 21.095238095238187 Z" stroke-linejoin="bevel" stroke-miterlimit="10" stroke-opacity="0.7"/><path fill="#d62728" stroke="none" paint-order="stroke fill markers" d=" M 123.1904761904762 35.22764227642284 L 180.8095238095238 35.22764227642284 L 180.8095238095238 39.93844367015106 L 123.1904761904762 39.93844367015106 L 123.1904761904762 35.22764227642284 Z" fill-opacity="0.7"/><path fill="none" stroke="#d62728" paint-order="fill stroke markers" d=" M 123.1904761904762 35.22764227642284 L 180.8095238095238 35.22764227642284 L 180.8095238095238 39.93844367015106 L 123.1904761904762 39.93844367015106 L 123.1904761904762 35.22764227642284 Z" stroke-linejoin="bevel" stroke-miterlimit="10" stroke-opacity="0.7"/><path fill="#d62728" stroke="none" paint-order="stroke fill markers" d=" M 186.57142857142856 21.095238095238187 L 244.1904761904762 21.095238095238187 L 244.1904761904762 21.095238095238187 L 186.57142857142856 21.095238095238187 L 186.57142857142856 21.095238095238187 Z" fill-opacity="0.7"/><path fill="none" stroke="#d62728" paint-order="fill stroke markers" d=" M 186.57142857142856 21.095238095238187 L 244.1904761904762 21.095238095238187 L 244.1904761904762 21.095238095238187 L 186.57142857142856 21.095238095238187 L 186.57142857142856 21.095238095238187 Z" stroke-linejoin="bevel" stroke-miterlimit="10" stroke-opacity="0.7"/><path fill="#d62728" stroke="none" paint-order="stroke fill markers" d=" M 301.8095238095238 21.09523809523813 L 359.4285714285714 21.09523809523813 L 359.4285714285714 21.09523809523813 L 301.8095238095238 21.09523809523813 L 301.8095238095238 21.09523809523813 Z" fill-opacity="0.7"/><path fill="none" stroke="#d62728" paint-order="fill stroke markers" d=" M 301.8095238095238 21.09523809523813 L 359.4285714285714 21.09523809523813 L 359.4285714285714 21.09523809523813 L 301.8095238095238 21.09523809523813 L 301.8095238095238 21.09523809523813 Z" stroke-linejoin="bevel" stroke-miterlimit="10" stroke-opacity="0.7"/><path fill="#d62728" stroke="none" paint-order="stroke fill markers" d=" M 365.1904761904762 50.78548312528898 L 422.8095238095238 50.78548312528898 L 422.8095238095238 64.84928340268152 L 365.1904761904762 64.84928340268152 L 365.1904761904762 50.78548312528898 Z" fill-opacity="0.7"/><path fill="none" stroke="#d62728" paint-order="fill stroke markers" d=" M 365.1904761904762 50.78548312528898 L 422.8095238095238 50.78548312528898 L 422.8095238095238 64.84928340268152 L 365.1904761904762 64.84928340268152 L 365.1904761904762 50.78548312528898 Z" stroke-linejoin="bevel" stroke-miterlimit="10" stroke-opacity="0.7"/><path fill="#d62728" stroke="none" paint-order="stroke fill markers" d=" M 428.57142857142856 37.39421338155523 L 486.19047619047615 37.39421338155523 L 486.19047619047615 46.56238698010861 L 428.57142857142856 46.56238698010861 L 428.57142857142856 37.39421338155523 Z" fill-opacity="0.7"/><path fill="none" stroke="#d62728" paint-order="fill stroke markers" d=" M 428.57142857142856 37.39421338155523 L 486.19047619047615 37.39421338155523 L 486.19047619047615 46.56238698010861 L 428.57142857142856 46.56238698010861 L 428.57142857142856 37.39421338155523 Z" stroke-linejoin="bevel" stroke-miterlimit="10" stroke-opacity="0.7"/></g></g></g><g clip-path="url(#WGhtqJdhOPQe)"><g><g><path fill="none" stroke="none"/><path fill="#ff9896" stroke="none" paint-order="stroke fill markers" d=" M 59.80952380952382 21.095238095238187 L 117.42857142857142 21.095238095238187 L 117.42857142857142 21.095238095238187 L 59.80952380952382 21.095238095238187 L 59.80952380952382 21.095238095238187 Z" fill-opacity="0.7"/><path fill="none" stroke="#ff9896" paint-order="fill stroke markers" d=" M 59.80952380952382 21.095238095238187 L 117.42857142857142 21.095238095238187 L 117.42857142857142 21.095238095238187 L 59.80952380952382 21.095238095238187 L 59.80952380952382 21.095238095238187 Z" stroke-linejoin="bevel" stroke-miterlimit="10" stroke-opacity="0.7"/><path fill="#ff9896" stroke="none" paint-order="stroke fill markers" d=" M 123.1904761904762 21.095238095238187 L 180.8095238095238 21.095238095238187 L 180.8095238095238 35.22764227642284 L 123.1904761904762 35.22764227642284 L 123.1904761904762 21.095238095238187 Z" fill-opacity="0.7"/><path fill="none" stroke="#ff9896" paint-order="fill stroke markers" d=" M 123.1904761904762 21.095238095238187 L 180.8095238095238 21.095238095238187 L 180.8095238095238 35.22764227642284 L 123.1904761904762 35.22764227642284 L 123.1904761904762 21.095238095238187 Z" stroke-linejoin="bevel" stroke-miterlimit="10" stroke-opacity="0.7"/><path fill="#ff9896" stroke="none" paint-order="stroke fill markers" d=" M 186.57142857142856 21.095238095238187 L 244.1904761904762 21.095238095238187 L 244.1904761904762 21.095238095238187 L 186.57142857142856 21.095238095238187 L 186.57142857142856 21.095238095238187 Z" fill-opacity="0.7"/><path fill="none" stroke="#ff9896" paint-order="fill stroke markers" d=" M 186.57142857142856 21.095238095238187 L 244.1904761904762 21.095238095238187 L 244.1904761904762 21.095238095238187 L 186.57142857142856 21.095238095238187 L 186.57142857142856 21.095238095238187 Z" stroke-linejoin="bevel" stroke-miterlimit="10" stroke-opacity="0.7"/><path fill="#ff9896" stroke="none" paint-order="stroke fill markers" d=" M 301.8095238095238 21.09523809523813 L 359.4285714285714 21.09523809523813 L 359.4285714285714 21.09523809523813 L 301.8095238095238 21.09523809523813 L 301.8095238095238 21.09523809523813 Z" fill-opacity="0.7"/><path fill="none" stroke="#ff9896" paint-order="fill stroke markers" d=" M 301.8095238095238 21.09523809523813 L 359.4285714285714 21.09523809523813 L 359.4285714285714 21.09523809523813 L 301.8095238095238 21.09523809523813 L 301.8095238095238 21.09523809523813 Z" stroke-linejoin="bevel" stroke-miterlimit="10" stroke-opacity="0.7"/><path fill="#ff9896" stroke="none" paint-order="stroke fill markers" d=" M 365.1904761904762 21.095238095238187 L 422.8095238095238 21.095238095238187 L 422.8095238095238 50.78548312528898 L 365.1904761904762 50.78548312528898 L 365.1904761904762 21.095238095238187 Z" fill-opacity="0.7"/><path fill="none" stroke="#ff9896" paint-order="fill stroke markers" d=" M 365.1904761904762 21.095238095238187 L 422.8095238095238 21.095238095238187 L 422.8095238095238 50.78548312528898 L 365.1904761904762 50.78548312528898 L 365.1904761904762 21.095238095238187 Z" stroke-linejoin="bevel" stroke-miterlimit="10" stroke-opacity="0.7"/><path fill="#ff9896" stroke="none" paint-order="stroke fill markers" d=" M 428.57142857142856 21.095238095238187 L 486.19047619047615 21.095238095238187 L 486.19047619047615 37.39421338155523 L 428.57142857142856 37.39421338155523 L 428.57142857142856 21.095238095238187 Z" fill-opacity="0.7"/><path fill="none" stroke="#ff9896" paint-order="fill stroke markers" d=" M 428.57142857142856 21.095238095238187 L 486.19047619047615 21.095238095238187 L 486.19047619047615 37.39421338155523 L 428.57142857142856 37.39421338155523 L 428.57142857142856 21.095238095238187 Z" stroke-linejoin="bevel" stroke-miterlimit="10" stroke-opacity="0.7"/></g></g></g><g><g/><g><path fill="#ffffff" stroke="#e5e5e5" paint-order="fill stroke markers" d=" M 525 -53 L 590 -53 L 590 401 L 525 401 L 525 -53 Z" fill-opacity="0.95" stroke-linejoin="bevel" stroke-miterlimit="10" stroke-opacity="0.5"/><text fill="#444444" stroke="none" font-family="helvetica" font-size="10pt" font-style="normal" font-weight="normal" text-decoration="normal" x="560" y="-33" text-anchor="start" dominant-baseline="central">11</text><rect fill="#5e4fa2" stroke="none" x="537" y="-41" width="16" height="16" fill-opacity="0.7"/><path fill="none" stroke="#5e4fa2" paint-order="fill stroke markers" d=" M 537 -41 L 553 -41 L 553 -25 L 537 -25 L 537 -41 Z" stroke-linejoin="bevel" stroke-miterlimit="10" stroke-opacity="0.7"/><text fill="#444444" stroke="none" font-family="helvetica" font-size="10pt" font-style="normal" font-weight="normal" text-decoration="normal" x="560" y="-10" text-anchor="start" dominant-baseline="central">13</text><rect fill="#3288bd" stroke="none" x="537" y="-18" width="16" height="16" fill-opacity="0.7"/><path fill="none" stroke="#3288bd" paint-order="fill stroke markers" d=" M 537 -18 L 553 -18 L 553 -2 L 537 -2 L 537 -18 Z" stroke-linejoin="bevel" stroke-miterlimit="10" stroke-opacity="0.7"/><text fill="#444444" stroke="none" font-family="helvetica" font-size="10pt" font-style="normal" font-weight="normal" text-decoration="normal" x="560" y="13" text-anchor="start" dominant-baseline="central">7</text><rect fill="#66c2a5" stroke="none" x="537" y="5" width="16" height="16" fill-opacity="0.7"/><path fill="none" stroke="#66c2a5" paint-order="fill stroke markers" d=" M 537 5 L 553 5 L 553 21 L 537 21 L 537 5 Z" stroke-linejoin="bevel" stroke-miterlimit="10" stroke-opacity="0.7"/><text fill="#444444" stroke="none" font-family="helvetica" font-size="10pt" font-style="normal" font-weight="normal" text-decoration="normal" x="560" y="36" text-anchor="start" dominant-baseline="central">1</text><rect fill="#abdda4" stroke="none" x="537" y="28" width="16" height="16" fill-opacity="0.7"/><path fill="none" stroke="#abdda4" paint-order="fill stroke markers" d=" M 537 28 L 553 28 L 553 44 L 537 44 L 537 28 Z" stroke-linejoin="bevel" stroke-miterlimit="10" stroke-opacity="0.7"/><text fill="#444444" stroke="none" font-family="helvetica" font-size="10pt" font-style="normal" font-weight="normal" text-decoration="normal" x="560" y="59" text-anchor="start" dominant-baseline="central">0</text><rect fill="#e6f598" stroke="none" x="537" y="51" width="16" height="16" fill-opacity="0.7"/><path fill="none" stroke="#e6f598" paint-order="fill stroke markers" d=" M 537 51 L 553 51 L 553 67 L 537 67 L 537 51 Z" stroke-linejoin="bevel" stroke-miterlimit="10" stroke-opacity="0.7"/><text fill="#444444" stroke="none" font-family="helvetica" font-size="10pt" font-style="normal" font-weight="normal" text-decoration="normal" x="560" y="82" text-anchor="start" dominant-baseline="central">8</text><rect fill="#ffffbf" stroke="none" x="537" y="74" width="16" height="16" fill-opacity="0.7"/><path fill="none" stroke="#ffffbf" paint-order="fill stroke markers" d=" M 537 74 L 553 74 L 553 90 L 537 90 L 537 74 Z" stroke-linejoin="bevel" stroke-miterlimit="10" stroke-opacity="0.7"/><text fill="#444444" stroke="none" font-family="helvetica" font-size="10pt" font-style="normal" font-weight="normal" text-decoration="normal" x="560" y="105" text-anchor="start" dominant-baseline="central">6</text><rect fill="#fee08b" stroke="none" x="537" y="97" width="16" height="16" fill-opacity="0.7"/><path fill="none" stroke="#fee08b" paint-order="fill stroke markers" d=" M 537 97 L 553 97 L 553 113 L 537 113 L 537 97 Z" stroke-linejoin="bevel" stroke-miterlimit="10" stroke-opacity="0.7"/><text fill="#444444" stroke="none" font-family="helvetica" font-size="10pt" font-style="normal" font-weight="normal" text-decoration="normal" x="560" y="128" text-anchor="start" dominant-baseline="central">17</text><rect fill="#fdae61" stroke="none" x="537" y="120" width="16" height="16" fill-opacity="0.7"/><path fill="none" stroke="#fdae61" paint-order="fill stroke markers" d=" M 537 120 L 553 120 L 553 136 L 537 136 L 537 120 Z" stroke-linejoin="bevel" stroke-miterlimit="10" stroke-opacity="0.7"/><text fill="#444444" stroke="none" font-family="helvetica" font-size="10pt" font-style="normal" font-weight="normal" text-decoration="normal" x="560" y="151" text-anchor="start" dominant-baseline="central">4</text><rect fill="#f46d43" stroke="none" x="537" y="143" width="16" height="16" fill-opacity="0.7"/><path fill="none" stroke="#f46d43" paint-order="fill stroke markers" d=" M 537 143 L 553 143 L 553 159 L 537 159 L 537 143 Z" stroke-linejoin="bevel" stroke-miterlimit="10" stroke-opacity="0.7"/><text fill="#444444" stroke="none" font-family="helvetica" font-size="10pt" font-style="normal" font-weight="normal" text-decoration="normal" x="560" y="174" text-anchor="start" dominant-baseline="central">2</text><rect fill="#d53e4f" stroke="none" x="537" y="166" width="16" height="16" fill-opacity="0.7"/><path fill="none" stroke="#d53e4f" paint-order="fill stroke markers" d=" M 537 166 L 553 166 L 553 182 L 537 182 L 537 166 Z" stroke-linejoin="bevel" stroke-miterlimit="10" stroke-opacity="0.7"/><text fill="#444444" stroke="none" font-family="helvetica" font-size="10pt" font-style="normal" font-weight="normal" text-decoration="normal" x="560" y="197" text-anchor="start" dominant-baseline="central">10</text><rect fill="#9e0142" stroke="none" x="537" y="189" width="16" height="16" fill-opacity="0.7"/><path fill="none" stroke="#9e0142" paint-order="fill stroke markers" d=" M 537 189 L 553 189 L 553 205 L 537 205 L 537 189 Z" stroke-linejoin="bevel" stroke-miterlimit="10" stroke-opacity="0.7"/><text fill="#444444" stroke="none" font-family="helvetica" font-size="10pt" font-style="normal" font-weight="normal" text-decoration="normal" x="560" y="220" text-anchor="start" dominant-baseline="central">5</text><rect fill="#1f77b4" stroke="none" x="537" y="212" width="16" height="16" fill-opacity="0.7"/><path fill="none" stroke="#1f77b4" paint-order="fill stroke markers" d=" M 537 212 L 553 212 L 553 228 L 537 228 L 537 212 Z" stroke-linejoin="bevel" stroke-miterlimit="10" stroke-opacity="0.7"/><text fill="#444444" stroke="none" font-family="helvetica" font-size="10pt" font-style="normal" font-weight="normal" text-decoration="normal" x="560" y="243" text-anchor="start" dominant-baseline="central">3</text><rect fill="#aec7e8" stroke="none" x="537" y="235" width="16" height="16" fill-opacity="0.7"/><path fill="none" stroke="#aec7e8" paint-order="fill stroke markers" d=" M 537 235 L 553 235 L 553 251 L 537 251 L 537 235 Z" stroke-linejoin="bevel" stroke-miterlimit="10" stroke-opacity="0.7"/><text fill="#444444" stroke="none" font-family="helvetica" font-size="10pt" font-style="normal" font-weight="normal" text-decoration="normal" x="560" y="266" text-anchor="start" dominant-baseline="central">9</text><rect fill="#ff7f0e" stroke="none" x="537" y="258" width="16" height="16" fill-opacity="0.7"/><path fill="none" stroke="#ff7f0e" paint-order="fill stroke markers" d=" M 537 258 L 553 258 L 553 274 L 537 274 L 537 258 Z" stroke-linejoin="bevel" stroke-miterlimit="10" stroke-opacity="0.7"/><text fill="#444444" stroke="none" font-family="helvetica" font-size="10pt" font-style="normal" font-weight="normal" text-decoration="normal" x="560" y="289" text-anchor="start" dominant-baseline="central">12</text><rect fill="#ffbb78" stroke="none" x="537" y="281" width="16" height="16" fill-opacity="0.7"/><path fill="none" stroke="#ffbb78" paint-order="fill stroke markers" d=" M 537 281 L 553 281 L 553 297 L 537 297 L 537 281 Z" stroke-linejoin="bevel" stroke-miterlimit="10" stroke-opacity="0.7"/><text fill="#444444" stroke="none" font-family="helvetica" font-size="10pt" font-style="normal" font-weight="normal" text-decoration="normal" x="560" y="312" text-anchor="start" dominant-baseline="central">15</text><rect fill="#2ca02c" stroke="none" x="537" y="304" width="16" height="16" fill-opacity="0.7"/><path fill="none" stroke="#2ca02c" paint-order="fill stroke markers" d=" M 537 304 L 553 304 L 553 320 L 537 320 L 537 304 Z" stroke-linejoin="bevel" stroke-miterlimit="10" stroke-opacity="0.7"/><text fill="#444444" stroke="none" font-family="helvetica" font-size="10pt" font-style="normal" font-weight="normal" text-decoration="normal" x="560" y="335" text-anchor="start" dominant-baseline="central">14</text><rect fill="#98df8a" stroke="none" x="537" y="327" width="16" height="16" fill-opacity="0.7"/><path fill="none" stroke="#98df8a" paint-order="fill stroke markers" d=" M 537 327 L 553 327 L 553 343 L 537 343 L 537 327 Z" stroke-linejoin="bevel" stroke-miterlimit="10" stroke-opacity="0.7"/><text fill="#444444" stroke="none" font-family="helvetica" font-size="10pt" font-style="normal" font-weight="normal" text-decoration="normal" x="560" y="358" text-anchor="start" dominant-baseline="central">18</text><rect fill="#d62728" stroke="none" x="537" y="350" width="16" height="16" fill-opacity="0.7"/><path fill="none" stroke="#d62728" paint-order="fill stroke markers" d=" M 537 350 L 553 350 L 553 366 L 537 366 L 537 350 Z" stroke-linejoin="bevel" stroke-miterlimit="10" stroke-opacity="0.7"/><text fill="#444444" stroke="none" font-family="helvetica" font-size="10pt" font-style="normal" font-weight="normal" text-decoration="normal" x="560" y="381" text-anchor="start" dominant-baseline="central">16</text><rect fill="#ff9896" stroke="none" x="537" y="373" width="16" height="16" fill-opacity="0.7"/><path fill="none" stroke="#ff9896" paint-order="fill stroke markers" d=" M 537 373 L 553 373 L 553 389 L 537 389 L 537 373 Z" stroke-linejoin="bevel" stroke-miterlimit="10" stroke-opacity="0.7"/></g></g><g><g fill="grey" stroke="lightgrey" stroke-linejoin="bevel" stroke-miterlimit="10" stroke-width="2"><path fill="none" stroke="black" paint-order="fill stroke markers" d=" M 31 343 L 515 343" stroke-linejoin="bevel" stroke-miterlimit="10"/><path fill="none" stroke="black" paint-order="fill stroke markers" d=" M 89 349 L 89 341" stroke-linejoin="bevel" stroke-miterlimit="10"/><path fill="none" stroke="black" paint-order="fill stroke markers" d=" M 152 349 L 152 341" stroke-linejoin="bevel" stroke-miterlimit="10"/><path fill="none" stroke="black" paint-order="fill stroke markers" d=" M 215 349 L 215 341" stroke-linejoin="bevel" stroke-miterlimit="10"/><path fill="none" stroke="black" paint-order="fill stroke markers" d=" M 331 349 L 331 341" stroke-linejoin="bevel" stroke-miterlimit="10"/><path fill="none" stroke="black" paint-order="fill stroke markers" d=" M 394 349 L 394 341" stroke-linejoin="bevel" stroke-miterlimit="10"/><path fill="" stroke="" paint-order="fill stroke markers" d=" M 457 349 L 457 341" stroke-linejoin="bevel" stroke-miterlimit="10"/><g transform="translate(89,354) rotate(-57.29577951308232,0,0)"><text fill="" stroke="none" font-family="helvetica" font-size="8pt" font-style="normal" font-weight="normal" text-decoration="normal" x="0" y="0" text-anchor="end" dominant-baseline="central">Body</text><g transform="rotate(57.29577951308232,0,0) translate(-89,-354) translate(152,354) rotate(-57.29577951308232,0,0)"><text fill="" stroke="none" font-family="helvetica" font-size="8pt" font-style="normal" font-weight="normal" text-decoration="normal" x="0" y="0" text-anchor="end" dominant-baseline="central">Head</text><g transform="rotate(57.29577951308232,0,0) translate(-152,-354) translate(215,354) rotate(-57.29577951308232,0,0)"><text fill="" stroke="none" font-family="helvetica" font-size="8pt" font-style="normal" font-weight="normal" text-decoration="normal" x="0" y="0" text-anchor="end" dominant-baseline="central">Tail</text><g transform="rotate(57.29577951308232,0,0) translate(-215,-354) translate(331,354) rotate(-57.29577951308232,0,0)"><text fill="" stroke="none" font-family="helvetica" font-size="8pt" font-style="normal" font-weight="normal" text-decoration="normal" x="0" y="0" text-anchor="end" dominant-baseline="central">Body</text><g transform="rotate(57.29577951308232,0,0) translate(-331,-354) translate(394,354) rotate(-57.29577951308232,0,0)"><text fill="" stroke="none" font-family="helvetica" font-size="8pt" font-style="normal" font-weight="normal" text-decoration="normal" x="0" y="0" text-anchor="end" dominant-baseline="central">Head</text><g transform="rotate(57.29577951308232,0,0) translate(-394,-354) translate(457,354) rotate(-57.29577951308232,0,0)"><text fill="" stroke="none" font-family="helvetica" font-size="8pt" font-style="normal" font-weight="normal" text-decoration="normal" x="0" y="0" text-anchor="end" dominant-baseline="central">Tail</text><g transform="rotate(57.29577951308232,0,0) translate(-457,-354) translate(152,386) rotate(0,0,0)"><text fill="" stroke="none" font-family="helvetica" font-size="8pt" font-style="normal" font-weight="bold" text-decoration="normal" x="0" y="0" text-anchor="middle" dominant-baseline="hanging">HPAP002</text><g transform="rotate(0,0,0) translate(-152,-386) translate(394,386) rotate(0,0,0)"><text fill="" stroke="none" font-family="helvetica" font-size="8pt" font-style="normal" font-weight="bold" text-decoration="normal" x="0" y="0" text-anchor="middle" dominant-baseline="hanging">HPAP005</text><g transform="rotate(0,0,0) translate(-394,-386)"><path fill="none" stroke="" paint-order="fill stroke markers" d=" M 273 388 L 273 346"/></g></g></g></g></g></g></g></g></g></g></g><g><g fill="#444444"><path fill="none" stroke="black" paint-order="fill stroke markers" d=" M 31 343 L 31 5" stroke-linejoin="bevel" stroke-miterlimit="10"/><path fill="none" stroke="black" paint-order="fill stroke markers" d=" M 25 343 L 33 343" stroke-linejoin="bevel" stroke-miterlimit="10"/><path fill="none" stroke="black" paint-order="fill stroke markers" d=" M 25 279 L 33 279" stroke-linejoin="bevel" stroke-miterlimit="10"/><path fill="none" stroke="black" paint-order="fill stroke markers" d=" M 25 214 L 33 214" stroke-linejoin="bevel" stroke-miterlimit="10"/><path fill="none" stroke="black" paint-order="fill stroke markers" d=" M 25 150 L 33 150" stroke-linejoin="bevel" stroke-miterlimit="10"/><path fill="none" stroke="black" paint-order="fill stroke markers" d=" M 25 85 L 33 85" stroke-linejoin="bevel" stroke-miterlimit="10"/><path fill="none" stroke="black" paint-order="fill stroke markers" d=" M 25 21 L 33 21" stroke-linejoin="bevel" stroke-miterlimit="10"/><path fill="none" stroke="black" paint-order="fill stroke markers" d=" M 27 343 L 31 343" stroke-linejoin="bevel" stroke-miterlimit="10"/><path fill="none" stroke="black" paint-order="fill stroke markers" d=" M 27 330 L 31 330" stroke-linejoin="bevel" stroke-miterlimit="10"/><path fill="none" stroke="black" paint-order="fill stroke markers" d=" M 27 317 L 31 317" stroke-linejoin="bevel" stroke-miterlimit="10"/><path fill="none" stroke="black" paint-order="fill stroke markers" d=" M 27 304 L 31 304" stroke-linejoin="bevel" stroke-miterlimit="10"/><path fill="none" stroke="black" paint-order="fill stroke markers" d=" M 27 291 L 31 291" stroke-linejoin="bevel" stroke-miterlimit="10"/><path fill="none" stroke="black" paint-order="fill stroke markers" d=" M 27 279 L 31 279" stroke-linejoin="bevel" stroke-miterlimit="10"/><path fill="none" stroke="black" paint-order="fill stroke markers" d=" M 27 266 L 31 266" stroke-linejoin="bevel" stroke-miterlimit="10"/><path fill="none" stroke="black" paint-order="fill stroke markers" d=" M 27 253 L 31 253" stroke-linejoin="bevel" stroke-miterlimit="10"/><path fill="none" stroke="black" paint-order="fill stroke markers" d=" M 27 240 L 31 240" stroke-linejoin="bevel" stroke-miterlimit="10"/><path fill="none" stroke="black" paint-order="fill stroke markers" d=" M 27 227 L 31 227" stroke-linejoin="bevel" stroke-miterlimit="10"/><path fill="none" stroke="black" paint-order="fill stroke markers" d=" M 27 214 L 31 214" stroke-linejoin="bevel" stroke-miterlimit="10"/><path fill="none" stroke="black" paint-order="fill stroke markers" d=" M 27 201 L 31 201" stroke-linejoin="bevel" stroke-miterlimit="10"/><path fill="none" stroke="black" paint-order="fill stroke markers" d=" M 27 188 L 31 188" stroke-linejoin="bevel" stroke-miterlimit="10"/><path fill="none" stroke="black" paint-order="fill stroke markers" d=" M 27 176 L 31 176" stroke-linejoin="bevel" stroke-miterlimit="10"/><path fill="none" stroke="black" paint-order="fill stroke markers" d=" M 27 163 L 31 163" stroke-linejoin="bevel" stroke-miterlimit="10"/><path fill="none" stroke="black" paint-order="fill stroke markers" d=" M 27 150 L 31 150" stroke-linejoin="bevel" stroke-miterlimit="10"/><path fill="none" stroke="black" paint-order="fill stroke markers" d=" M 27 137 L 31 137" stroke-linejoin="bevel" stroke-miterlimit="10"/><path fill="none" stroke="black" paint-order="fill stroke markers" d=" M 27 124 L 31 124" stroke-linejoin="bevel" stroke-miterlimit="10"/><path fill="none" stroke="black" paint-order="fill stroke markers" d=" M 27 111 L 31 111" stroke-linejoin="bevel" stroke-miterlimit="10"/><path fill="none" stroke="black" paint-order="fill stroke markers" d=" M 27 98 L 31 98" stroke-linejoin="bevel" stroke-miterlimit="10"/><path fill="none" stroke="black" paint-order="fill stroke markers" d=" M 27 85 L 31 85" stroke-linejoin="bevel" stroke-miterlimit="10"/><path fill="none" stroke="black" paint-order="fill stroke markers" d=" M 27 73 L 31 73" stroke-linejoin="bevel" stroke-miterlimit="10"/><path fill="none" stroke="black" paint-order="fill stroke markers" d=" M 27 60 L 31 60" stroke-linejoin="bevel" stroke-miterlimit="10"/><path fill="none" stroke="black" paint-order="fill stroke markers" d=" M 27 47 L 31 47" stroke-linejoin="bevel" stroke-miterlimit="10"/><path fill="none" stroke="black" paint-order="fill stroke markers" d=" M 27 34 L 31 34" stroke-linejoin="bevel" stroke-miterlimit="10"/><path fill="none" stroke="black" paint-order="fill stroke markers" d=" M 27 21 L 31 21" stroke-linejoin="bevel" stroke-miterlimit="10"/><path fill="" stroke="black" paint-order="fill stroke markers" d=" M 27 8 L 31 8" stroke-linejoin="bevel" stroke-miterlimit="10"/><g transform="translate(20,343) rotate(0,0,0)"><text fill="" stroke="none" font-family="helvetica" font-size="8pt" font-style="normal" font-weight="normal" text-decoration="normal" x="0" y="0" text-anchor="end" dominant-baseline="central">0</text><g transform="rotate(0,0,0) translate(-20,-343) translate(20,279) rotate(0,0,0)"><text fill="" stroke="none" font-family="helvetica" font-size="8pt" font-style="normal" font-weight="normal" text-decoration="normal" x="0" y="0" text-anchor="end" dominant-baseline="central">20</text><g transform="rotate(0,0,0) translate(-20,-279) translate(20,214) rotate(0,0,0)"><text fill="" stroke="none" font-family="helvetica" font-size="8pt" font-style="normal" font-weight="normal" text-decoration="normal" x="0" y="0" text-anchor="end" dominant-baseline="central">40</text><g transform="rotate(0,0,0) translate(-20,-214) translate(20,150) rotate(0,0,0)"><text fill="" stroke="none" font-family="helvetica" font-size="8pt" font-style="normal" font-weight="normal" text-decoration="normal" x="0" y="0" text-anchor="end" dominant-baseline="central">60</text><g transform="rotate(0,0,0) translate(-20,-150) translate(20,85) rotate(0,0,0)"><text fill="" stroke="none" font-family="helvetica" font-size="8pt" font-style="normal" font-weight="normal" text-decoration="normal" x="0" y="0" text-anchor="end" dominant-baseline="central">80</text><g transform="rotate(0,0,0) translate(-20,-85) translate(20,21) rotate(0,0,0)"><text fill="" stroke="none" font-family="helvetica" font-size="8pt" font-style="normal" font-weight="normal" text-decoration="normal" x="0" y="0" text-anchor="end" dominant-baseline="central">100</text><g transform="rotate(0,0,0) translate(-20,-21)"/></g></g></g></g></g></g></g></g></g></g></svg>