<svg xmlns="http://www.w3.org/2000/svg" xmlns:xlink="http://www.w3.org/1999/xlink" viewBox="0 0 264.18 175.57"><defs><style>.cls-1{fill:none;}.cls-2{isolation:isolate;}.cls-3{clip-path:url(#clip-path);}.cls-4{fill:#fff;}.cls-5,.cls-7{fill:#40b0ca;}.cls-6{clip-path:url(#clip-path-2);}.cls-7{opacity:0.5;}.cls-8{clip-path:url(#clip-path-3);}.cls-9{fill:#e7e9ed;}.cls-10{fill:#ed818b;}.cls-11{fill:#f0a9b3;}</style><clipPath id="clip-path"><polygon class="cls-1" points="0 99.1 131.72 22.55 264.19 99.03 132.46 175.57 0 99.1"/></clipPath><clipPath id="clip-path-2"><polygon class="cls-1" points="16.82 78.93 130.88 12.65 247.37 79.91 133.31 146.19 16.82 78.93"/></clipPath><clipPath id="clip-path-3"><polygon class="cls-1" points="35.12 55.74 131.03 0 228.98 56.55 133.06 112.29 35.12 55.74"/></clipPath></defs><title>Logo</title><g id="Layer_2" data-name="Layer 2"><g id="Layer_1-2" data-name="Layer 1"><g id="SpatialTis-logo"><g id="Buttom"><g class="cls-2"><g class="cls-3"><path class="cls-4" d="M18.36,99l-6.08-3.51L6.24,99l6.08,3.51,6-3.51m8.09,4.67L19.3,99.57l-6,3.51,7.14,4.13,6-3.51m8.08,4.66-7.14-4.12-6,3.51,7.13,4.12,6-3.51M42.62,113l-7.14-4.12-6,3.51,7.14,4.12,6-3.51m8.08,4.67-7.13-4.12-6,3.51,7.14,4.12,6-3.51m8.09,4.67-7.13-4.12-6,3.51,7.13,4.12,6-3.51M66.88,127l-7.14-4.12-6,3.51,7.14,4.12,6-3.51M75,131.71l-7.14-4.12-6,3.51,7.14,4.12,6-3.51m8.09,4.67-7.15-4.13-6,3.51L77,139.89l6-3.51m8.08,4.67L84,136.92l-6,3.51,7.14,4.12,6-3.5m8.09,4.67-7.14-4.13-6,3.51,7.14,4.13,6-3.51m8.09,4.67-7.15-4.13-6,3.51,7.15,4.13,6-3.51m8.08,4.66-7.14-4.12-6,3.51,7.14,4.12,6-3.51m8.09,4.67-7.15-4.12-6,3.51,7.14,4.12,6-3.51m8.09,4.67-7.15-4.12-6,3.51,7.14,4.12,6-3.51m7,4.06-6.08-3.51-6,3.51,6.08,3.51,6-3.51M26.4,94.36l-6.08-3.51L13.22,95l6.08,3.51,7.1-4.12M34.49,99,27.34,94.9,20.24,99l7.15,4.12L34.49,99m8.08,4.66-7.14-4.12-7.1,4.13,7.14,4.12,7.1-4.13m8.09,4.67-7.15-4.12-7.09,4.12,7.14,4.13,7.1-4.13M58.74,113l-7.14-4.12L44.5,113l7.14,4.13,7.1-4.13m8.09,4.67-7.14-4.12-7.1,4.12,7.14,4.13,7.1-4.13m8.09,4.67-7.14-4.12-7.1,4.12,7.14,4.13,7.1-4.13M83,127l-7.14-4.12L68.77,127l7.13,4.12L83,127m8.09,4.67L84,127.58l-7.1,4.13L84,135.83l7.1-4.12m8.08,4.67L92,132.25l-7.1,4.13,7.14,4.12,7.09-4.12m8.09,4.67-7.13-4.13L93,141.05l7.14,4.12,7.09-4.12m8.09,4.67-7.14-4.13-7.1,4.13,7.15,4.12,7.09-4.12m8.09,4.66-7.14-4.12-7.1,4.13,7.14,4.12,7.1-4.13m8.09,4.67-7.15-4.12-7.1,4.12,7.15,4.13,7.1-4.13m8.09,4.67-7.15-4.12-7.1,4.12,7.15,4.13,7.1-4.13m7,4.06-6.08-3.51-7.1,4.12,6.08,3.51,7.1-4.12M34.43,89.69l-6.08-3.51L21.26,90.3l6.08,3.51,7.09-4.12m8.09,4.67-7.15-4.12-7.09,4.12,7.14,4.12,7.1-4.12M50.6,99l-7.14-4.12L36.37,99l7.14,4.12L50.6,99m8.09,4.67-7.15-4.13-7.09,4.12,7.15,4.13,7.09-4.12m8.08,4.66-7.14-4.12-7.09,4.12,7.14,4.12,7.09-4.12M74.86,113l-7.14-4.12L60.63,113l7.14,4.13L74.86,113M83,117.7l-7.14-4.12-7.1,4.12,7.15,4.13L83,117.7M91,122.37l-7.13-4.12-7.1,4.12,7.14,4.12L91,122.37M99.12,127,92,122.92,84.89,127,92,131.16,99.12,127m8.09,4.67-7.14-4.12L93,131.71l7.13,4.12,7.1-4.12m8.08,4.67-7.13-4.12-7.09,4.12,7.13,4.12,7.09-4.12m8.09,4.67-7.14-4.13-7.09,4.13,7.14,4.12,7.09-4.12m8.09,4.67-7.14-4.13-7.09,4.13,7.14,4.12,7.09-4.12m8.09,4.67-7.15-4.13-7.09,4.12,7.14,4.13,7.1-4.12m8.09,4.67-7.15-4.13-7.09,4.12,7.14,4.13,7.1-4.12m7,4.05-6.08-3.51-7.09,4.12,6.08,3.51,7.09-4.12M42.46,85l-6.07-3.51-7.1,4.12,6.08,3.51L42.46,85m8.09,4.67-7.14-4.13-7.09,4.13,7.14,4.12,7.09-4.12m8.09,4.67L51.5,90.23l-7.09,4.13,7.13,4.12,7.1-4.12M66.73,99,59.58,94.9,52.49,99l7.14,4.13L66.73,99m8.08,4.66-7.14-4.12-7.09,4.12,7.14,4.12,7.09-4.12m8.09,4.67-7.14-4.12-7.09,4.12,7.14,4.12,7.09-4.12M91,113l-7.15-4.12L76.75,113l7.15,4.13L91,113m8.08,4.67-7.14-4.12-7.09,4.12L92,121.82l7.09-4.12m8.09,4.67L100,118.25l-7.09,4.12,7.15,4.12,7.09-4.12m8.08,4.67-7.14-4.12L101,127l7.14,4.12,7.09-4.12m8.09,4.67-7.14-4.12-7.09,4.12,7.14,4.12,7.09-4.12m8.09,4.67-7.14-4.13-7.1,4.12,7.15,4.13,7.09-4.12m8.08,4.67-7.13-4.13-7.1,4.13,7.14,4.12,7.09-4.12m8.09,4.67-7.14-4.13-7.09,4.12,7.14,4.13,7.09-4.12m8.09,4.67-7.14-4.13-7.09,4.12,7.14,4.13,7.09-4.12m7,4.05-6.08-3.51-7.09,4.12,6.07,3.51,7.1-4.12M50.5,80.35l-6.08-3.51L37.32,81l6.08,3.51,7.1-4.12M58.59,85l-7.14-4.13L44.35,85l7.14,4.12L58.59,85m8.08,4.67-7.14-4.13-7.09,4.13,7.13,4.12,7.1-4.12m8.09,4.67-7.14-4.13-7.1,4.13,7.14,4.12,7.1-4.12M82.84,99,75.71,94.9,68.61,99l7.14,4.12L82.84,99m8.09,4.67L83.8,99.57l-7.1,4.13,7.14,4.12,7.09-4.13M99,108.36l-7.14-4.12-7.1,4.12,7.15,4.13L99,108.36m8.09,4.67L100,108.91,92.87,113l7.14,4.13,7.1-4.13m8.09,4.67-7.15-4.12L101,117.7l7.15,4.13,7.1-4.13m8.08,4.67-7.14-4.12-7.1,4.12,7.14,4.12,7.1-4.12m8.09,4.67-7.14-4.12-7.1,4.12,7.14,4.12,7.1-4.12m8.09,4.67-7.15-4.13-7.09,4.13,7.14,4.12,7.1-4.12m8.08,4.66-7.14-4.12-7.1,4.13,7.14,4.12,7.1-4.13m8.09,4.68-7.14-4.13-7.1,4.13,7.14,4.12,7.1-4.12m8.09,4.67-7.15-4.13-7.09,4.13,7.14,4.12,7.1-4.12m7,4.05-6.08-3.51-7.09,4.13,6.07,3.51,7.1-4.13M58.53,75.68l-6.08-3.51-7.09,4.12,6.08,3.51,7.09-4.12m8.09,4.67-7.14-4.12-7.1,4.12,7.15,4.12,7.09-4.12M74.7,85,67.56,80.9,60.47,85l7.14,4.12L74.7,85m8.09,4.67-7.14-4.13-7.09,4.13,7.14,4.12,7.09-4.12m8.09,4.67-7.14-4.13-7.09,4.13,7.13,4.12,7.1-4.12M99,99l-7.13-4.12L84.74,99l7.13,4.12L99,99m8.09,4.67-7.14-4.13-7.09,4.12,7.14,4.13,7.09-4.12m8.09,4.66L108,104.24l-7.09,4.12,7.14,4.12,7.09-4.12m8.09,4.67-7.15-4.12L109,113l7.14,4.13,7.1-4.13m8.08,4.67-7.14-4.12-7.09,4.12,7.14,4.12,7.09-4.12m8.09,4.67-7.14-4.12-7.09,4.12,7.14,4.12,7.09-4.12m8.09,4.67-7.15-4.12L133.25,127l7.15,4.12,7.09-4.12m8.08,4.67-7.14-4.12-7.09,4.12,7.14,4.12,7.09-4.12m8.09,4.67-7.14-4.13-7.1,4.12,7.15,4.13,7.09-4.12m8.09,4.67-7.14-4.13-7.1,4.13,7.15,4.12,7.09-4.12m7,4-6.08-3.51-7.09,4.13,6.08,3.5,7.09-4.12M66.57,71,60.49,67.5l-7.1,4.13,6.08,3.51L66.57,71m8.09,4.67-7.15-4.12-7.1,4.12,7.15,4.13,7.1-4.13m8.08,4.67L75.6,76.23l-7.1,4.12,7.14,4.12,7.1-4.12M90.83,85l-7.15-4.13L76.59,85l7.14,4.12L90.83,85m8.08,4.67-7.14-4.13-7.09,4.13,7.13,4.12,7.1-4.12M107,94.36l-7.14-4.13-7.09,4.13,7.13,4.12,7.1-4.12M115.09,99,108,94.9,100.85,99l7.14,4.12,7.1-4.12m8.08,4.66L116,99.57l-7.1,4.13,7.14,4.12,7.09-4.13m8.09,4.67-7.14-4.12-7.1,4.12,7.15,4.13,7.09-4.13m8.09,4.67-7.14-4.12-7.1,4.12,7.14,4.12,7.1-4.12m8.09,4.67-7.14-4.12-7.1,4.12,7.14,4.13,7.1-4.13m8.08,4.67-7.14-4.12-7.1,4.12,7.15,4.13,7.09-4.13m8.09,4.67-7.14-4.12-7.1,4.12,7.14,4.12,7.1-4.12m8.09,4.67-7.15-4.13-7.1,4.13,7.15,4.12,7.1-4.12m8.09,4.67-7.15-4.13-7.1,4.13,7.15,4.12,7.1-4.12m7,4.05-6.08-3.51-7.1,4.13,6.08,3.51,7.1-4.13M74.6,66.34l-6.08-3.5L61.43,67l6.08,3.51,7.09-4.13M82.69,71l-7.15-4.12L68.45,71l7.15,4.13L82.69,71m8.08,4.67-7.14-4.12-7.09,4.12,7.14,4.12,7.09-4.12m8.09,4.67-7.14-4.12-7.1,4.12,7.15,4.12,7.09-4.12M106.94,85,99.8,80.9,92.71,85l7.14,4.12L106.94,85M115,89.69l-7.14-4.12-7.09,4.12,7.14,4.12L115,89.69m8.09,4.67L116,90.23l-7.09,4.13L116,98.48l7.09-4.12M131.2,99l-7.13-4.12L117,99l7.14,4.12L131.2,99m8.09,4.67-7.14-4.13-7.09,4.12,7.14,4.13,7.09-4.12m8.09,4.66-7.14-4.12-7.09,4.12,7.14,4.12,7.09-4.12m8.09,4.67-7.14-4.12L141.24,113l7.13,4.12,7.1-4.12m8.09,4.67-7.15-4.12-7.09,4.12,7.14,4.13,7.1-4.13m8.08,4.67-7.14-4.12-7.09,4.12,7.14,4.12,7.09-4.12m8.09,4.67-7.15-4.12L165.49,127l7.15,4.12,7.09-4.12m8.09,4.67-7.15-4.12-7.09,4.12,7.15,4.12,7.09-4.12m7,4.06-6.08-3.51-7.09,4.12,6.08,3.51,7.09-4.12M82.63,61.67l-6.07-3.51-7.1,4.13,6.08,3.51,7.09-4.13m8.09,4.67-7.14-4.12-7.09,4.12,7.14,4.13,7.09-4.13M98.81,71l-7.14-4.12L84.58,71l7.14,4.12L98.81,71m8.09,4.67-7.15-4.12-7.09,4.12L99.8,79.8l7.1-4.12M115,80.35l-7.14-4.12-7.09,4.12,7.14,4.12L115,80.35M123.07,85l-7.14-4.12L108.84,85,116,89.14,123.07,85m8.09,4.67L124,85.56l-7.09,4.13,7.15,4.12,7.09-4.12m8.08,4.67-7.14-4.13L125,94.36l7.14,4.12,7.09-4.12M147.33,99l-7.14-4.13L133.09,99l7.15,4.13L147.33,99m8.08,4.66-7.13-4.12-7.1,4.12,7.14,4.12,7.09-4.12m8.09,4.67-7.14-4.12-7.09,4.12,7.14,4.12,7.09-4.12m8.09,4.67-7.14-4.12L157.36,113l7.14,4.12,7.09-4.12m8.09,4.67-7.14-4.12-7.09,4.12,7.13,4.12,7.1-4.12m8.08,4.67-7.14-4.12-7.09,4.12,7.14,4.12,7.09-4.12m8.09,4.67-7.14-4.12L181.62,127l7.14,4.12,7.09-4.12m7,4.06-6.08-3.51-7.09,4.12,6.08,3.51,7.09-4.12M90.67,57l-6.08-3.51L77.5,57.62l6.07,3.51L90.67,57m8.09,4.67-7.14-4.12-7.1,4.12,7.14,4.13,7.1-4.13m8.08,4.67-7.13-4.12-7.1,4.12,7.14,4.13,7.09-4.13M114.93,71l-7.14-4.12L100.69,71l7.15,4.13L114.93,71M123,75.68l-7.14-4.12-7.1,4.12,7.14,4.12,7.1-4.12m8.09,4.67L124,76.23l-7.1,4.12L124,84.47l7.1-4.12M139.19,85l-7.14-4.13L125,85l7.15,4.12L139.19,85m8.09,4.67-7.14-4.13L133,89.69l7.14,4.12,7.1-4.12m8.09,4.67-7.15-4.13-7.1,4.13,7.15,4.12,7.1-4.12M163.45,99l-7.14-4.12L149.21,99l7.14,4.12,7.1-4.13m8.09,4.67-7.14-4.12-7.1,4.13,7.14,4.12,7.1-4.13m8.09,4.67-7.15-4.12-7.09,4.12,7.14,4.13,7.1-4.13m8.08,4.67-7.14-4.12L173.48,113l7.13,4.12,7.1-4.12m8.09,4.67-7.14-4.12-7.1,4.12,7.14,4.13,7.1-4.13m8.09,4.67-7.14-4.12-7.1,4.12,7.14,4.13,7.1-4.13m7,4.06-6.07-3.51-7.1,4.12,6.08,3.51,7.09-4.12M98.7,52.34l-6.08-3.51L85.53,53l6.08,3.51,7.09-4.12M106.79,57l-7.14-4.13L92.56,57l7.14,4.13L106.79,57m8.08,4.66-7.13-4.12-7.1,4.12,7.14,4.13,7.09-4.13M123,66.34l-7.14-4.12-7.09,4.12,7.14,4.13L123,66.34M131.05,71l-7.14-4.12L116.82,71,124,75.13l7.1-4.12m8.09,4.67L132,71.56l-7.09,4.12L132,79.8l7.1-4.12m8.09,4.67-7.15-4.12L133,80.35l7.14,4.12,7.1-4.12M155.31,85l-7.14-4.12L141.08,85l7.14,4.12L155.31,85m8.09,4.67-7.15-4.13-7.09,4.13,7.15,4.12,7.09-4.12m8.08,4.67-7.14-4.13-7.09,4.13,7.14,4.12,7.09-4.12M179.57,99l-7.14-4.13L165.34,99l7.14,4.12L179.57,99m8.09,4.67-7.15-4.13-7.09,4.12,7.15,4.13,7.09-4.12m8.08,4.66-7.14-4.12-7.09,4.12,7.14,4.12,7.09-4.12m8.09,4.67-7.14-4.12L189.6,113l7.14,4.12,7.09-4.12m8.09,4.67-7.14-4.12-7.1,4.12,7.15,4.13,7.09-4.13m7,4.06-6.07-3.51-7.1,4.12,6.08,3.51,7.09-4.12M106.74,47.67l-6.08-3.51-7.09,4.12,6.08,3.51,7.09-4.12m8.09,4.67-7.15-4.13-7.09,4.12,7.15,4.13,7.09-4.12M122.91,57l-7.14-4.12L108.68,57l7.14,4.12L122.91,57M131,61.67l-7.14-4.12-7.1,4.12,7.15,4.13L131,61.67m8.08,4.67L132,62.22l-7.1,4.12L132,70.46l7.09-4.12M147.17,71,140,66.89,132.94,71l7.14,4.12L147.17,71m8.09,4.67-7.14-4.12L141,75.68l7.14,4.12,7.09-4.12m8.09,4.67-7.14-4.12-7.09,4.12,7.13,4.12,7.1-4.12M171.43,85l-7.14-4.13L157.2,85l7.14,4.13L171.43,85m8.09,4.67-7.14-4.13-7.09,4.13,7.14,4.12,7.09-4.12m8.09,4.67-7.14-4.13-7.09,4.13,7.14,4.12,7.09-4.12M195.7,99l-7.15-4.13L181.46,99l7.14,4.13L195.7,99m8.08,4.66-7.14-4.12-7.09,4.12,7.14,4.12,7.09-4.12m8.09,4.67-7.15-4.12-7.09,4.12,7.15,4.12,7.09-4.12M220,113l-7.15-4.12L205.72,113l7.15,4.12L220,113m7,4.06-6.08-3.51-7.09,4.12,6.08,3.51,7.09-4.12M114.78,43l-6.08-3.51-7.1,4.12,6.08,3.51,7.1-4.12m8.08,4.67-7.14-4.13-7.1,4.13,7.15,4.12,7.09-4.12M131,52.33l-7.14-4.12-7.1,4.13,7.14,4.12,7.1-4.13M139,57l-7.15-4.12L124.79,57l7.15,4.13L139,57m8.08,4.67L140,57.55l-7.1,4.12L140,65.79l7.1-4.12m8.09,4.67-7.14-4.12L141,66.34l7.14,4.13,7.1-4.13M163.3,71l-7.15-4.12L149.06,71l7.14,4.13L163.3,71m8.08,4.67-7.14-4.12-7.09,4.12,7.13,4.12,7.1-4.12m8.09,4.67-7.14-4.13-7.1,4.13,7.14,4.12,7.1-4.12M187.55,85l-7.13-4.12L173.32,85l7.14,4.12L187.55,85m8.09,4.68-7.13-4.13-7.1,4.13,7.14,4.12,7.09-4.12m8.09,4.67-7.14-4.13-7.1,4.13,7.14,4.12,7.1-4.12M211.82,99l-7.14-4.12L197.58,99l7.14,4.12,7.1-4.13m8.09,4.67-7.15-4.12-7.1,4.12,7.15,4.13,7.1-4.13m8.08,4.67-7.14-4.12-7.1,4.12,7.15,4.13,7.09-4.13m7,4.06-6.08-3.51-7.1,4.12,6.08,3.51,7.1-4.12M122.81,38.33l-6.08-3.51-7.09,4.12,6.07,3.51,7.1-4.12M130.9,43l-7.15-4.13L116.66,43l7.14,4.12L130.9,43M139,47.67l-7.14-4.13-7.09,4.13,7.14,4.12L139,47.67m8.09,4.67-7.15-4.13-7.09,4.12L140,56.46l7.09-4.12M155.15,57,148,52.88,140.92,57l7.14,4.12L155.15,57m8.09,4.67-7.14-4.12L149,61.67l7.14,4.12,7.09-4.12m8.09,4.67-7.15-4.12-7.09,4.12,7.15,4.13,7.09-4.13M179.41,71l-7.14-4.12L165.18,71l7.14,4.12L179.41,71m8.09,4.67-7.14-4.12-7.09,4.12,7.14,4.12,7.09-4.12m8.08,4.67-7.13-4.12-7.1,4.12,7.14,4.12,7.09-4.12M203.67,85l-7.13-4.12L189.44,85l7.14,4.12L203.67,85m8.09,4.67-7.14-4.13-7.09,4.13,7.14,4.12,7.09-4.12m8.09,4.67-7.14-4.13-7.09,4.13,7.13,4.12,7.1-4.12M227.94,99l-7.15-4.13L213.7,99l7.14,4.13,7.1-4.12M236,103.7l-7.15-4.13-7.09,4.12,7.14,4.13,7.1-4.12m7,4L237,104.24l-7.09,4.12,6.08,3.51,7.09-4.12M130.84,33.66l-6.08-3.51-7.09,4.12,6.07,3.51,7.1-4.12m8.09,4.67-7.14-4.13-7.1,4.13,7.14,4.12,7.1-4.12M147,43l-7.14-4.13L132.78,43l7.14,4.12L147,43m8.08,4.67L148,43.54l-7.1,4.13L148,51.79l7.09-4.12m8.09,4.66-7.14-4.12L149,52.34l7.14,4.12,7.1-4.13M171.28,57l-7.14-4.12L157,57l7.14,4.12,7.1-4.13m8.09,4.67-7.15-4.12-7.1,4.12,7.15,4.13,7.1-4.13m8.08,4.67-7.14-4.12-7.1,4.12,7.14,4.13,7.1-4.13M195.54,71l-7.15-4.12L181.3,71l7.14,4.13,7.1-4.13m8.08,4.67-7.14-4.12-7.09,4.12,7.13,4.12,7.1-4.12m8.09,4.67-7.14-4.12-7.1,4.12,7.14,4.12,7.1-4.12M219.8,85l-7.14-4.13L205.56,85l7.14,4.12L219.8,85m8.08,4.66-7.13-4.12-7.1,4.13,7.14,4.12,7.09-4.13M236,94.36l-7.14-4.13-7.1,4.13,7.14,4.12,7.1-4.12M244.06,99l-7.14-4.13L229.82,99l7.14,4.12,7.1-4.12m7,4L245,99.57l-7.1,4.13,6.08,3.51,7.1-4.13M137.82,29.6l-6.08-3.51-6,3.51,6.08,3.51,6-3.51m8.09,4.67-7.14-4.12-6,3.51,7.14,4.12,6-3.51M154,38.94l-7.14-4.12-6,3.51L148,42.45l6-3.51m8.09,4.67-7.14-4.12-6,3.51L156,47.12l6-3.51m8.08,4.67L163,44.16l-6,3.51,7.14,4.12,6-3.51M178.25,53l-7.13-4.12-6,3.51,7.14,4.12,6-3.51m8.09,4.67-7.14-4.13-6,3.51,7.14,4.13,6-3.51m8.09,4.67-7.14-4.13-6,3.51,7.14,4.12,6-3.5M202.52,67l-7.15-4.13-6,3.51,7.15,4.13,6-3.51m8.08,4.66-7.14-4.12-6,3.51,7.14,4.12,6-3.51m8.09,4.67-7.14-4.12-6,3.51,7.14,4.12,6-3.51M226.78,81l-7.15-4.12-6,3.51,7.15,4.12,6-3.51m8.08,4.67-7.14-4.12-6,3.51,7.14,4.12,6-3.51M243,90.3l-7.14-4.12-6,3.5,7.14,4.13,6-3.51M251,95l-7.15-4.12-6,3.51L245,98.48,251,95m7,4.06L252,95.52,246,99l6.07,3.5,6-3.5"/><polyline class="cls-5" points="264.19 99.03 131.72 22.55 128.67 24.32 131.6 22.62 134.67 24.39 131.74 26.09 137.82 29.6 139.69 28.52 140.64 29.06 138.76 30.15 145.91 34.27 147.78 33.19 148.73 33.73 146.85 34.82 153.99 38.94 155.86 37.85 156.81 38.4 154.94 39.49 162.08 43.61 163.95 42.52 164.9 43.07 163.03 44.16 170.16 48.28 172.04 47.19 172.99 47.74 171.12 48.83 178.25 52.95 180.13 51.86 181.07 52.41 179.2 53.49 186.34 57.62 188.22 56.53 189.16 57.08 187.29 58.16 194.43 62.28 196.3 61.2 197.24 61.74 195.37 62.83 202.52 66.96 204.39 65.87 205.33 66.41 203.46 67.5 210.6 71.62 212.47 70.53 213.42 71.08 211.55 72.17 218.69 76.29 220.56 75.2 221.5 75.75 219.63 76.84 226.78 80.96 228.65 79.88 229.59 80.42 227.72 81.51 234.86 85.63 236.73 84.54 237.68 85.09 235.81 86.18 242.95 90.3 244.82 89.21 245.77 89.76 243.9 90.85 251.04 94.97 252.91 93.88 253.86 94.43 251.98 95.52 258.06 99.03 260.99 97.32 264.06 99.1 264.19 99.03"/><path class="cls-5" d="M131.78,33.11,125.7,29.6l-.94.55,6.08,3.51.94-.55m8.09,4.67-7.14-4.12-.94.54,7.14,4.13.94-.55M148,42.45l-7.13-4.12-.94.54L147,43l.93-.55M156,47.12,148.9,43l-.94.54,7.14,4.13.94-.55m8.09,4.67L157,47.67l-.94.54,7.14,4.12.94-.54m8.09,4.67-7.14-4.12-.94.54L171.28,57l.94-.54m8.08,4.67L173.16,57l-.94.55,7.15,4.12.93-.54m8.09,4.66-7.14-4.12-.94.55,7.14,4.12.94-.55m8.09,4.68-7.15-4.13-.94.55L195.54,71l.94-.54m8.08,4.66L197.42,71l-.94.55,7.14,4.12.94-.55m8.09,4.67-7.14-4.12-.94.55,7.14,4.12.94-.55m8.09,4.67-7.15-4.12-.93.54L219.8,85l.94-.55m8.08,4.67L221.68,85l-.93.54,7.13,4.12.94-.54m8.09,4.67-7.14-4.13-.94.55L236,94.36l.94-.55M245,98.48l-7.14-4.12-.94.54L244.06,99l.94-.55m7,4L246,99l-.94.54,6.08,3.51.93-.55"/><path class="cls-5" d="M123.74,37.78l-6.07-3.51-.94.55,6.08,3.51.93-.55m8.09,4.67-7.14-4.12-.94.54L130.9,43l.93-.55m8.09,4.67L132.78,43l-.94.54L139,47.67l.94-.55M148,51.79l-7.15-4.12-.94.54,7.15,4.13.94-.55m8.08,4.67L149,52.34l-.94.54L155.15,57l.94-.54m8.09,4.67L157,57l-.94.54,7.14,4.12.94-.54m8.09,4.67-7.15-4.13-.94.55,7.15,4.12.94-.54m8.08,4.67-7.14-4.13-.94.55L179.41,71l.94-.54m8.09,4.67L181.3,71l-.94.55,7.14,4.12.94-.54m8.08,4.66-7.13-4.12-.94.55,7.13,4.12.94-.55m8.09,4.67-7.14-4.12-.93.55L203.67,85l.94-.55m8.09,4.67L205.56,85l-.94.54,7.14,4.13.94-.55m8.09,4.67-7.14-4.12-.94.54,7.14,4.13.94-.55m8.08,4.67-7.14-4.12-.94.54L227.94,99l.93-.55m8.09,4.67L229.82,99l-.94.54L236,103.7l.93-.55m7,4.06-6.08-3.51-.94.54,6.08,3.51.94-.54"/><path class="cls-5" d="M115.71,42.45l-6.07-3.51-.94.55L114.78,43l.93-.55m8.09,4.67L116.66,43l-.94.54,7.14,4.13.94-.55m8.09,4.67-7.14-4.12-.94.54L131,52.33l.94-.54M140,56.46l-7.15-4.13-.94.55L139,57l.94-.54m8.08,4.66L140.92,57l-.94.55,7.14,4.12.94-.55m8.09,4.67L149,61.67l-.94.55,7.14,4.12.94-.55m8.09,4.68-7.15-4.13-.94.55L163.3,71l.94-.54m8.08,4.66L165.18,71l-.94.55,7.14,4.12.94-.55m8.09,4.67-7.14-4.12-.94.54,7.14,4.13.94-.55m8.08,4.67-7.14-4.12-.93.54L187.55,85l.94-.54m8.09,4.67L189.44,85l-.93.54,7.13,4.13.94-.55m8.09,4.67-7.14-4.12-.94.54,7.14,4.13.94-.55m8.08,4.67-7.13-4.12-.94.54L211.82,99l.93-.54m8.09,4.67L213.7,99l-.94.55,7.15,4.12.93-.54m8.09,4.67-7.14-4.13-.94.55,7.14,4.12.94-.54m7,4.05-6.08-3.51-.94.55,6.08,3.51.94-.55"/><path class="cls-5" d="M107.68,47.12l-6.08-3.51-.94.55,6.08,3.51.94-.55m8.09,4.67-7.15-4.12-.94.54,7.15,4.13.94-.55m8.08,4.67-7.14-4.12-.94.54L122.91,57l.94-.54m8.09,4.67L124.79,57l-.93.55L131,61.67l.94-.54M140,65.79l-7.14-4.12-.93.55,7.13,4.12.94-.55m8.09,4.68L141,66.34l-.94.55L147.17,71l.94-.54m8.09,4.67L149.06,71l-.94.55,7.14,4.12.94-.54m8.08,4.66-7.13-4.12-.94.55,7.14,4.12.93-.55m8.09,4.67-7.14-4.12-.94.54L171.43,85l.94-.55m8.09,4.67L173.32,85l-.94.54,7.14,4.13.94-.55m8.09,4.67-7.14-4.12-.94.54,7.14,4.13.94-.55m8.08,4.67-7.14-4.12-.94.54L195.7,99l.93-.55m8.09,4.67L197.58,99l-.94.54,7.14,4.12.94-.54m8.09,4.67-7.15-4.13-.94.55,7.15,4.12.94-.54m8.09,4.67-7.15-4.13-.94.55L220,113l.94-.54m7,4.05L221.84,113l-.94.55,6.08,3.51.94-.55"/><path class="cls-5" d="M99.65,51.79l-6.08-3.51-.95.55,6.08,3.51,1-.55m8.09,4.67-7.15-4.13-.94.55L106.79,57l.95-.55m8.08,4.66L108.68,57l-.94.55,7.13,4.12.95-.55m8.09,4.68-7.15-4.13-.94.55L123,66.34l1-.54M132,70.46l-7.14-4.12-.94.55L131.05,71l.94-.55m8.09,4.67L132.94,71l-.94.55,7.14,4.12.94-.55m8.09,4.67L141,75.68l-.95.55,7.15,4.12.94-.55m8.08,4.67-7.13-4.12-1,.55L155.31,85l.94-.55m8.09,4.67L157.2,85l-.95.55,7.15,4.13.94-.55m8.09,4.67-7.14-4.12-.95.54,7.14,4.13,1-.55m8.09,4.67-7.14-4.12-.95.54L179.57,99l1-.55m8.08,4.67L181.46,99l-1,.55,7.15,4.13.94-.55m8.09,4.66-7.14-4.12-1,.55,7.14,4.12.95-.55m8.09,4.67-7.15-4.12-.94.55,7.14,4.12.95-.55m8.09,4.67L205.72,113l-.94.55,7.14,4.12,1-.55m7,4.06-6.08-3.51-.94.55,6.07,3.51.95-.55"/><path class="cls-5" d="M91.61,56.46,85.53,53l-.94.54L90.67,57l.94-.54m8.09,4.67L92.56,57l-.94.55,7.14,4.12.94-.54m8.08,4.67-7.14-4.13-.93.55,7.13,4.12.94-.54m8.09,4.67-7.14-4.13-.94.55L114.93,71l.94-.54M124,75.13,116.82,71l-.94.55L123,75.68l.93-.55M132,79.8l-7.13-4.12-.94.55,7.14,4.12.93-.55m8.09,4.67L133,80.35l-.94.54L139.19,85l.94-.55m8.09,4.67L141.08,85l-.94.54,7.14,4.13.94-.55m8.09,4.67-7.15-4.12-.94.54,7.15,4.13.94-.55m8.08,4.67-7.14-4.12-.94.54L163.45,99l.94-.54m8.09,4.67L165.34,99l-.94.54,7.14,4.12.94-.54m8.09,4.67-7.15-4.13-.94.55,7.15,4.12.94-.54m8.08,4.66-7.14-4.12-.94.55,7.14,4.12.94-.55m8.09,4.67L189.6,113l-.94.55,7.14,4.12.94-.55m8.09,4.68-7.15-4.13-.93.55,7.14,4.12.94-.54m7,4-6.08-3.51-.93.55,6.07,3.51.94-.55"/><path class="cls-5" d="M83.57,61.13,77.5,57.62l-.94.54,6.07,3.51.94-.54m8.09,4.67-7.14-4.13-.94.55,7.14,4.12.94-.54m8.09,4.67-7.14-4.13-.94.55L98.81,71l.94-.54m8.09,4.67L100.69,71l-.94.55,7.15,4.12.94-.54m8.08,4.66-7.14-4.12-.94.55L115,80.35l.94-.55M124,84.47l-7.14-4.12-.94.55L123.07,85l.94-.55m8.09,4.67L125,85l-.94.54,7.15,4.13.94-.55m8.08,4.67L133,89.69l-.94.54,7.14,4.13.94-.55m8.09,4.67-7.15-4.12-.93.54L147.33,99l.94-.55m8.08,4.67L149.21,99l-.93.54,7.13,4.12.94-.54m8.09,4.67-7.14-4.12-.94.54,7.14,4.12.94-.54m8.09,4.67-7.14-4.13-.94.55,7.14,4.12.94-.54m8.08,4.66L173.48,113l-.94.55,7.14,4.12.93-.55m8.09,4.68-7.14-4.13-.94.55,7.14,4.12.94-.54m8.09,4.67-7.14-4.13-.94.55,7.14,4.12.94-.54m7,4.05L197.74,127l-.94.55,6.08,3.51.94-.55"/><path class="cls-5" d="M75.54,65.8l-6.08-3.51-.94.55,6.08,3.5.94-.54m8.09,4.67-7.14-4.13-.95.55L82.69,71l.94-.54m8.09,4.66L84.58,71l-1,.55,7.14,4.12,1-.55M99.8,79.8l-7.14-4.12-.94.55,7.14,4.12.94-.55m8.09,4.67-7.14-4.12-1,.55L106.94,85l1-.55M116,89.14,108.84,85l-1,.55L115,89.69l1-.55m8.09,4.67-7.15-4.12-.94.54,7.14,4.13.95-.55m8.08,4.67L125,94.36l-.94.55L131.2,99l1-.55m8.09,4.67L133.09,99l-.94.55,7.14,4.13,1-.55m8.08,4.66-7.14-4.12-.94.55,7.14,4.12.94-.55m8.09,4.67-7.14-4.12-.94.55,7.14,4.12.94-.55m8.09,4.67L157.36,113l-1,.55,7.15,4.12.94-.55m8.08,4.67-7.13-4.12-.95.55,7.14,4.12.94-.55m8.09,4.67-7.14-4.12-.95.55,7.15,4.12.94-.55m8.09,4.67L181.62,127l-1,.55,7.15,4.12.94-.55m7,4.06-6.08-3.51-1,.55,6.08,3.51.95-.55"/><path class="cls-5" d="M67.51,70.47,61.43,67l-.94.54L66.57,71l.94-.54m8.09,4.67L68.45,71l-.94.55,7.15,4.12.94-.54m8.08,4.66-7.14-4.12-.94.55,7.14,4.12.94-.55m8.09,4.67-7.15-4.12-.94.54L90.83,85l.94-.55m8.08,4.67L92.71,85l-.94.54,7.14,4.13.94-.55m8.09,4.67-7.14-4.12-.94.54L107,94.36l.94-.55M116,98.48l-7.14-4.12-.94.54L115.09,99l.94-.55m8.08,4.67L117,99l-.93.54,7.13,4.12.94-.54m8.09,4.67-7.14-4.13-.94.55,7.14,4.12.94-.54m8.09,4.66-7.14-4.12-.94.55,7.14,4.12.94-.55m8.08,4.67L141.24,113l-.94.55,7.14,4.12.93-.55m8.09,4.68-7.14-4.13-.94.55,7.14,4.12.94-.54m8.09,4.66-7.14-4.12-.94.55,7.14,4.12.94-.55m8.09,4.67L165.49,127l-.94.54,7.15,4.13.94-.55m8.09,4.67-7.15-4.12-.94.54,7.15,4.13.94-.55m7,4.06-6.08-3.51-.94.54,6.08,3.51.94-.54"/><path class="cls-5" d="M59.47,75.14l-6.08-3.51-.94.54,6.08,3.51.94-.54m8.09,4.67-7.15-4.13-.93.55,7.14,4.12.94-.54m8.08,4.66L68.5,80.35l-.94.55L74.7,85l.94-.55m8.09,4.67L76.59,85l-.94.54,7.14,4.13.94-.55m8.08,4.67-7.13-4.12-.94.54,7.14,4.13.93-.55m8.09,4.67-7.13-4.12-.94.55L99,99l.94-.55m8.09,4.67L100.85,99l-.94.54,7.14,4.13.94-.55m8.09,4.67-7.14-4.12-.94.54,7.14,4.12.94-.54m8.09,4.67L117,108.36l-.94.55,7.15,4.12.94-.54m8.08,4.66L125.11,113l-.94.55,7.14,4.12.94-.55m8.09,4.68-7.14-4.13-.94.55,7.14,4.12.94-.54m8.09,4.67-7.15-4.13-.94.55,7.15,4.12.94-.54m8.08,4.66L149.37,127l-.94.55,7.14,4.12.94-.55m8.09,4.67-7.15-4.12-.93.54,7.14,4.13.94-.55m8.09,4.67-7.15-4.12-.93.54,7.14,4.13.94-.55m7,4.06-6.08-3.51-.94.54,6.08,3.51.94-.54"/><path class="cls-5" d="M51.44,79.8l-6.08-3.51-.94.55,6.08,3.51.94-.55m8.09,4.67-7.15-4.12-.93.54L58.59,85l.94-.55m8.08,4.67L60.47,85l-.94.54,7.14,4.13.94-.55m8.09,4.67-7.14-4.12-.94.54,7.14,4.13.94-.55m8.08,4.67-7.13-4.12-.94.54L82.84,99l.94-.54m8.09,4.67L84.74,99l-.94.54,7.13,4.12.94-.54m8.09,4.67-7.14-4.13-.94.55L99,108.36l.94-.54m8.09,4.66-7.14-4.12-.94.55,7.14,4.12.94-.55m8.08,4.68L109,113l-.94.55,7.15,4.12.93-.54m8.09,4.66-7.14-4.12-.94.55,7.14,4.12.94-.55m8.09,4.67-7.14-4.12-.94.55,7.14,4.12.94-.55m8.09,4.67L133.25,127l-.94.54,7.15,4.13.94-.55m8.08,4.67-7.14-4.12-.94.54,7.14,4.12.94-.54m8.09,4.67-7.15-4.13-.93.55,7.14,4.13.94-.55m8.09,4.67-7.15-4.12-.94.54,7.15,4.13.94-.55m7,4.05-6.08-3.5-.94.54,6.08,3.51.94-.55"/><path class="cls-5" d="M43.4,84.47,37.32,81l-.93.55L42.46,85l.94-.55m8.09,4.67L44.35,85l-.94.54,7.14,4.13.94-.55m8.08,4.67-7.13-4.12-.94.54,7.14,4.13.93-.55m8.09,4.67-7.14-4.12-.94.54L66.73,99l.93-.55m8.09,4.67L68.61,99l-.94.54,7.14,4.12.94-.54m8.09,4.67L76.7,103.7l-.94.54,7.14,4.12.94-.54m8.09,4.67-7.15-4.13-.94.55L91,113l.94-.54m8.08,4.67L92.87,113l-.94.55,7.14,4.12.94-.54m8.09,4.67L101,117.7l-.94.55,7.15,4.12.94-.54m8.08,4.66L109,122.37l-.94.55,7.14,4.12.94-.55m8.09,4.67L117.13,127l-.94.55,7.14,4.12.94-.55m8.09,4.67-7.14-4.12-.94.54,7.14,4.13.94-.55m8.08,4.67-7.14-4.12-.93.54,7.13,4.13.94-.55m8.09,4.67-7.14-4.12-.94.54,7.14,4.13.94-.55m8.09,4.67-7.14-4.12-.94.54,7.14,4.13.94-.55m7,4.06-6.07-3.51-.94.54,6.08,3.51.93-.54"/><path class="cls-5" d="M35.37,89.14l-6.08-3.51-.94.55,6.08,3.51.94-.55m8.09,4.67-7.14-4.12-1,.55,7.15,4.12.94-.55m8.08,4.67-7.13-4.12-.95.55L50.6,99l.94-.55m8.09,4.67L52.49,99l-1,.55,7.15,4.13.94-.55m8.09,4.66-7.14-4.12-.95.55,7.14,4.12,1-.55m8.09,4.67-7.14-4.12-1,.55L74.86,113l1-.55m8.09,4.68L76.75,113l-.94.55L83,117.7l1-.54M92,121.82l-7.14-4.12-.94.55L91,122.37l1-.55m8.09,4.67-7.15-4.12-.94.55L99.12,127l.95-.55m8.08,4.67L101,127l-.94.55,7.14,4.12.94-.55m8.09,4.67-7.14-4.12-.94.55,7.13,4.12.95-.55m8.09,4.67-7.15-4.13-.94.55,7.14,4.13,1-.55m8.08,4.67-7.14-4.12-.94.54,7.14,4.13.94-.55m8.09,4.67-7.14-4.13-1,.55,7.15,4.13.94-.55m8.09,4.67-7.14-4.13-.95.55,7.15,4.13.94-.55m7,4.05-6.07-3.51-.95.55,6.08,3.51.94-.55"/><path class="cls-5" d="M27.34,93.81,21.26,90.3l-.94.55,6.08,3.51.94-.55m8.08,4.67-7.14-4.12-.94.54L34.49,99l.93-.55m8.09,4.67L36.37,99l-.94.54,7.14,4.12.94-.54m8.09,4.67-7.15-4.13-.94.55,7.15,4.12.94-.54m8.08,4.66-7.14-4.12-.94.55L58.74,113l.94-.55m8.09,4.68L60.63,113l-.94.55,7.14,4.12.94-.54m8.09,4.67-7.15-4.13-.93.55,7.14,4.12.94-.54m8.08,4.66-7.14-4.12-.94.55L83,127l.94-.55M92,131.16,84.89,127l-.94.54,7.14,4.13.94-.55m8.08,4.67L93,131.71l-.94.54,7.13,4.13.94-.55m8.09,4.67-7.13-4.12-.94.54,7.13,4.13.94-.55m8.09,4.67-7.14-4.12-.94.54,7.14,4.13.94-.55m8.09,4.67-7.14-4.12-.94.54,7.14,4.12.94-.54m8.08,4.67-7.14-4.13-.94.55,7.15,4.12.93-.54m8.09,4.67-7.14-4.13-.94.55,7.15,4.12.93-.54m7,4-6.08-3.51-.94.55,6.08,3.51.94-.55"/><path class="cls-5" d="M19.3,98.48,13.22,95l-.94.55L18.36,99l.94-.55m8.09,4.67L20.24,99l-.94.54,7.15,4.13.94-.55m8.08,4.67-7.14-4.12-.94.54,7.14,4.12.94-.54m8.09,4.67-7.14-4.13-.94.55L42.62,113l.94-.54m8.08,4.67L44.5,113l-.93.55,7.13,4.12.94-.54m8.09,4.67-7.14-4.13-.93.55,7.13,4.12.94-.54m8.09,4.67-7.14-4.13-.94.55L66.88,127l.94-.54m8.08,4.66L68.77,127l-.94.55L75,131.71l.93-.55M84,135.83l-7.14-4.12-.94.54,7.15,4.13.93-.55m8.09,4.67-7.14-4.12-.94.54,7.14,4.13.94-.55m8.09,4.67L93,141.05l-.94.54,7.14,4.13.94-.55m8.09,4.67-7.15-4.12-.94.54,7.15,4.13.94-.55m8.08,4.67-7.14-4.12-.94.54,7.14,4.12.94-.54m8.09,4.67-7.15-4.13-.94.55,7.15,4.12.94-.54m8.09,4.67-7.15-4.13-.94.55,7.15,4.12.94-.54m7,4.05-6.08-3.51-.94.55,6.08,3.51.94-.55"/><polyline class="cls-5" points="132.56 171.96 126.48 168.45 124.37 169.68 123.42 169.13 125.54 167.9 118.39 163.78 116.28 165.01 115.33 164.46 117.45 163.23 110.31 159.11 108.19 160.34 107.24 159.79 109.36 158.56 102.22 154.44 100.11 155.67 99.16 155.13 101.28 153.9 94.13 149.77 92.02 151 91.07 150.46 93.19 149.22 86.05 145.1 83.93 146.34 82.98 145.79 85.1 144.56 77.96 140.43 75.84 141.66 74.9 141.12 77.02 139.89 69.87 135.76 67.75 136.99 66.81 136.45 68.93 135.22 61.79 131.1 59.67 132.33 58.73 131.78 60.84 130.55 53.7 126.43 51.58 127.66 50.64 127.11 52.76 125.88 45.62 121.76 43.5 122.99 42.55 122.44 44.66 121.21 37.53 117.09 35.41 118.32 34.46 117.78 36.58 116.54 29.44 112.42 27.32 113.65 26.38 113.1 28.49 111.87 21.36 107.75 19.24 108.98 18.29 108.44 20.41 107.21 13.27 103.08 11.15 104.31 10.2 103.77 12.32 102.54 6.24 99.03 3.19 100.8 129.51 173.73 132.56 171.96"/><polyline class="cls-5" points="134.67 24.39 131.6 22.62 128.67 24.32 0 99.1 3.07 100.87 3.19 100.8 6.24 99.03 12.28 95.52 13.22 94.97 20.32 90.85 21.26 90.3 28.35 86.18 29.29 85.63 36.38 81.51 37.32 80.96 44.42 76.84 45.36 76.29 52.45 72.17 53.39 71.63 60.49 67.5 61.43 66.96 68.52 62.84 69.47 62.29 76.56 58.16 77.5 57.62 84.59 53.49 85.53 52.95 92.62 48.83 93.57 48.28 100.66 44.16 101.6 43.61 108.7 39.49 109.64 38.94 116.73 34.82 117.67 34.27 124.77 30.15 125.7 29.6 131.74 26.09 134.67 24.39"/><polyline class="cls-5" points="140.64 29.06 139.69 28.52 137.82 29.6 131.78 33.11 130.84 33.66 123.75 37.78 122.81 38.33 115.71 42.45 114.78 43 107.68 47.12 106.74 47.67 99.65 51.79 98.7 52.34 91.61 56.46 90.67 57 83.57 61.13 82.64 61.67 75.54 65.8 74.6 66.34 67.51 70.47 66.57 71.01 59.47 75.14 58.53 75.68 51.44 79.8 50.5 80.35 43.4 84.47 42.46 85.02 35.37 89.14 34.43 89.69 27.34 93.81 26.4 94.36 19.3 98.48 18.36 99.03 12.32 102.54 10.2 103.77 11.15 104.31 13.27 103.08 19.3 99.57 20.24 99.03 27.34 94.9 28.28 94.36 35.37 90.23 36.32 89.69 43.41 85.56 44.35 85.02 51.45 80.89 52.38 80.35 59.48 76.23 60.41 75.68 67.51 71.56 68.45 71.01 75.54 66.89 76.49 66.34 83.58 62.22 84.52 61.67 91.62 57.55 92.56 57 99.65 52.88 100.59 52.33 107.68 48.21 108.62 47.67 115.72 43.54 116.66 43 123.75 38.88 124.69 38.33 131.79 34.2 132.73 33.66 138.76 30.15 140.64 29.06"/><polyline class="cls-5" points="148.73 33.73 147.78 33.19 145.91 34.27 139.87 37.78 138.93 38.33 131.83 42.45 130.9 43 123.8 47.12 122.86 47.67 115.77 51.79 114.83 52.34 107.74 56.46 106.79 57.01 99.7 61.13 98.76 61.67 91.66 65.8 90.72 66.34 83.63 70.47 82.69 71.02 75.6 75.14 74.66 75.68 67.56 79.81 66.62 80.35 59.53 84.47 58.59 85.02 51.49 89.14 50.55 89.69 43.46 93.81 42.52 94.36 35.42 98.48 34.49 99.03 27.39 103.15 26.45 103.7 20.41 107.21 18.29 108.44 19.24 108.98 21.36 107.75 27.39 104.24 28.33 103.7 35.43 99.57 36.37 99.03 43.46 94.91 44.41 94.36 51.5 90.23 52.44 89.69 59.53 85.56 60.47 85.02 67.56 80.9 68.5 80.35 75.6 76.23 76.54 75.68 83.63 71.56 84.58 71.01 91.67 66.89 92.61 66.34 99.71 62.22 100.64 61.67 107.74 57.55 108.68 57 115.77 52.88 116.71 52.34 123.81 48.21 124.75 47.67 131.84 43.55 132.78 43 139.88 38.88 140.82 38.33 146.85 34.82 148.73 33.73"/><polyline class="cls-5" points="156.81 38.4 155.86 37.85 153.99 38.94 147.95 42.45 147.01 43 139.92 47.12 138.98 47.67 131.89 51.79 130.95 52.33 123.85 56.46 122.91 57 115.82 61.13 114.87 61.67 107.78 65.8 106.84 66.34 99.75 70.47 98.81 71.01 91.72 75.13 90.77 75.68 83.68 79.8 82.74 80.35 75.64 84.47 74.7 85.02 67.61 89.14 66.67 89.69 59.58 93.81 58.64 94.36 51.54 98.48 50.6 99.03 43.51 103.15 42.57 103.69 35.47 107.82 34.53 108.36 28.49 111.87 26.38 113.1 27.32 113.65 29.44 112.42 35.48 108.91 36.42 108.36 43.51 104.24 44.45 103.69 51.54 99.57 52.49 99.02 59.58 94.9 60.52 94.36 67.62 90.23 68.56 89.69 75.65 85.56 76.59 85.02 83.69 80.89 84.62 80.35 91.72 76.23 92.66 75.68 99.75 71.56 100.69 71.01 107.79 66.89 108.73 66.34 115.82 62.22 116.76 61.67 123.86 57.55 124.8 57 131.89 52.88 132.83 52.33 139.92 48.21 140.86 47.67 147.96 43.54 148.9 43 154.94 39.49 156.81 38.4"/><polyline class="cls-5" points="164.9 43.07 163.95 42.52 162.08 43.61 156.04 47.12 155.1 47.67 148.01 51.79 147.07 52.34 139.98 56.46 139.04 57 131.94 61.13 131 61.67 123.91 65.8 122.96 66.34 115.87 70.47 114.93 71.01 107.83 75.14 106.9 75.68 99.81 79.8 98.86 80.35 91.77 84.47 90.83 85.02 83.73 89.14 82.79 89.69 75.7 93.81 74.76 94.36 67.66 98.48 66.72 99.03 59.63 103.15 58.69 103.7 51.6 107.82 50.66 108.36 43.56 112.49 42.62 113.03 36.58 116.54 34.46 117.78 35.41 118.32 37.53 117.09 43.57 113.58 44.51 113.03 51.6 108.91 52.54 108.36 59.63 104.24 60.58 103.69 67.67 99.57 68.61 99.03 75.71 94.9 76.65 94.36 83.74 90.23 84.68 89.69 91.77 85.56 92.71 85.02 99.81 80.9 100.75 80.35 107.84 76.23 108.78 75.68 115.88 71.56 116.82 71.01 123.91 66.89 124.85 66.34 131.94 62.22 132.88 61.67 139.98 57.55 140.92 57 148.01 52.88 148.95 52.34 156.05 48.21 156.99 47.67 163.03 44.16 164.9 43.07"/><polyline class="cls-5" points="172.99 47.74 172.04 47.19 170.16 48.28 164.13 51.79 163.19 52.33 156.09 56.46 155.15 57 148.06 61.12 147.12 61.67 140.02 65.8 139.08 66.34 131.99 70.46 131.05 71.01 123.95 75.13 123.02 75.68 115.92 79.8 114.98 80.35 107.89 84.47 106.94 85.02 99.85 89.14 98.91 89.69 91.81 93.81 90.88 94.36 83.78 98.48 82.84 99.02 75.75 103.15 74.81 103.69 67.72 107.81 66.77 108.36 59.68 112.48 58.74 113.03 51.64 117.16 50.7 117.7 44.66 121.21 42.55 122.44 43.5 122.99 45.62 121.76 51.66 118.25 52.59 117.7 59.69 113.58 60.63 113.03 67.72 108.91 68.67 108.36 75.76 104.24 76.7 103.7 83.8 99.57 84.73 99.03 91.83 94.91 92.77 94.36 99.86 90.23 100.8 89.69 107.89 85.57 108.84 85.02 115.93 80.9 116.87 80.35 123.97 76.23 124.91 75.68 132 71.56 132.94 71.01 140.03 66.89 140.97 66.34 148.07 62.22 149.01 61.67 156.1 57.55 157.04 57.01 164.14 52.88 165.08 52.34 171.12 48.83 172.99 47.74"/><polyline class="cls-5" points="181.07 52.41 180.13 51.86 178.25 52.95 172.22 56.46 171.28 57 164.18 61.13 163.24 61.67 156.15 65.8 155.21 66.34 148.11 70.47 147.17 71.01 140.08 75.13 139.14 75.68 132.04 79.8 131.11 80.35 124.01 84.47 123.07 85.02 115.98 89.14 115.03 89.69 107.94 93.81 107 94.36 99.9 98.48 98.97 99.03 91.87 103.15 90.93 103.69 83.84 107.82 82.9 108.36 75.81 112.48 74.86 113.03 67.77 117.16 66.83 117.7 59.73 121.83 58.79 122.37 52.76 125.88 50.64 127.11 51.58 127.66 53.7 126.43 59.74 122.92 60.68 122.37 67.78 118.25 68.71 117.7 75.81 113.58 76.75 113.03 83.84 108.91 84.78 108.36 91.88 104.24 92.82 103.69 99.91 99.57 100.85 99.03 107.95 94.9 108.89 94.36 115.98 90.23 116.92 89.69 124.01 85.56 124.95 85.02 132.05 80.89 132.99 80.35 140.08 76.23 141.03 75.68 148.12 71.56 149.06 71.01 156.15 66.89 157.09 66.34 164.19 62.22 165.12 61.67 172.22 57.55 173.16 57 179.2 53.49 181.07 52.41"/><polyline class="cls-5" points="189.16 57.08 188.22 56.53 186.34 57.62 180.31 61.13 179.37 61.67 172.27 65.8 171.33 66.34 164.24 70.47 163.3 71.01 156.2 75.14 155.26 75.68 148.17 79.8 147.22 80.35 140.13 84.47 139.19 85.02 132.1 89.14 131.16 89.69 124.07 93.81 123.12 94.36 116.03 98.48 115.09 99.03 107.99 103.15 107.05 103.7 99.96 107.82 99.02 108.36 91.93 112.49 90.99 113.03 83.89 117.16 82.95 117.7 75.86 121.83 74.92 122.37 67.82 126.5 66.88 127.04 60.84 130.55 58.73 131.78 59.67 132.33 61.79 131.1 67.83 127.59 68.77 127.04 75.86 122.92 76.8 122.37 83.89 118.25 84.84 117.7 91.93 113.58 92.87 113.03 99.97 108.91 100.91 108.36 108 104.24 108.94 103.7 116.04 99.57 116.97 99.03 124.07 94.91 125.01 94.36 132.1 90.23 133.04 89.69 140.14 85.56 141.08 85.02 148.17 80.9 149.12 80.35 156.21 76.23 157.15 75.68 164.24 71.56 165.18 71.01 172.27 66.89 173.21 66.34 180.31 62.22 181.25 61.67 187.29 58.16 189.16 57.08"/><polyline class="cls-5" points="197.24 61.74 196.3 61.2 194.43 62.28 188.39 65.8 187.45 66.34 180.35 70.47 179.41 71.01 172.32 75.13 171.38 75.68 164.28 79.8 163.34 80.35 156.25 84.47 155.31 85.02 148.22 89.14 147.28 89.69 140.18 93.81 139.24 94.36 132.15 98.48 131.2 99.03 124.11 103.15 123.17 103.69 116.08 107.82 115.14 108.36 108.05 112.48 107.11 113.03 100.01 117.16 99.07 117.7 91.98 121.82 91.03 122.37 83.94 126.49 83 127.04 75.91 131.16 74.97 131.71 68.93 135.22 66.81 136.45 67.75 136.99 69.87 135.76 75.91 132.25 76.85 131.71 83.95 127.58 84.89 127.04 91.98 122.92 92.92 122.37 100.02 118.25 100.95 117.7 108.05 113.58 108.99 113.03 116.08 108.91 117.02 108.36 124.12 104.24 125.06 103.69 132.15 99.57 133.09 99.02 140.19 94.9 141.13 94.36 148.22 90.23 149.16 89.69 156.25 85.56 157.2 85.02 164.29 80.89 165.23 80.35 172.33 76.22 173.27 75.68 180.36 71.56 181.3 71.01 188.39 66.89 189.33 66.34 195.37 62.83 197.24 61.74"/><polyline class="cls-5" points="205.33 66.41 204.39 65.87 202.52 66.96 196.48 70.47 195.54 71.01 188.44 75.14 187.5 75.68 180.41 79.8 179.47 80.35 172.37 84.47 171.44 85.02 164.34 89.14 163.4 89.69 156.31 93.81 155.37 94.36 148.27 98.48 147.33 99.03 140.24 103.15 139.29 103.7 132.2 107.82 131.26 108.36 124.17 112.49 123.23 113.03 116.14 117.16 115.2 117.7 108.1 121.83 107.16 122.37 100.07 126.49 99.12 127.04 92.03 131.16 91.09 131.71 83.99 135.83 83.06 136.38 77.02 139.89 74.9 141.12 75.84 141.66 77.96 140.43 84 136.92 84.94 136.38 92.04 132.25 92.98 131.71 100.07 127.59 101.01 127.04 108.1 122.92 109.04 122.37 116.14 118.25 117.08 117.7 124.17 113.58 125.11 113.03 132.21 108.91 133.15 108.36 140.24 104.24 141.18 103.69 148.28 99.57 149.21 99.03 156.31 94.9 157.25 94.36 164.34 90.23 165.29 89.69 172.38 85.56 173.32 85.02 180.42 80.89 181.35 80.35 188.45 76.23 189.38 75.68 196.48 71.56 197.42 71.01 203.46 67.5 205.33 66.41"/><polyline class="cls-5" points="213.42 71.08 212.47 70.53 210.6 71.62 204.56 75.13 203.62 75.68 196.52 79.8 195.59 80.35 188.49 84.47 187.55 85.02 180.46 89.14 179.52 89.69 172.43 93.81 171.48 94.36 164.39 98.48 163.45 99.02 156.35 103.15 155.41 103.69 148.32 107.81 147.38 108.36 140.28 112.48 139.35 113.03 132.25 117.16 131.31 117.7 124.22 121.82 123.28 122.37 116.18 126.49 115.24 127.04 108.15 131.16 107.2 131.71 100.11 135.83 99.17 136.38 92.08 140.5 91.14 141.05 85.1 144.56 82.98 145.79 83.93 146.34 86.05 145.1 92.09 141.59 93.03 141.05 100.13 136.92 101.06 136.38 108.16 132.26 109.1 131.71 116.19 127.59 117.13 127.04 124.23 122.92 125.17 122.37 132.26 118.25 133.2 117.7 140.3 113.58 141.24 113.03 148.33 108.91 149.27 108.36 156.37 104.24 157.3 103.7 164.4 99.57 165.34 99.03 172.43 94.91 173.38 94.36 180.47 90.23 181.41 89.69 188.51 85.56 189.44 85.02 196.54 80.9 197.47 80.35 204.57 76.23 205.51 75.68 211.55 72.17 213.42 71.08"/><polyline class="cls-5" points="221.5 75.75 220.56 75.2 218.69 76.29 212.65 79.8 211.71 80.35 204.61 84.47 203.67 85.02 196.58 89.14 195.64 89.69 188.55 93.81 187.61 94.36 180.51 98.48 179.57 99.03 172.48 103.15 171.54 103.69 164.44 107.82 163.5 108.36 156.41 112.48 155.47 113.03 148.37 117.16 147.44 117.7 140.34 121.83 139.4 122.37 132.31 126.49 131.37 127.04 124.27 131.16 123.33 131.71 116.24 135.83 115.3 136.38 108.2 140.5 107.26 141.04 100.17 145.17 99.23 145.72 93.19 149.22 91.07 150.46 92.02 151 94.13 149.77 100.17 146.26 101.11 145.72 108.21 141.59 109.15 141.04 116.24 136.92 117.19 136.38 124.28 132.25 125.22 131.71 132.31 127.58 133.25 127.04 140.34 122.92 141.28 122.37 148.38 118.25 149.32 117.7 156.41 113.58 157.36 113.03 164.45 108.91 165.39 108.36 172.49 104.24 173.42 103.69 180.51 99.57 181.46 99.02 188.55 94.9 189.49 94.36 196.59 90.23 197.53 89.69 204.62 85.56 205.56 85.02 212.66 80.89 213.59 80.35 219.63 76.84 221.5 75.75"/><polyline class="cls-5" points="229.59 80.42 228.65 79.88 226.78 80.96 220.74 84.47 219.8 85.02 212.7 89.14 211.76 89.69 204.67 93.81 203.73 94.36 196.63 98.48 195.7 99.03 188.6 103.15 187.66 103.7 180.57 107.82 179.63 108.36 172.53 112.49 171.59 113.03 164.5 117.16 163.56 117.7 156.46 121.83 155.53 122.37 148.43 126.5 147.49 127.04 140.4 131.16 139.46 131.71 132.36 135.83 131.42 136.38 124.33 140.5 123.38 141.05 116.29 145.17 115.35 145.72 108.26 149.84 107.32 150.39 101.28 153.9 99.16 155.13 100.11 155.67 102.22 154.44 108.26 150.93 109.2 150.39 116.3 146.26 117.24 145.72 124.33 141.59 125.27 141.04 132.37 136.92 133.31 136.38 140.4 132.25 141.34 131.71 148.43 127.59 149.37 127.04 156.47 122.92 157.41 122.37 164.5 118.25 165.44 117.7 172.54 113.58 173.48 113.03 180.57 108.91 181.51 108.36 188.6 104.24 189.55 103.69 196.64 99.57 197.58 99.03 204.68 94.9 205.62 94.36 212.71 90.23 213.65 89.69 220.75 85.56 221.68 85.02 227.72 81.51 229.59 80.42"/><polyline class="cls-5" points="237.68 85.09 236.73 84.54 234.86 85.63 228.82 89.14 227.88 89.69 220.78 93.81 219.85 94.36 212.75 98.48 211.82 99.02 204.72 103.15 203.78 103.69 196.69 107.81 195.74 108.36 188.65 112.48 187.71 113.03 180.61 117.16 179.68 117.7 172.58 121.82 171.64 122.37 164.55 126.49 163.61 127.04 156.51 131.16 155.57 131.71 148.48 135.83 147.54 136.38 140.44 140.5 139.5 141.04 132.41 145.17 131.47 145.72 124.38 149.84 123.44 150.38 116.34 154.51 115.4 155.05 109.36 158.56 107.24 159.79 108.19 160.34 110.31 159.11 116.34 155.6 117.28 155.05 124.38 150.93 125.32 150.38 132.41 146.26 133.36 145.71 140.45 141.59 141.39 141.04 148.49 136.92 149.42 136.38 156.52 132.25 157.46 131.71 164.55 127.58 165.49 127.04 172.58 122.92 173.53 122.37 180.62 118.25 181.56 117.7 188.66 113.58 189.6 113.03 196.69 108.91 197.63 108.36 204.72 104.24 205.66 103.69 212.76 99.57 213.7 99.02 220.79 94.9 221.73 94.36 228.83 90.23 229.77 89.69 235.81 86.18 237.68 85.09"/><polyline class="cls-5" points="245.77 89.76 244.82 89.21 242.95 90.3 236.91 93.81 235.97 94.36 228.88 98.48 227.94 99.03 220.84 103.15 219.91 103.69 212.81 107.82 211.87 108.36 204.78 112.48 203.83 113.03 196.74 117.16 195.8 117.7 188.7 121.83 187.76 122.37 180.67 126.49 179.73 127.04 172.64 131.16 171.7 131.71 164.6 135.83 163.66 136.38 156.57 140.5 155.63 141.04 148.53 145.17 147.59 145.72 140.5 149.84 139.56 150.39 132.47 154.51 131.53 155.05 124.43 159.18 123.49 159.72 117.45 163.23 115.33 164.46 116.28 165.01 118.39 163.78 124.43 160.27 125.37 159.72 132.47 155.6 133.41 155.05 140.5 150.93 141.45 150.38 148.54 146.26 149.48 145.72 156.57 141.59 157.51 141.04 164.6 136.92 165.54 136.38 172.64 132.25 173.58 131.71 180.67 127.59 181.62 127.04 188.71 122.92 189.65 122.37 196.75 118.25 197.69 117.7 204.78 113.58 205.72 113.03 212.81 108.91 213.75 108.36 220.85 104.24 221.79 103.69 228.88 99.57 229.82 99.03 236.92 94.9 237.86 94.36 243.9 90.85 245.77 89.76"/><polyline class="cls-5" points="253.86 94.43 252.91 93.88 251.04 94.97 245 98.48 244.06 99.03 236.96 103.15 236.03 103.7 228.93 107.82 228 108.36 220.9 112.49 219.96 113.03 212.87 117.16 211.92 117.7 204.83 121.83 203.89 122.37 196.79 126.5 195.85 127.04 188.76 131.16 187.82 131.71 180.72 135.83 179.79 136.38 172.69 140.5 171.75 141.05 164.66 145.17 163.72 145.72 156.62 149.84 155.68 150.39 148.59 154.51 147.65 155.06 140.55 159.18 139.62 159.72 132.52 163.85 131.58 164.39 125.54 167.9 123.42 169.13 124.37 169.68 126.48 168.45 132.52 164.94 133.46 164.39 140.56 160.27 141.5 159.72 148.59 155.6 149.54 155.05 156.63 150.93 157.57 150.39 164.66 146.26 165.6 145.72 172.69 141.59 173.63 141.05 180.73 136.92 181.67 136.38 188.76 132.26 189.71 131.71 196.8 127.59 197.74 127.04 204.84 122.92 205.77 122.37 212.87 118.25 213.81 117.7 220.9 113.58 221.84 113.03 228.94 108.91 229.88 108.36 236.97 104.24 237.91 103.7 245.01 99.57 245.95 99.03 251.98 95.52 253.86 94.43"/><polyline class="cls-5" points="264.06 99.1 260.99 97.32 258.06 99.03 252.02 102.53 251.09 103.08 243.99 107.2 243.05 107.75 235.96 111.87 235.02 112.42 227.92 116.54 226.98 117.09 219.89 121.21 218.94 121.76 211.85 125.88 210.91 126.42 203.82 130.55 202.88 131.1 195.78 135.22 194.84 135.77 187.75 139.89 186.81 140.43 179.71 144.56 178.77 145.1 171.68 149.22 170.74 149.77 163.65 153.9 162.71 154.44 155.61 158.56 154.67 159.11 147.58 163.23 146.64 163.78 139.54 167.9 138.6 168.45 132.56 171.96 129.51 173.73 129.39 173.8 132.46 175.57 264.06 99.1"/></g></g></g><g id="Middle"><g class="cls-2"><g class="cls-6"><polyline class="cls-7" points="243.12 79.9 130.89 15.11 21.06 78.93 133.29 143.73 243.12 79.9"/><path class="cls-5" d="M21.06,78.93,130.89,15.11,243.12,79.9,133.29,143.73,21.06,78.93m226.3,1L130.88,12.65,16.82,78.93l116.49,67.26L247.36,79.9"/></g></g></g><g id="Upper"><g class="cls-2"><g class="cls-8"><path class="cls-7" d="M137.34,34.93c-2-1.16-2.22-3-.43-4.33a8.6,8.6,0,0,1,7.88-.51c.17.08.34.16.49.25,2,1.15,2.23,3,.43,4.32a5.7,5.7,0,0,1-1.09.61l6.29,13.44a8.23,8.23,0,0,1,2.93.69l.47.24c2,1.16,2.24,3,.44,4.33a8.63,8.63,0,0,1-7.88.52l-.47-.24a3.17,3.17,0,0,1-1.6-1.83l-7.92-1-.3.24a4.84,4.84,0,0,1-.86.5l6.43,13.74a8.05,8.05,0,0,1,2.54.66,5.39,5.39,0,0,1,.48.25c2,1.15,2.23,3,.45,4.33a8.67,8.67,0,0,1-7.9.51l-.47-.24a2.69,2.69,0,0,1-1.64-2.55L114,63l-.29.15,7.4,12.22a8.4,8.4,0,0,1,3.35.71l.47.24c2,1.16,2.24,3,.44,4.33a8.62,8.62,0,0,1-7.89.52,5.39,5.39,0,0,1-.48-.25c-2-1.15-2.23-3-.44-4.33a5.93,5.93,0,0,1,.78-.46L109.94,63.9a8.44,8.44,0,0,1-3.35-.7c-.16-.08-.32-.16-.47-.25-2-1.15-2.23-3-.44-4.33a8.65,8.65,0,0,1,7.89-.51,3.45,3.45,0,0,1,.47.24,2.71,2.71,0,0,1,1.65,2.55l21.6,5.86a5.1,5.1,0,0,1,.92-.42l-6.3-13.47a8.38,8.38,0,0,1-3.23-.7l-.47-.24c-2-1.16-2.24-3-.44-4.34a8.65,8.65,0,0,1,7.89-.51,5.39,5.39,0,0,1,.48.25,3.12,3.12,0,0,1,1.59,1.81l7.91,1,.3-.25a5.88,5.88,0,0,1,1.11-.61l-6.29-13.43a8.13,8.13,0,0,1-2.94-.7c-.17-.07-.33-.16-.48-.24m87.4,21.62L131.05,2.46,39.36,55.74l93.7,54.09,91.68-53.28"/><path class="cls-5" d="M39.36,55.74,131.05,2.46l93.69,54.09-91.68,53.28L39.36,55.74M229,56.55,131,0,35.12,55.74l97.94,56.55L229,56.55"/><path class="cls-9" d="M137.29,66.76l-21.6-5.86a2.67,2.67,0,0,1-1.2,1.78A3.94,3.94,0,0,1,114,63l21.6,5.86a2.64,2.64,0,0,1,1.2-1.78,3.94,3.94,0,0,1,.48-.31"/><path class="cls-9" d="M113.72,63.14a8.33,8.33,0,0,1-3.78.76l7.41,12.22a8.53,8.53,0,0,1,3.77-.76l-7.4-12.22"/><path class="cls-9" d="M144.62,35.27a8.91,8.91,0,0,1-3.86.6l6.29,13.43a8.91,8.91,0,0,1,3.86-.59l-6.29-13.44"/><path class="cls-9" d="M145.64,50.16l-7.91-1a2.26,2.26,0,0,1-.85,2.27l7.92,1a2.23,2.23,0,0,1,.84-2.26"/><path class="cls-9" d="M135.72,52.15a8.48,8.48,0,0,1-3.81.72l6.3,13.47a9.19,9.19,0,0,1,3.94-.45l-6.43-13.74"/><path class="cls-10" d="M154.31,49.64l-.47-.24a8.23,8.23,0,0,0-2.93-.69,8.91,8.91,0,0,0-3.86.59,5.88,5.88,0,0,0-1.11.61l-.3.25a2.23,2.23,0,0,0-.84,2.26,3.17,3.17,0,0,0,1.6,1.83l.47.24a8.63,8.63,0,0,0,7.88-.52c1.8-1.31,1.56-3.17-.44-4.33"/><path class="cls-11" d="M145.28,30.34c-.15-.09-.32-.17-.49-.25a8.6,8.6,0,0,0-7.88.51c-1.79,1.31-1.56,3.17.43,4.33.15.08.31.17.48.24a8.13,8.13,0,0,0,2.94.7,8.91,8.91,0,0,0,3.86-.6,5.7,5.7,0,0,0,1.09-.61c1.8-1.31,1.57-3.17-.43-4.32"/><path class="cls-11" d="M114,58.35a3.45,3.45,0,0,0-.47-.24,8.65,8.65,0,0,0-7.89.51c-1.79,1.31-1.56,3.18.44,4.33.15.09.31.17.47.25a8.44,8.44,0,0,0,3.35.7,8.33,8.33,0,0,0,3.78-.76L114,63a3.94,3.94,0,0,0,.48-.31,2.67,2.67,0,0,0,1.2-1.78A2.71,2.71,0,0,0,114,58.35"/><path class="cls-11" d="M136.14,47.33a5.39,5.39,0,0,0-.48-.25,8.65,8.65,0,0,0-7.89.51c-1.8,1.31-1.56,3.18.44,4.34l.47.24a8.38,8.38,0,0,0,3.23.7,8.48,8.48,0,0,0,3.81-.72,4.84,4.84,0,0,0,.86-.5l.3-.24a2.26,2.26,0,0,0,.85-2.27,3.12,3.12,0,0,0-1.59-1.81"/><path class="cls-10" d="M145.17,66.8a5.39,5.39,0,0,0-.48-.25,8.05,8.05,0,0,0-2.54-.66,9.19,9.19,0,0,0-3.94.45,5.1,5.1,0,0,0-.92.42,3.94,3.94,0,0,0-.48.31,2.64,2.64,0,0,0-1.2,1.78,2.69,2.69,0,0,0,1.64,2.55l.47.24a8.67,8.67,0,0,0,7.9-.51c1.78-1.31,1.56-3.18-.45-4.33"/><path class="cls-10" d="M124.94,76.31l-.47-.24a8.4,8.4,0,0,0-3.35-.71,8.53,8.53,0,0,0-3.77.76,5.93,5.93,0,0,0-.78.46c-1.79,1.31-1.56,3.18.44,4.33a5.39,5.39,0,0,0,.48.25,8.62,8.62,0,0,0,7.89-.52c1.8-1.31,1.56-3.17-.44-4.33"/></g></g></g></g></g></g></svg>