<svg xmlns="http://www.w3.org/2000/svg" xmlns:xlink="http://www.w3.org/1999/xlink" viewBox="0 0 542.29 175.58"><defs><style>.cls-1{fill:none;}.cls-2{isolation:isolate;}.cls-3{clip-path:url(#clip-path);}.cls-12,.cls-4{fill:#fff;}.cls-5,.cls-7{fill:#40b0ca;}.cls-6{clip-path:url(#clip-path-2);}.cls-7{opacity:0.5;}.cls-8{clip-path:url(#clip-path-3);}.cls-9{fill:#e7e9ed;}.cls-10{fill:#ed818b;}.cls-11{fill:#f0a9b3;}.cls-12{opacity:0.9;font-size:60px;font-family:Lato-Italic, Lato;font-style:italic;}</style><clipPath id="clip-path"><polygon class="cls-1" points="0 99.1 131.73 22.55 264.19 99.03 132.46 175.58 0 99.1"/></clipPath><clipPath id="clip-path-2"><polygon class="cls-1" points="16.82 78.94 130.88 12.65 247.37 79.91 133.31 146.19 16.82 78.94"/></clipPath><clipPath id="clip-path-3"><polygon class="cls-1" points="35.12 55.74 131.03 0 228.98 56.55 133.07 112.29 35.12 55.74"/></clipPath></defs><title>Logo-text</title><g id="Layer_2" data-name="Layer 2"><g id="Layer_1-2" data-name="Layer 1"><g id="SpatialTis-logo-text"><g id="SpatialTis-logo"><g id="Buttom"><g class="cls-2"><g class="cls-3"><path class="cls-4" d="M18.37,99l-6.08-3.51L6.25,99l6.08,3.51,6-3.51m8.09,4.67-7.15-4.13-6,3.51,7.15,4.13,6-3.51m8.08,4.67-7.14-4.12-6,3.5,7.14,4.13,6-3.51M42.63,113l-7.14-4.12-6,3.51,7.14,4.12,6-3.51m8.09,4.67-7.15-4.13-6,3.51,7.15,4.13,6-3.51m8.08,4.66-7.14-4.12-6,3.51,7.14,4.12,6-3.51M66.89,127l-7.15-4.12-6,3.51,7.14,4.12,6-3.51M75,131.71l-7.14-4.12-6,3.51,7.13,4.12,6-3.51m8.09,4.67-7.14-4.12-6,3.51L77,139.89l6-3.51m8.09,4.67L84,136.93l-6,3.51,7.14,4.12,6-3.51m8.08,4.67L92.1,141.6l-6,3.51,7.14,4.12,6-3.51m8.09,4.67-7.13-4.12-6,3.51,7.13,4.12,6-3.51m8.09,4.67-7.14-4.13-6,3.51,7.14,4.13,6-3.51m8.09,4.67-7.14-4.13-6,3.51,7.14,4.13,6-3.51m8.08,4.67-7.14-4.13-6,3.51,7.15,4.13,6-3.51m7,4-6.08-3.51-6,3.51,6.08,3.51,6-3.51M26.4,94.36l-6.08-3.51L13.23,95l6.07,3.51,7.1-4.12M34.49,99l-7.15-4.12L20.25,99l7.14,4.12L34.49,99m8.08,4.67-7.14-4.12-7.09,4.12,7.14,4.12,7.09-4.12m8.09,4.67-7.14-4.12-7.09,4.12,7.14,4.12,7.09-4.12M58.75,113l-7.15-4.12L44.51,113l7.15,4.12L58.75,113m8.08,4.67-7.14-4.12-7.09,4.12,7.14,4.12,7.09-4.12m8.09,4.67-7.14-4.13-7.1,4.12,7.15,4.13,7.09-4.12M83,127l-7.14-4.12L68.77,127l7.14,4.13L83,127m8.09,4.67L84,127.59l-7.09,4.12L84,135.84l7.09-4.13m8.09,4.68L92,132.26,85,136.38l7.14,4.13,7.09-4.12m8.08,4.66-7.13-4.12L93,141.05l7.14,4.12,7.09-4.12m8.09,4.67-7.13-4.12-7.1,4.12,7.14,4.12,7.09-4.12m8.09,4.67-7.14-4.12-7.09,4.12,7.14,4.12,7.09-4.12m8.09,4.67-7.14-4.12-7.09,4.12,7.13,4.12,7.1-4.12m8.09,4.67-7.15-4.13-7.09,4.13,7.14,4.12,7.1-4.12m7,4.05-6.08-3.5-7.09,4.12,6.08,3.51,7.09-4.13M34.43,89.69l-6.08-3.51L21.26,90.3l6.08,3.51,7.09-4.12m8.09,4.67-7.14-4.12-7.09,4.12,7.14,4.12,7.09-4.12M50.61,99l-7.14-4.12L36.38,99l7.13,4.12L50.61,99m8.08,4.67-7.13-4.12-7.09,4.12,7.13,4.12,7.09-4.12m8.09,4.67-7.14-4.12-7.09,4.12,7.14,4.12,7.09-4.12M74.87,113l-7.14-4.12L60.64,113l7.14,4.12L74.87,113M83,117.71l-7.15-4.13-7.09,4.12,7.14,4.13,7.1-4.12M91,122.37l-7.14-4.12-7.09,4.12L84,126.5,91,122.37M99.13,127,92,122.92,84.9,127,92,131.17,99.13,127m8.09,4.67-7.15-4.12L93,131.71l7.15,4.13,7.09-4.13m8.08,4.67-7.14-4.12-7.09,4.12,7.14,4.12,7.09-4.12m8.09,4.67-7.14-4.12-7.09,4.12,7.14,4.12,7.09-4.12m8.09,4.67-7.14-4.12-7.1,4.12,7.15,4.12,7.09-4.12m8.08,4.67-7.14-4.12-7.09,4.12,7.14,4.12,7.09-4.12m8.09,4.67-7.14-4.13-7.09,4.13,7.14,4.12,7.09-4.12m7,4.05-6.08-3.51-7.09,4.13,6.07,3.51,7.1-4.13M42.47,85l-6.08-3.51-7.1,4.13,6.08,3.51L42.47,85m8.09,4.67-7.15-4.12-7.09,4.12,7.14,4.13,7.1-4.13m8.08,4.67L51.5,90.24l-7.09,4.12,7.13,4.12,7.1-4.12M66.73,99l-7.14-4.12L52.5,99l7.13,4.12L66.73,99m8.09,4.67-7.14-4.13-7.1,4.13,7.14,4.12,7.1-4.12m8.08,4.67-7.13-4.12-7.1,4.12,7.14,4.12,7.09-4.12M91,113l-7.14-4.13L76.75,113l7.15,4.12L91,113m8.09,4.66-7.14-4.12-7.1,4.13L92,121.83l7.1-4.13m8.09,4.67L100,118.25l-7.1,4.13,7.14,4.12,7.1-4.13m8.08,4.67-7.14-4.12L101,127l7.15,4.13,7.09-4.13m8.09,4.67-7.14-4.12-7.1,4.12,7.14,4.13,7.1-4.13m8.09,4.67-7.14-4.12-7.1,4.13,7.14,4.12,7.1-4.13m8.09,4.67-7.15-4.12-7.1,4.12,7.15,4.13,7.1-4.13m8.08,4.67-7.14-4.12-7.1,4.12,7.14,4.12,7.1-4.12m8.09,4.67-7.15-4.13-7.09,4.13,7.14,4.12,7.1-4.12m7,4.05-6.08-3.51-7.09,4.13,6.07,3.51,7.1-4.13M50.5,80.35l-6.08-3.5L37.33,81l6.08,3.51,7.09-4.13M58.59,85,51.45,80.9,44.35,85l7.15,4.13L58.59,85m8.08,4.66-7.14-4.12-7.09,4.12,7.14,4.12,7.09-4.12m8.09,4.67-7.14-4.12-7.09,4.12,7.14,4.12,7.09-4.12M82.85,99l-7.14-4.12L68.62,99l7.14,4.12L82.85,99m8.08,4.67L83.8,99.58l-7.1,4.12,7.14,4.12,7.09-4.12M99,108.37l-7.14-4.12-7.09,4.12,7.14,4.12L99,108.37m8.09,4.67L100,108.92,92.88,113l7.14,4.12,7.09-4.12m8.09,4.67-7.14-4.12L101,117.71l7.13,4.12,7.1-4.12m8.09,4.67-7.15-4.13-7.09,4.12,7.14,4.13,7.1-4.12m8.08,4.66-7.14-4.12L117.14,127l7.14,4.13,7.09-4.13m8.09,4.67-7.14-4.12-7.09,4.12,7.14,4.13,7.09-4.13m8.09,4.67-7.15-4.12-7.09,4.12,7.15,4.13,7.09-4.13m8.08,4.67-7.14-4.12-7.09,4.12,7.14,4.12,7.09-4.12m8.09,4.67-7.14-4.12-7.1,4.12,7.15,4.12,7.09-4.12m7,4.06-6.08-3.51-7.09,4.12,6.08,3.51,7.09-4.12M58.54,75.68l-6.08-3.5L45.37,76.3l6.08,3.51,7.09-4.13m8.09,4.67-7.15-4.12-7.09,4.12,7.14,4.13,7.1-4.13M74.71,85,67.57,80.9,60.48,85l7.14,4.12L74.71,85m8.09,4.67-7.14-4.12-7.09,4.12,7.14,4.12,7.09-4.12m8.09,4.67-7.15-4.12-7.09,4.12,7.15,4.12,7.09-4.12M99,99l-7.14-4.12L84.74,99l7.14,4.12L99,99m8.09,4.67-7.14-4.13-7.1,4.13,7.15,4.12,7.09-4.12m8.08,4.67L108,104.24l-7.1,4.13,7.14,4.12,7.09-4.12m8.09,4.67-7.14-4.12L109,113l7.14,4.12,7.09-4.12m8.09,4.67-7.14-4.13-7.09,4.12,7.14,4.13,7.09-4.12m8.09,4.66-7.14-4.12-7.09,4.12,7.13,4.12,7.1-4.12m8.08,4.67-7.13-4.12-7.1,4.12,7.14,4.13,7.09-4.13m8.09,4.67-7.14-4.12-7.09,4.12,7.14,4.13,7.09-4.13m8.09,4.67-7.14-4.12-7.09,4.12,7.14,4.12,7.09-4.12m8.09,4.67-7.15-4.12-7.09,4.12,7.14,4.12,7.1-4.12m7,4.06-6.08-3.51-7.09,4.12,6.08,3.51,7.09-4.12M66.57,71,60.5,67.5l-7.1,4.13,6.08,3.51L66.57,71m8.09,4.67-7.14-4.12-7.1,4.12,7.15,4.13,7.09-4.13m8.09,4.67-7.14-4.12-7.1,4.12,7.14,4.13,7.1-4.13M90.84,85,83.7,80.9,76.6,85l7.14,4.12L90.84,85m8.08,4.67-7.14-4.12-7.1,4.12,7.15,4.13,7.09-4.13M107,94.36l-7.14-4.12-7.1,4.12,7.14,4.12,7.1-4.12M115.1,99,108,94.9,100.85,99l7.15,4.12L115.1,99m8.08,4.67L116,99.57l-7.1,4.13,7.14,4.12,7.1-4.12m8.09,4.67-7.14-4.13-7.1,4.13,7.14,4.12,7.1-4.12m8.09,4.67-7.15-4.13L125.12,113l7.14,4.12,7.1-4.12m8.08,4.66-7.14-4.12-7.09,4.13,7.13,4.12,7.1-4.13m8.09,4.67-7.14-4.12-7.09,4.13,7.13,4.12,7.1-4.13m8.09,4.67-7.14-4.12-7.1,4.12,7.14,4.13,7.1-4.13m8.08,4.67-7.13-4.12-7.1,4.12,7.14,4.13,7.09-4.13m8.09,4.67-7.14-4.12-7.1,4.12,7.15,4.13,7.09-4.13m7,4.06-6.08-3.51-7.1,4.12,6.08,3.51,7.1-4.12M74.6,66.35l-6.07-3.51L61.43,67l6.08,3.51,7.09-4.12M82.69,71l-7.14-4.13L68.46,71l7.14,4.13L82.69,71m8.09,4.66-7.14-4.12-7.09,4.12,7.13,4.13,7.1-4.13m8.09,4.67-7.14-4.12-7.09,4.12,7.13,4.13,7.1-4.13M107,85,99.81,80.9,92.72,85l7.14,4.13L107,85M115,89.69l-7.14-4.12-7.09,4.12L108,93.81,115,89.69m8.09,4.67L116,90.24l-7.09,4.12L116,98.48l7.09-4.12M131.21,99l-7.14-4.12L117,99l7.14,4.12L131.21,99m8.09,4.67-7.14-4.12-7.09,4.12,7.14,4.12,7.09-4.12m8.09,4.67-7.15-4.13-7.09,4.13,7.15,4.12,7.09-4.12m8.08,4.67-7.14-4.12L141.24,113l7.14,4.12,7.09-4.12m8.09,4.67-7.14-4.12-7.09,4.12,7.14,4.12,7.09-4.12m8.09,4.67-7.14-4.13-7.09,4.12,7.14,4.13,7.09-4.12m8.08,4.66-7.13-4.12L165.5,127l7.14,4.13,7.09-4.13m8.09,4.67-7.14-4.12-7.09,4.12,7.14,4.13,7.09-4.13m7,4.06-6.08-3.51-7.09,4.12,6.07,3.51,7.1-4.12M82.64,61.68l-6.08-3.51-7.1,4.12,6.08,3.51,7.1-4.12m8.09,4.67-7.14-4.13-7.1,4.13,7.14,4.12,7.1-4.12M98.81,71l-7.13-4.12L84.58,71l7.14,4.12L98.81,71m8.09,4.67-7.14-4.12-7.09,4.13,7.13,4.12,7.1-4.13M115,80.35l-7.14-4.12-7.1,4.12,7.14,4.13,7.1-4.13M123.08,85l-7.14-4.12L108.84,85,116,89.15l7.1-4.13m8.08,4.67L124,85.57l-7.1,4.12,7.15,4.13,7.09-4.13m8.09,4.67-7.14-4.12L125,94.36l7.14,4.12,7.1-4.12M147.34,99l-7.14-4.12L133.1,99l7.14,4.12,7.1-4.12m8.09,4.67-7.15-4.13-7.1,4.13,7.15,4.12,7.1-4.12m8.08,4.67-7.14-4.13-7.1,4.13,7.14,4.12,7.1-4.12M171.6,113l-7.14-4.12-7.1,4.12,7.14,4.12,7.1-4.12m8.09,4.67-7.15-4.13-7.09,4.13,7.14,4.12,7.1-4.12m8.08,4.66-7.14-4.12-7.1,4.13,7.14,4.12,7.1-4.13m8.09,4.67-7.14-4.12-7.1,4.12,7.14,4.13,7.1-4.13m7,4.06-6.07-3.51-7.1,4.12,6.08,3.51,7.09-4.12M90.67,57,84.59,53.5,77.5,57.62l6.08,3.51L90.67,57m8.09,4.67-7.14-4.12-7.1,4.12,7.15,4.12,7.09-4.12m8.08,4.67-7.13-4.12-7.1,4.12,7.14,4.12,7.09-4.12M114.93,71,107.8,66.9,100.7,71l7.14,4.12L114.93,71M123,75.69l-7.14-4.13-7.09,4.12,7.14,4.13L123,75.69m8.09,4.66L124,76.23l-7.09,4.12L124,84.48l7.1-4.13M139.19,85l-7.14-4.12L125,85l7.14,4.13L139.19,85m8.09,4.67-7.14-4.12-7.09,4.12,7.14,4.12,7.09-4.12m8.09,4.67-7.14-4.12-7.09,4.12,7.14,4.12,7.09-4.12M163.46,99l-7.15-4.12L149.22,99l7.14,4.12,7.1-4.12m8.08,4.67-7.14-4.12-7.09,4.12,7.14,4.12,7.09-4.12m8.09,4.67-7.14-4.12-7.09,4.12,7.14,4.12,7.09-4.12m8.09,4.67-7.15-4.12L173.48,113l7.15,4.12,7.09-4.12m8.08,4.67-7.14-4.12-7.09,4.12,7.14,4.12,7.09-4.12m8.09,4.67-7.14-4.13-7.1,4.12,7.15,4.13,7.09-4.12m7,4.05-6.07-3.51-7.1,4.12,6.08,3.51,7.09-4.12M98.71,52.34l-6.08-3.51L85.54,53l6.08,3.51,7.09-4.12M106.8,57l-7.15-4.13L92.56,57l7.15,4.12L106.8,57m8.08,4.67-7.14-4.12-7.09,4.12,7.14,4.12,7.09-4.12M123,66.35l-7.14-4.12-7.09,4.12,7.14,4.12L123,66.35M131.06,71l-7.15-4.13L116.82,71,124,75.14,131.06,71m8.08,4.66L132,71.56l-7.09,4.12,7.14,4.13,7.09-4.13m8.09,4.67-7.14-4.12L133,80.35l7.14,4.13,7.09-4.13M155.31,85l-7.13-4.12L141.09,85l7.13,4.12L155.31,85m8.09,4.67-7.13-4.12-7.1,4.12,7.14,4.12,7.09-4.12m8.09,4.67-7.14-4.12-7.09,4.12,7.14,4.12,7.09-4.12M179.58,99l-7.14-4.12L165.35,99l7.13,4.12,7.1-4.12m8.09,4.67-7.14-4.12-7.09,4.12,7.13,4.12,7.1-4.12m8.09,4.67-7.15-4.13-7.09,4.13,7.14,4.12,7.1-4.12m8.08,4.67-7.14-4.13L189.61,113l7.14,4.12,7.09-4.12m8.09,4.67-7.15-4.13-7.09,4.12,7.15,4.13,7.09-4.12m7,4.05-6.08-3.51-7.09,4.12,6.08,3.51,7.09-4.12M106.75,47.67l-6.08-3.51-7.1,4.12,6.08,3.51,7.1-4.12m8.08,4.67-7.14-4.13-7.1,4.13,7.15,4.12,7.09-4.12M122.92,57l-7.14-4.13L108.68,57l7.14,4.12,7.1-4.12M131,61.68l-7.14-4.12-7.1,4.12,7.14,4.12,7.1-4.12m8.09,4.67L132,62.22l-7.1,4.13L132,70.47l7.1-4.12M147.18,71,140,66.89,132.94,71l7.14,4.12,7.1-4.13m8.09,4.67-7.15-4.12L141,75.68l7.14,4.13,7.1-4.13m8.08,4.67-7.14-4.12-7.09,4.12,7.13,4.13,7.1-4.13M171.44,85,164.3,80.9,157.2,85l7.14,4.13,7.1-4.13m8.09,4.67-7.14-4.12-7.1,4.12,7.14,4.13,7.1-4.13m8.08,4.67-7.13-4.12-7.1,4.12,7.14,4.12,7.09-4.12M195.7,99l-7.14-4.12L181.47,99l7.13,4.12L195.7,99m8.09,4.67-7.14-4.13-7.1,4.13,7.14,4.12,7.1-4.12m8.08,4.67-7.13-4.13-7.1,4.13,7.14,4.12,7.09-4.12M220,113l-7.14-4.13-7.1,4.13,7.15,4.12L220,113m7,4-6.08-3.51-7.1,4.13,6.08,3.51,7.1-4.13M114.78,43l-6.08-3.51-7.09,4.12,6.07,3.51,7.1-4.12m8.08,4.67-7.14-4.12-7.09,4.12,7.14,4.12,7.09-4.12M131,52.34l-7.14-4.12-7.09,4.12,7.14,4.12L131,52.34M139,57l-7.14-4.12L124.81,57,132,61.13,139,57m8.09,4.67L140,57.56l-7.09,4.12L140,65.8l7.1-4.12m8.08,4.67-7.14-4.12L141,66.35l7.14,4.12,7.09-4.12M163.3,71l-7.15-4.13L149.06,71l7.15,4.13L163.3,71m8.08,4.66-7.14-4.12-7.09,4.12,7.14,4.13,7.09-4.13m8.09,4.67-7.14-4.12-7.09,4.12,7.14,4.13,7.09-4.13M187.56,85l-7.14-4.12L173.32,85l7.15,4.13L187.56,85m8.08,4.67-7.13-4.12-7.1,4.12,7.14,4.12,7.09-4.12m8.09,4.67-7.14-4.12-7.09,4.12,7.14,4.12,7.09-4.12M211.82,99l-7.14-4.12L197.59,99l7.14,4.12L211.82,99m8.09,4.67-7.14-4.12-7.09,4.12,7.13,4.12,7.1-4.12m8.08,4.67-7.14-4.13-7.09,4.13,7.14,4.12,7.09-4.12m7,4-6.08-3.51L221.85,113l6.08,3.51,7.09-4.13M122.81,38.33l-6.08-3.51L109.64,39l6.07,3.51,7.1-4.13M130.9,43l-7.14-4.12L116.66,43l7.14,4.13L130.9,43M139,47.67l-7.13-4.12-7.1,4.12,7.14,4.12L139,47.67m8.09,4.67-7.13-4.12-7.1,4.12L140,56.46l7.09-4.12M155.16,57,148,52.88,140.92,57l7.15,4.12L155.16,57m8.09,4.67-7.14-4.12L149,61.68l7.14,4.12,7.1-4.12m8.09,4.67-7.15-4.13-7.1,4.13,7.15,4.12,7.1-4.12M179.42,71l-7.14-4.12L165.18,71l7.14,4.12,7.1-4.13m8.09,4.67-7.14-4.12-7.1,4.13,7.14,4.12,7.1-4.13m8.09,4.67-7.15-4.12-7.09,4.12,7.14,4.13,7.1-4.13M203.68,85l-7.14-4.12L189.44,85l7.14,4.13,7.1-4.13m8.09,4.67-7.14-4.12-7.1,4.13,7.14,4.12,7.1-4.13m8.09,4.67-7.15-4.12-7.09,4.12,7.14,4.13,7.1-4.13M227.94,99l-7.14-4.12L213.71,99l7.13,4.12,7.1-4.12M236,103.7l-7.14-4.13-7.1,4.13,7.14,4.12,7.1-4.12m7,4L237,104.24l-7.1,4.13,6.08,3.51,7.09-4.13M130.85,33.66l-6.08-3.51-7.1,4.13,6.08,3.51,7.1-4.13m8.09,4.67-7.15-4.12-7.09,4.12,7.14,4.13,7.1-4.13M147,43l-7.14-4.12L132.79,43l7.13,4.12L147,43m8.09,4.67L148,43.55l-7.1,4.12L148,51.79l7.1-4.12m8.09,4.67-7.14-4.13L149,52.34l7.14,4.12,7.1-4.12M171.28,57l-7.13-4.13L157.05,57l7.14,4.12L171.28,57m8.09,4.67-7.14-4.13-7.1,4.13,7.14,4.12,7.1-4.12m8.09,4.66-7.14-4.12-7.1,4.13,7.14,4.12,7.1-4.13M195.54,71l-7.13-4.12L181.31,71l7.14,4.12L195.54,71m8.09,4.67-7.14-4.12-7.1,4.12,7.15,4.13,7.09-4.13m8.09,4.67-7.14-4.12-7.1,4.12,7.14,4.13,7.1-4.13M219.81,85l-7.14-4.12L205.57,85l7.14,4.13,7.1-4.13m8.09,4.67-7.15-4.12-7.1,4.12,7.15,4.13,7.1-4.13M236,94.36l-7.14-4.12-7.1,4.12,7.14,4.12,7.1-4.12M244.07,99l-7.15-4.13L229.83,99l7.14,4.12,7.1-4.12m7,4L245,99.57l-7.09,4.13,6.07,3.51,7.1-4.13M137.82,29.61l-6.08-3.51-6,3.51,6.08,3.51,6-3.51m8.09,4.67-7.14-4.12-6,3.5,7.15,4.13,6-3.51M154,39l-7.14-4.12-6,3.5L148,42.45l6-3.5m8.09,4.67-7.14-4.12-6,3.5,7.14,4.12,6-3.5m8.09,4.67L163,44.16l-6,3.51,7.15,4.12,6-3.5M178.25,53l-7.13-4.12-6,3.51,7.14,4.12,6-3.51m8.09,4.68L179.2,53.5l-6,3.51,7.14,4.12,6-3.5m8.09,4.66-7.14-4.12-6,3.51,7.13,4.12,6-3.51M202.52,67l-7.14-4.12-6,3.51,7.13,4.12,6-3.51m8.09,4.67-7.15-4.12-6,3.5,7.14,4.13,6-3.51m8.08,4.67-7.14-4.12-6,3.5,7.14,4.12,6-3.5M226.78,81l-7.14-4.12-6,3.5,7.14,4.13,6-3.51m8.09,4.67-7.15-4.12-6,3.5,7.14,4.13,6-3.51M243,90.31l-7.14-4.12-6,3.5,7.14,4.12,6-3.5M251,95l-7.15-4.13-6,3.51L245,98.48l6-3.5m7,4L252,95.52,246,99l6.08,3.51,6-3.51"/><polyline class="cls-5" points="264.19 99.03 131.73 22.55 128.67 24.33 131.61 22.62 134.68 24.39 131.74 26.1 137.82 29.61 139.7 28.52 140.64 29.06 138.76 30.16 145.91 34.28 147.79 33.19 148.73 33.73 146.85 34.83 153.99 38.95 155.87 37.86 156.82 38.41 154.94 39.5 162.08 43.62 163.96 42.53 164.9 43.07 163.03 44.16 170.17 48.29 172.05 47.2 172.99 47.74 171.12 48.83 178.25 52.95 180.13 51.86 181.08 52.41 179.2 53.5 186.34 57.63 188.22 56.53 189.17 57.08 187.29 58.17 194.43 62.29 196.3 61.2 197.26 61.75 195.38 62.84 202.52 66.96 204.39 65.87 205.34 66.42 203.46 67.51 210.6 71.63 212.48 70.54 213.43 71.09 211.55 72.18 218.69 76.3 220.57 75.21 221.52 75.76 219.64 76.85 226.78 80.97 228.66 79.88 229.6 80.42 227.72 81.52 234.87 85.64 236.75 84.55 237.69 85.09 235.81 86.19 242.95 90.31 244.83 89.22 245.77 89.76 243.9 90.85 251.04 94.98 252.92 93.89 253.86 94.43 251.98 95.52 258.06 99.03 261 97.33 264.07 99.1 264.19 99.03"/><path class="cls-5" d="M131.79,33.12l-6.08-3.51-.94.54,6.08,3.51.94-.54m8.09,4.67-7.15-4.13-.94.55,7.15,4.12.94-.54M148,42.45l-7.14-4.12-.94.55L147,43l.94-.55m8.09,4.67L148.91,43l-.94.55,7.14,4.12.94-.55m8.09,4.67L157,47.67l-.93.54,7.14,4.13.94-.55m8.08,4.67-7.14-4.12-.93.54L171.28,57l.94-.55m8.09,4.67L173.17,57l-.94.54,7.14,4.13.94-.55m8.08,4.67-7.13-4.12-.94.54,7.14,4.12.93-.54m8.09,4.67-7.13-4.12-.94.54L195.54,71l.94-.54m8.09,4.67L197.43,71l-.94.55,7.14,4.12.94-.54m8.09,4.66-7.14-4.12-.94.55,7.14,4.12.94-.55m8.09,4.68-7.14-4.13-.94.55L219.81,85l.94-.54m8.08,4.67L221.69,85l-.94.55,7.15,4.12.93-.54m8.09,4.66-7.14-4.12-.94.55L236,94.36l.94-.55M245,98.48l-7.15-4.12-.94.54L244.07,99l.94-.55m7,4.06L246,99l-.94.54,6.08,3.51.94-.54"/><path class="cls-5" d="M123.75,37.79l-6.08-3.51-.94.54,6.08,3.51.94-.54m8.09,4.67-7.14-4.13-.94.55L130.9,43l.94-.54m8.08,4.66L132.79,43l-.94.55L139,47.67l.94-.55M148,51.79l-7.14-4.12-.93.55,7.13,4.12.94-.55m8.09,4.67L149,52.34l-.94.54L155.16,57l.94-.55m8.09,4.67L157.05,57l-.94.55,7.14,4.12.94-.55m8.08,4.67-7.14-4.12-.94.54,7.15,4.13.93-.55m8.09,4.67-7.14-4.12-.94.54L179.42,71l.94-.54m8.09,4.67L181.31,71l-.94.54,7.14,4.12.94-.54m8.09,4.67-7.15-4.13-.94.55,7.15,4.12.94-.54m8.08,4.67-7.14-4.13-.94.55L203.68,85l.94-.54m8.09,4.67L205.57,85l-.94.55,7.14,4.12.94-.54m8.09,4.67-7.15-4.13-.94.55,7.15,4.12.94-.54m8.08,4.66-7.14-4.12-.94.55L227.94,99l.94-.55m8.09,4.67L229.83,99l-.94.54L236,103.7l.94-.55m7,4.06-6.07-3.51-.94.54,6.07,3.51.94-.54"/><path class="cls-5" d="M115.71,42.46,109.64,39l-.94.54L114.78,43l.93-.54m8.09,4.67L116.66,43l-.94.55,7.14,4.12.94-.54m8.09,4.66-7.14-4.12-.94.55L131,52.34l.94-.55M140,56.46l-7.14-4.12-.94.55L139,57l.94-.55m8.09,4.67L140.92,57l-.94.55,7.15,4.12.94-.55m8.08,4.67L149,61.68l-.94.55,7.14,4.12.94-.55m8.09,4.67-7.15-4.12-.94.54L163.3,71l.94-.55m8.08,4.67L165.18,71l-.94.54,7.14,4.12.94-.54m8.09,4.67-7.14-4.12-.94.54,7.14,4.12.94-.54m8.09,4.67-7.14-4.13-.94.55L187.56,85l.94-.54m8.08,4.67L189.44,85l-.93.55,7.13,4.12.94-.54m8.09,4.67-7.14-4.12-.94.54,7.14,4.12.94-.54m8.09,4.67-7.14-4.13-.94.55L211.82,99l.94-.54m8.08,4.66L213.71,99l-.94.55,7.14,4.12.93-.55m8.09,4.67-7.14-4.12-.94.54,7.14,4.13.94-.55m7,4.06-6.08-3.51-.94.54,6.08,3.51.94-.54"/><path class="cls-5" d="M107.68,47.12l-6.07-3.51-.94.55,6.08,3.51.93-.55m8.09,4.67-7.14-4.12-.94.54,7.14,4.13.94-.55m8.09,4.67-7.14-4.12-.94.54L122.92,57l.94-.55M132,61.13,124.81,57l-.94.55L131,61.68l.94-.55M140,65.8l-7.14-4.12-.94.54,7.15,4.13.93-.55m8.09,4.67L141,66.35l-.94.54L147.18,71l.94-.54m8.09,4.67L149.06,71l-.94.55,7.15,4.12.94-.54m8.08,4.67-7.14-4.13-.94.55,7.14,4.12.94-.54m8.09,4.67-7.14-4.13-.94.55L171.44,85l.94-.54m8.09,4.67L173.32,85l-.93.55,7.14,4.12.94-.54m8.08,4.66-7.14-4.12-.93.55,7.13,4.12.94-.55m8.09,4.67-7.14-4.12-.94.55L195.7,99l.94-.55m8.09,4.67L197.59,99l-.94.54,7.14,4.13.94-.55m8.08,4.67-7.13-4.12-.94.54,7.13,4.13.94-.55m8.09,4.67-7.14-4.12-.94.54L220,113l.94-.55m7,4.06L221.85,113l-.94.54,6.08,3.51.94-.54"/><path class="cls-5" d="M99.65,51.79l-6.08-3.51-.94.55,6.08,3.51.94-.55m8.09,4.67-7.15-4.12-.94.54L106.8,57l.94-.55m8.08,4.67L108.68,57l-.94.55,7.14,4.12.94-.55m8.09,4.67-7.14-4.12-.94.55L123,66.35l.94-.55M132,70.47l-7.15-4.12-.94.54L131.06,71l.94-.55m8.08,4.67L132.94,71l-.94.54,7.14,4.12.94-.54m8.09,4.67L141,75.68l-.94.55,7.14,4.12.94-.54m8.08,4.67-7.13-4.13-.94.55L155.31,85l.94-.54m8.09,4.67L157.2,85l-.93.55,7.13,4.12.94-.54m8.09,4.67-7.14-4.13-.94.55,7.14,4.12.94-.54m8.09,4.66-7.14-4.12-.94.55L179.58,99l.94-.55m8.08,4.67L181.47,99l-.94.55,7.14,4.12.93-.55m8.09,4.67-7.14-4.12-.94.54,7.15,4.13.93-.55m8.09,4.67-7.14-4.12-.94.54,7.14,4.13.94-.55m8.09,4.67L205.72,113l-.94.54,7.15,4.13.94-.55m7,4.06-6.08-3.51-.94.54,6.08,3.51.94-.54"/><path class="cls-5" d="M91.62,56.46,85.54,53l-1,.55L90.67,57l1-.55m8.09,4.67L92.56,57l-.94.55,7.14,4.12.95-.55m8.08,4.67-7.14-4.12-.94.55,7.13,4.12,1-.55m8.09,4.67-7.14-4.12-.94.55L114.93,71l.95-.55M124,75.14,116.82,71l-.94.55L123,75.69l1-.55m8.08,4.67-7.14-4.13-.94.55,7.14,4.12.94-.54m8.09,4.67L133,80.35l-.95.55L139.19,85l.95-.54m8.08,4.66L141.09,85l-1,.55,7.14,4.12.94-.55m8.09,4.67-7.14-4.12-.94.55,7.14,4.12.94-.55m8.09,4.67-7.14-4.12-.95.55L163.46,99l.94-.55m8.08,4.67L165.35,99l-.95.55,7.14,4.12.94-.55m8.09,4.67-7.13-4.12-.95.55,7.14,4.12.94-.55m8.09,4.67-7.14-4.12-1,.55,7.15,4.12.94-.55m8.09,4.67L189.61,113l-1,.55,7.14,4.12.95-.55m8.09,4.67-7.15-4.13-.94.55,7.14,4.13,1-.55m7,4-6.08-3.51-.94.55,6.07,3.51,1-.55"/><path class="cls-5" d="M83.58,61.13,77.5,57.62l-.94.55,6.08,3.51.94-.55m8.09,4.67-7.15-4.12-.93.54,7.14,4.13.94-.55m8.08,4.67-7.14-4.12-.93.54L98.81,71l.94-.54m8.09,4.67L100.7,71l-.94.54,7.14,4.12.94-.54m8.09,4.67-7.14-4.13-.94.55L115,80.35l.94-.54M124,84.48l-7.13-4.13-.94.55L123.08,85l.93-.54m8.09,4.67L125,85l-.94.55,7.14,4.12.94-.54m8.09,4.66-7.14-4.12-.94.55,7.14,4.12.94-.55m8.09,4.67-7.14-4.12-.94.55L147.34,99l.94-.55m8.08,4.67L149.22,99l-.94.54,7.15,4.13.93-.55m8.09,4.67-7.14-4.12-.94.54,7.14,4.13.94-.55m8.09,4.67-7.14-4.12-.94.55L171.6,113l.94-.55m8.09,4.67L173.48,113l-.94.54,7.15,4.13.94-.55m8.08,4.67-7.14-4.12-.94.54,7.14,4.12.94-.54m8.09,4.67-7.15-4.13-.93.55,7.14,4.12.94-.54m7,4.05L197.74,127l-.93.55,6.07,3.51.94-.55"/><path class="cls-5" d="M75.54,65.8l-6.08-3.51-.93.55,6.07,3.51.94-.55m8.09,4.67-7.14-4.12-.94.54L82.69,71l.94-.55m8.09,4.67L84.58,71l-.94.54,7.14,4.12.94-.54m8.08,4.67-7.13-4.12-.94.54,7.14,4.12.93-.54m8.09,4.67-7.14-4.13-.94.55L107,85l.93-.55M116,89.15,108.84,85l-.94.54L115,89.69l.94-.54m8.09,4.67-7.15-4.13-.94.55,7.15,4.12.94-.54m8.08,4.66L125,94.36l-.94.55L131.21,99l.94-.55m8.09,4.67L133.1,99l-.94.55,7.14,4.12.94-.55m8.09,4.67-7.15-4.12-.94.54,7.15,4.13.94-.55m8.08,4.67-7.14-4.12-.94.55,7.14,4.12.94-.55m8.09,4.67L157.36,113l-.94.55,7.14,4.12.94-.55m8.09,4.67-7.14-4.12-.94.54,7.14,4.13.94-.55m8.08,4.67-7.14-4.12-.93.54,7.13,4.12.94-.54m8.09,4.67L181.62,127l-.94.55,7.14,4.12.94-.54m7,4.05-6.08-3.51-.94.55,6.08,3.51.94-.55"/><path class="cls-5" d="M67.51,70.47,61.43,67l-.93.54L66.57,71l.94-.54m8.09,4.67L68.46,71l-.94.55,7.14,4.12.94-.54m8.08,4.67-7.13-4.13-.94.55,7.14,4.12.93-.54m8.09,4.67-7.13-4.13-.94.55L90.84,85l.93-.54m8.09,4.67L92.72,85l-.94.55,7.14,4.12.94-.54M108,93.81l-7.14-4.12-.94.55L107,94.36l.94-.55M116,98.48l-7.15-4.12-.94.54L115.1,99l.94-.55m8.08,4.67L117,99l-.94.54,7.14,4.13.94-.55m8.09,4.67-7.14-4.12-.94.54,7.14,4.13.94-.55m8.09,4.67-7.15-4.12-.94.54,7.15,4.13.94-.55m8.08,4.67L141.24,113l-.94.54,7.14,4.12.94-.54m8.09,4.67-7.14-4.12-.94.54,7.14,4.12.94-.54m8.09,4.67-7.14-4.13-.94.55,7.14,4.12.94-.54m8.08,4.67L165.5,127l-.93.55,7.13,4.12.94-.54m8.09,4.67-7.14-4.13-.94.55,7.14,4.12.94-.54m7,4-6.07-3.51-.94.55,6.08,3.51.93-.55"/><path class="cls-5" d="M59.48,75.14,53.4,71.63l-.94.55,6.08,3.5.94-.54m8.09,4.67-7.15-4.13-.94.55,7.15,4.12.94-.54m8.08,4.67-7.14-4.13-.94.55L74.71,85l.94-.54m8.09,4.67L76.6,85l-.94.54,7.14,4.12.94-.54m8.09,4.67-7.15-4.13-.94.55,7.15,4.12.94-.54m8.08,4.66-7.14-4.12-.94.55L99,99l.94-.55m8.09,4.67L100.85,99l-.93.54,7.14,4.13.94-.55m8.08,4.67-7.14-4.12-.93.54,7.13,4.13.94-.55m8.09,4.67L117,108.37l-.94.55,7.14,4.12.94-.55m8.09,4.67L125.12,113l-.94.54,7.14,4.13.94-.55m8.08,4.67-7.13-4.12-.94.54,7.14,4.12.93-.54m8.09,4.67-7.13-4.12-.94.54,7.13,4.12.94-.54m8.09,4.67L149.38,127l-.94.55,7.14,4.12.94-.54m8.09,4.67-7.14-4.13-.94.55,7.14,4.12.94-.54m8.09,4.67-7.15-4.13-.94.55,7.15,4.12.94-.54m7,4.05-6.08-3.51-.94.55,6.08,3.51.94-.55"/><path class="cls-5" d="M51.45,79.81,45.37,76.3l-.95.55,6.08,3.5,1-.54m8.08,4.67-7.14-4.13-.94.55L58.59,85l.94-.55m8.09,4.66L60.48,85l-.95.55,7.14,4.12,1-.55m8.09,4.67-7.14-4.12-.95.55,7.14,4.12.95-.55m8.09,4.67-7.15-4.12-.94.55L82.85,99l1-.55m8.08,4.67L84.74,99l-.94.55,7.13,4.12.95-.55m8.09,4.67-7.15-4.12-.94.55L99,108.37l1-.55m8.08,4.67-7.14-4.12-.94.55,7.14,4.12.94-.55m8.09,4.67L109,113l-.94.55,7.14,4.12.94-.55m8.09,4.67-7.14-4.13-1,.55,7.15,4.13.94-.55m8.08,4.66-7.13-4.12-1,.55,7.14,4.12.94-.55m8.09,4.68L133.26,127l-.94.55,7.14,4.12.94-.54m8.09,4.67-7.14-4.13-.95.55,7.15,4.12.94-.54m8.09,4.66-7.14-4.12-.95.55,7.14,4.12,1-.55m8.08,4.67-7.14-4.12-.94.55,7.14,4.12.94-.55m7,4.06-6.08-3.51-1,.55,6.08,3.51.95-.55"/><path class="cls-5" d="M43.41,84.48,37.33,81l-.94.54L42.47,85l.94-.54m8.09,4.67L44.35,85l-.94.55,7.15,4.12.94-.54m8.08,4.66-7.14-4.12-.94.55,7.14,4.12.94-.55m8.09,4.67-7.14-4.12-.94.55L66.73,99l.94-.55m8.09,4.67L68.62,99l-.94.54,7.14,4.13.94-.55m8.08,4.67L76.7,103.7l-.93.55,7.13,4.12.94-.55m8.09,4.67-7.14-4.12-.94.54L91,113l.94-.55m8.09,4.67L92.88,113l-.94.54,7.14,4.12.94-.54m8.08,4.67L101,117.71l-.94.54,7.14,4.12.93-.54m8.09,4.67-7.14-4.13-.94.55,7.14,4.12.94-.54m8.09,4.67L117.14,127l-.94.55,7.14,4.12.94-.54m8.09,4.67-7.14-4.13-.94.55,7.14,4.12.94-.54m8.09,4.67-7.15-4.13-.94.55,7.15,4.12.94-.54m8.08,4.66-7.14-4.12-.94.55,7.14,4.12.94-.55m8.09,4.67-7.15-4.12-.94.54,7.15,4.13.94-.55m7,4.06-6.08-3.51-.94.54,6.08,3.51.94-.54"/><path class="cls-5" d="M35.37,89.15l-6.08-3.51-.94.54,6.08,3.51.94-.54m8.09,4.67-7.14-4.13-.94.55,7.14,4.12.94-.54m8.08,4.66-7.13-4.12-.94.55L50.61,99l.93-.55m8.09,4.67L52.5,99l-.94.55,7.13,4.12.94-.55m8.09,4.67-7.14-4.12-.94.55,7.14,4.12.94-.55m8.09,4.67-7.14-4.12-.94.55L74.87,113l.94-.55m8.09,4.67L76.75,113l-.94.54L83,117.71l.94-.55M92,121.83l-7.14-4.12-.94.54L91,122.37l.94-.54m8.09,4.67-7.14-4.12-.94.54L99.13,127l.94-.54m8.09,4.67L101,127l-.94.55,7.15,4.12.94-.54m8.08,4.67-7.14-4.13-.94.55,7.14,4.12.94-.54m8.09,4.67-7.14-4.12-.94.54,7.14,4.12.94-.54m8.09,4.67-7.15-4.13-.93.55,7.14,4.12.94-.54m8.08,4.66-7.14-4.12-.94.55,7.14,4.12.94-.55m8.09,4.67-7.14-4.12-.94.54,7.14,4.13.94-.55m7,4.06-6.07-3.51-.94.54,6.08,3.51.93-.54"/><path class="cls-5" d="M27.34,93.81,21.26,90.3l-.94.55,6.08,3.51.94-.55m8.09,4.67-7.14-4.12-.95.55L34.49,99l.94-.55m8.08,4.67L36.38,99l-1,.55,7.14,4.12.94-.55m8.09,4.67-7.13-4.12-.95.55,7.14,4.12.94-.55m8.09,4.67-7.14-4.12-.95.55L58.75,113l.94-.55m8.09,4.67L60.64,113l-1,.55,7.14,4.12,1-.55m8.08,4.67-7.14-4.13-.94.55,7.14,4.13.94-.55M84,126.5l-7.14-4.13-1,.55L83,127l1-.54M92,131.17,84.9,127l-1,.55,7.14,4.12,1-.54m8.09,4.67L93,131.71l-.94.55,7.14,4.13.95-.55m8.08,4.66-7.14-4.12-.94.55,7.13,4.12.95-.55m8.09,4.67-7.14-4.12-.94.55,7.13,4.12,1-.55m8.09,4.67-7.15-4.12-.94.55,7.14,4.12,1-.55m8.08,4.67-7.14-4.12-.94.55,7.14,4.12.94-.55m8.09,4.67-7.14-4.12-.95.54,7.15,4.13.94-.55m7,4.06-6.07-3.51-.95.55,6.08,3.5.94-.54"/><path class="cls-5" d="M19.3,98.48,13.23,95l-.94.55L18.37,99l.93-.55m8.09,4.67L20.25,99l-.94.54,7.15,4.13.93-.55m8.09,4.67-7.14-4.12-.94.55,7.14,4.12.94-.55m8.09,4.67-7.14-4.12-.94.55L42.63,113l.94-.55m8.09,4.67L44.51,113l-.94.54,7.15,4.13.94-.55m8.08,4.67-7.14-4.12-.94.54,7.14,4.12.94-.54m8.09,4.67-7.15-4.13-.94.55L66.89,127l.94-.54m8.08,4.67L68.77,127l-.94.55L75,131.71l.94-.54M84,135.84l-7.14-4.13-.94.55,7.14,4.12.94-.54m8.09,4.67L85,136.38l-.94.55,7.14,4.12.94-.54m8.08,4.66L93,141.05l-.93.55,7.13,4.12.94-.55m8.09,4.67-7.14-4.12-.93.55,7.13,4.12.94-.55m8.09,4.67-7.14-4.12-.94.54,7.14,4.13.94-.55m8.08,4.67-7.13-4.12-.94.54,7.14,4.13.93-.55m8.09,4.67-7.14-4.12-.94.54,7.14,4.13.94-.55m7,4.06-6.08-3.51-.94.54,6.08,3.51.94-.54"/><polyline class="cls-5" points="132.57 171.96 126.49 168.45 124.37 169.68 123.43 169.14 125.55 167.91 118.4 163.78 116.28 165.01 115.34 164.47 117.46 163.24 110.32 159.11 108.2 160.34 107.25 159.8 109.37 158.57 102.23 154.44 100.11 155.68 99.17 155.13 101.28 153.9 94.15 149.78 92.03 151.01 91.08 150.46 93.19 149.23 86.06 145.11 83.94 146.34 82.99 145.79 85.11 144.56 77.97 140.44 75.85 141.67 74.9 141.12 77.02 139.89 69.89 135.77 67.77 137 66.81 136.45 68.93 135.22 61.8 131.1 59.68 132.33 58.73 131.78 60.85 130.55 53.71 126.43 51.59 127.66 50.64 127.11 52.76 125.88 45.62 121.76 43.51 122.99 42.56 122.45 44.68 121.22 37.53 117.09 35.41 118.32 34.47 117.78 36.59 116.55 29.45 112.42 27.33 113.66 26.38 113.11 28.5 111.88 21.36 107.75 19.24 108.99 18.3 108.44 20.42 107.21 13.27 103.08 11.15 104.31 10.21 103.77 12.33 102.54 6.25 99.03 3.2 100.8 129.52 173.73 132.57 171.96"/><polyline class="cls-5" points="134.68 24.39 131.61 22.62 128.67 24.33 0 99.1 3.07 100.88 3.2 100.8 6.25 99.03 12.29 95.52 13.23 94.97 20.32 90.85 21.26 90.3 28.36 86.18 29.29 85.64 36.39 81.51 37.33 80.97 44.42 76.85 45.37 76.3 52.46 72.17 53.4 71.63 60.5 67.5 61.43 66.96 68.53 62.84 69.47 62.29 76.56 58.17 77.5 57.62 84.59 53.5 85.54 52.95 92.63 48.83 93.57 48.28 100.67 44.16 101.61 43.61 108.7 39.49 109.64 38.95 116.73 34.82 117.67 34.28 124.77 30.15 125.71 29.61 131.74 26.1 134.68 24.39"/><polyline class="cls-5" points="140.64 29.06 139.7 28.52 137.82 29.61 131.79 33.12 130.85 33.66 123.75 37.79 122.81 38.33 115.71 42.46 114.78 43 107.68 47.12 106.75 47.67 99.65 51.79 98.71 52.34 91.62 56.46 90.67 57.01 83.58 61.13 82.64 61.68 75.54 65.8 74.6 66.35 67.51 70.47 66.57 71.01 59.48 75.14 58.54 75.68 51.45 79.81 50.5 80.36 43.41 84.48 42.47 85.02 35.37 89.15 34.43 89.69 27.34 93.81 26.4 94.36 19.3 98.48 18.37 99.03 12.33 102.54 10.21 103.77 11.15 104.31 13.27 103.08 19.31 99.58 20.25 99.03 27.34 94.91 28.29 94.36 35.38 90.24 36.32 89.69 43.41 85.57 44.35 85.02 51.45 80.9 52.39 80.35 59.48 76.23 60.42 75.68 67.52 71.56 68.46 71.01 75.55 66.89 76.49 66.35 83.59 62.22 84.53 61.68 91.62 57.55 92.56 57.01 99.65 52.88 100.59 52.34 107.69 48.22 108.63 47.67 115.72 43.55 116.66 43 123.76 38.88 124.7 38.33 131.79 34.21 132.73 33.66 138.76 30.16 140.64 29.06"/><polyline class="cls-5" points="148.73 33.73 147.79 33.19 145.91 34.28 139.88 37.79 138.94 38.33 131.84 42.46 130.9 43 123.8 47.13 122.86 47.67 115.77 51.79 114.83 52.34 107.74 56.46 106.8 57.01 99.71 61.13 98.76 61.68 91.67 65.8 90.73 66.35 83.63 70.47 82.69 71.02 75.6 75.14 74.66 75.68 67.56 79.81 66.63 80.36 59.53 84.48 58.59 85.03 51.5 89.15 50.56 89.69 43.46 93.82 42.52 94.36 35.43 98.48 34.49 99.03 27.39 103.15 26.45 103.7 20.42 107.21 18.3 108.44 19.24 108.99 21.36 107.75 27.4 104.25 28.34 103.7 35.43 99.58 36.38 99.03 43.47 94.91 44.41 94.36 51.5 90.24 52.44 89.69 59.53 85.57 60.48 85.02 67.57 80.9 68.51 80.36 75.61 76.23 76.55 75.68 83.64 71.56 84.58 71.02 91.67 66.89 92.61 66.35 99.71 62.23 100.65 61.68 107.74 57.55 108.68 57.01 115.78 52.88 116.72 52.34 123.81 48.22 124.75 47.67 131.85 43.55 132.78 43 139.88 38.88 140.82 38.33 146.85 34.83 148.73 33.73"/><polyline class="cls-5" points="156.82 38.41 155.87 37.86 153.99 38.95 147.96 42.45 147.02 43 139.92 47.12 138.99 47.67 131.89 51.79 130.95 52.34 123.86 56.46 122.92 57.01 115.82 61.13 114.88 61.68 107.79 65.8 106.84 66.35 99.75 70.47 98.81 71.01 91.72 75.14 90.78 75.68 83.69 79.81 82.75 80.35 75.65 84.48 74.71 85.02 67.62 89.14 66.67 89.69 59.58 93.81 58.64 94.36 51.54 98.48 50.6 99.03 43.51 103.15 42.57 103.7 35.48 107.82 34.54 108.37 28.5 111.88 26.38 113.11 27.33 113.66 29.45 112.42 35.49 108.92 36.43 108.37 43.52 104.25 44.47 103.7 51.56 99.58 52.5 99.03 59.59 94.91 60.53 94.36 67.62 90.24 68.57 89.69 75.66 85.57 76.6 85.03 83.7 80.9 84.64 80.36 91.73 76.23 92.67 75.69 99.77 71.56 100.7 71.02 107.8 66.9 108.74 66.35 115.83 62.23 116.77 61.68 123.87 57.55 124.81 57.01 131.9 52.89 132.84 52.34 139.94 48.22 140.88 47.67 147.97 43.55 148.91 43 154.94 39.5 156.82 38.41"/><polyline class="cls-5" points="164.9 43.07 163.96 42.53 162.08 43.62 156.05 47.12 155.11 47.67 148.01 51.79 147.07 52.34 139.98 56.46 139.04 57.01 131.95 61.13 131.01 61.68 123.91 65.8 122.97 66.35 115.88 70.47 114.93 71.02 107.84 75.14 106.9 75.68 99.81 79.81 98.87 80.36 91.77 84.48 90.84 85.02 83.74 89.15 82.8 89.69 75.71 93.81 74.76 94.36 67.67 98.48 66.73 99.03 59.63 103.15 58.7 103.7 51.6 107.82 50.66 108.37 43.57 112.49 42.63 113.04 36.59 116.55 34.47 117.78 35.41 118.32 37.53 117.09 43.57 113.58 44.51 113.04 51.6 108.92 52.55 108.37 59.64 104.25 60.58 103.7 67.68 99.58 68.61 99.03 75.71 94.91 76.65 94.36 83.74 90.24 84.68 89.69 91.78 85.57 92.72 85.02 99.81 80.9 100.75 80.36 107.85 76.23 108.79 75.68 115.88 71.56 116.82 71.01 123.92 66.89 124.85 66.35 131.95 62.22 132.89 61.68 139.98 57.55 140.92 57.01 148.02 52.88 148.96 52.34 156.06 48.21 157 47.67 163.03 44.16 164.9 43.07"/><polyline class="cls-5" points="172.99 47.74 172.05 47.2 170.17 48.29 164.14 51.79 163.2 52.34 156.1 56.46 155.16 57.01 148.06 61.13 147.13 61.68 140.03 65.8 139.1 66.35 132 70.47 131.06 71.02 123.97 75.14 123.02 75.69 115.93 79.81 114.99 80.36 107.89 84.48 106.95 85.03 99.86 89.15 98.92 89.69 91.83 93.82 90.89 94.36 83.8 98.48 82.85 99.03 75.76 103.15 74.82 103.7 67.72 107.82 66.78 108.37 59.69 112.49 58.75 113.04 51.66 117.16 50.72 117.71 44.68 121.22 42.56 122.45 43.51 122.99 45.62 121.76 51.66 118.25 52.6 117.71 59.69 113.59 60.64 113.04 67.73 108.92 68.67 108.37 75.77 104.25 76.7 103.7 83.8 99.58 84.74 99.03 91.83 94.91 92.77 94.36 99.87 90.24 100.81 89.69 107.9 85.57 108.84 85.03 115.94 80.9 116.88 80.36 123.97 76.23 124.91 75.68 132 71.56 132.94 71.02 140.04 66.89 140.98 66.35 148.07 62.23 149.01 61.68 156.11 57.55 157.05 57.01 164.15 52.88 165.08 52.34 171.12 48.83 172.99 47.74"/><polyline class="cls-5" points="181.08 52.41 180.13 51.86 178.25 52.95 172.22 56.46 171.28 57.01 164.19 61.13 163.25 61.68 156.15 65.8 155.21 66.35 148.12 70.47 147.18 71.01 140.08 75.14 139.14 75.68 132.05 79.81 131.11 80.36 124.01 84.48 123.08 85.02 115.98 89.15 115.04 89.69 107.95 93.81 107.01 94.36 99.91 98.48 98.97 99.03 91.88 103.15 90.93 103.7 83.84 107.82 82.9 108.37 75.81 112.49 74.87 113.04 67.78 117.16 66.83 117.71 59.74 121.83 58.8 122.37 52.76 125.88 50.64 127.11 51.59 127.66 53.71 126.43 59.74 122.92 60.68 122.37 67.78 118.25 68.72 117.7 75.81 113.58 76.75 113.04 83.85 108.91 84.79 108.37 91.88 104.25 92.82 103.7 99.92 99.58 100.86 99.03 107.95 94.9 108.89 94.36 115.98 90.24 116.92 89.69 124.02 85.57 124.96 85.02 132.05 80.9 133 80.35 140.09 76.23 141.03 75.68 148.12 71.56 149.06 71.01 156.16 66.89 157.09 66.35 164.19 62.22 165.13 61.68 172.23 57.55 173.17 57.01 179.2 53.5 181.08 52.41"/><polyline class="cls-5" points="189.17 57.08 188.22 56.53 186.34 57.63 180.31 61.13 179.37 61.68 172.28 65.8 171.34 66.35 164.24 70.47 163.3 71.02 156.21 75.14 155.27 75.68 148.17 79.81 147.23 80.35 140.14 84.48 139.19 85.03 132.1 89.15 131.16 89.69 124.07 93.82 123.13 94.36 116.04 98.48 115.1 99.03 108 103.15 107.06 103.7 99.97 107.82 99.02 108.37 91.93 112.49 90.99 113.04 83.89 117.16 82.96 117.71 75.86 121.83 74.92 122.38 67.83 126.5 66.89 127.04 60.85 130.55 58.73 131.78 59.68 132.33 61.8 131.1 67.83 127.59 68.77 127.04 75.86 122.92 76.81 122.37 83.9 118.25 84.84 117.71 91.94 113.58 92.88 113.04 99.97 108.92 100.91 108.37 108 104.25 108.94 103.7 116.04 99.57 116.98 99.03 124.07 94.91 125.01 94.36 132.11 90.24 133.05 89.69 140.14 85.57 141.09 85.02 148.18 80.9 149.12 80.35 156.21 76.23 157.15 75.68 164.24 71.56 165.18 71.02 172.28 66.89 173.22 66.35 180.32 62.22 181.26 61.68 187.29 58.17 189.17 57.08"/><polyline class="cls-5" points="197.26 61.75 196.3 61.2 194.43 62.29 188.39 65.8 187.46 66.34 180.36 70.47 179.42 71.01 172.32 75.14 171.38 75.68 164.29 79.81 163.35 80.35 156.25 84.48 155.31 85.02 148.22 89.14 147.28 89.69 140.19 93.81 139.25 94.36 132.15 98.48 131.21 99.03 124.12 103.15 123.18 103.7 116.08 107.82 115.14 108.37 108.05 112.49 107.11 113.04 100.02 117.16 99.08 117.7 91.98 121.83 91.04 122.37 83.95 126.5 83 127.04 75.91 131.17 74.97 131.71 68.93 135.22 66.81 136.45 67.77 137 69.89 135.77 75.92 132.26 76.86 131.72 83.95 127.59 84.9 127.04 91.99 122.92 92.93 122.38 100.03 118.25 100.97 117.71 108.06 113.59 109 113.04 116.09 108.92 117.03 108.37 124.13 104.25 125.07 103.7 132.16 99.58 133.1 99.03 140.2 94.91 141.14 94.36 148.23 90.24 149.17 89.69 156.27 85.57 157.21 85.03 164.3 80.9 165.24 80.35 172.33 76.23 173.27 75.69 180.37 71.56 181.31 71.02 188.41 66.89 189.35 66.35 195.38 62.84 197.26 61.75"/><polyline class="cls-5" points="205.34 66.42 204.39 65.87 202.52 66.96 196.48 70.47 195.54 71.01 188.45 75.14 187.51 75.68 180.41 79.81 179.47 80.35 172.38 84.47 171.44 85.02 164.34 89.15 163.4 89.69 156.31 93.81 155.37 94.36 148.28 98.48 147.34 99.03 140.24 103.15 139.3 103.7 132.21 107.82 131.27 108.37 124.17 112.49 123.23 113.04 116.14 117.16 115.2 117.71 108.1 121.83 107.17 122.37 100.07 126.5 99.13 127.04 92.04 131.16 91.09 131.72 84 135.84 83.06 136.38 77.02 139.89 74.9 141.12 75.85 141.67 77.97 140.44 84.01 136.93 84.94 136.38 92.04 132.26 92.98 131.71 100.07 127.59 101.01 127.04 108.11 122.92 109.05 122.37 116.14 118.25 117.09 117.7 124.18 113.58 125.12 113.04 132.22 108.91 133.15 108.37 140.25 104.25 141.18 103.7 148.28 99.57 149.22 99.03 156.31 94.91 157.26 94.36 164.35 90.24 165.29 89.69 172.39 85.57 173.32 85.02 180.42 80.9 181.35 80.35 188.45 76.23 189.39 75.68 196.49 71.56 197.43 71.01 203.46 67.51 205.34 66.42"/><polyline class="cls-5" points="213.43 71.09 212.48 70.54 210.6 71.63 204.57 75.14 203.63 75.68 196.54 79.81 195.6 80.35 188.5 84.48 187.56 85.03 180.47 89.15 179.53 89.69 172.43 93.82 171.49 94.36 164.4 98.48 163.46 99.03 156.37 103.15 155.43 103.7 148.33 107.82 147.39 108.37 140.3 112.49 139.36 113.04 132.26 117.16 131.32 117.71 124.23 121.83 123.28 122.38 116.19 126.5 115.25 127.04 108.16 131.17 107.22 131.72 100.13 135.84 99.18 136.38 92.09 140.51 91.15 141.05 85.11 144.56 82.99 145.79 83.94 146.34 86.06 145.11 92.1 141.6 93.03 141.05 100.13 136.93 101.07 136.38 108.16 132.26 109.1 131.72 116.2 127.59 117.14 127.04 124.23 122.92 125.17 122.37 132.27 118.25 133.21 117.71 140.3 113.58 141.24 113.04 148.33 108.92 149.27 108.37 156.37 104.25 157.31 103.7 164.4 99.58 165.35 99.03 172.44 94.91 173.38 94.36 180.47 90.24 181.41 89.69 188.51 85.57 189.44 85.03 196.54 80.9 197.48 80.35 204.58 76.23 205.52 75.68 211.55 72.18 213.43 71.09"/><polyline class="cls-5" points="221.52 75.76 220.57 75.21 218.69 76.3 212.66 79.81 211.72 80.35 204.62 84.47 203.68 85.02 196.58 89.15 195.64 89.69 188.55 93.81 187.61 94.36 180.51 98.48 179.58 99.03 172.49 103.15 171.54 103.7 164.45 107.82 163.51 108.37 156.41 112.49 155.47 113.04 148.38 117.16 147.44 117.7 140.34 121.83 139.41 122.37 132.31 126.5 131.37 127.04 124.28 131.16 123.34 131.71 116.24 135.84 115.3 136.38 108.21 140.5 107.26 141.05 100.17 145.17 99.23 145.72 93.19 149.23 91.08 150.46 92.03 151.01 94.15 149.78 100.19 146.27 101.12 145.72 108.22 141.6 109.16 141.05 116.25 136.93 117.19 136.38 124.29 132.26 125.23 131.72 132.32 127.59 133.26 127.04 140.36 122.92 141.29 122.38 148.39 118.25 149.33 117.71 156.42 113.59 157.36 113.04 164.46 108.92 165.4 108.37 172.49 104.25 173.44 103.7 180.53 99.58 181.47 99.03 188.56 94.91 189.5 94.36 196.59 90.24 197.53 89.69 204.63 85.57 205.57 85.03 212.67 80.9 213.61 80.35 219.64 76.85 221.52 75.76"/><polyline class="cls-5" points="229.6 80.42 228.66 79.88 226.78 80.97 220.75 84.47 219.81 85.02 212.71 89.15 211.77 89.69 204.67 93.82 203.73 94.36 196.64 98.48 195.7 99.03 188.6 103.15 187.67 103.7 180.57 107.82 179.63 108.37 172.54 112.49 171.6 113.04 164.5 117.16 163.56 117.71 156.47 121.83 155.53 122.37 148.43 126.5 147.5 127.04 140.4 131.16 139.46 131.71 132.37 135.84 131.43 136.38 124.33 140.51 123.39 141.05 116.3 145.17 115.35 145.72 108.26 149.84 107.32 150.39 101.28 153.9 99.17 155.13 100.11 155.68 102.23 154.44 108.27 150.94 109.21 150.39 116.3 146.27 117.24 145.72 124.33 141.6 125.27 141.05 132.37 136.93 133.31 136.38 140.4 132.26 141.35 131.71 148.44 127.59 149.38 127.04 156.48 122.92 157.41 122.37 164.51 118.25 165.44 117.71 172.54 113.58 173.48 113.04 180.57 108.92 181.52 108.37 188.61 104.25 189.55 103.7 196.65 99.57 197.59 99.03 204.68 94.91 205.62 94.36 212.72 90.24 213.65 89.69 220.75 85.57 221.69 85.02 227.72 81.52 229.6 80.42"/><polyline class="cls-5" points="237.69 85.09 236.75 84.55 234.87 85.64 228.84 89.15 227.9 89.69 220.8 93.82 219.86 94.36 212.76 98.49 211.82 99.03 204.73 103.15 203.79 103.7 196.69 107.82 195.75 108.37 188.66 112.49 187.72 113.04 180.63 117.16 179.69 117.71 172.59 121.83 171.65 122.38 164.56 126.5 163.62 127.04 156.52 131.17 155.58 131.71 148.49 135.84 147.55 136.38 140.46 140.51 139.52 141.05 132.42 145.18 131.48 145.72 124.39 149.84 123.44 150.39 116.35 154.51 115.41 155.06 109.37 158.57 107.25 159.8 108.2 160.34 110.32 159.11 116.36 155.6 117.3 155.06 124.39 150.94 125.33 150.39 132.43 146.27 133.36 145.72 140.46 141.6 141.4 141.05 148.49 136.93 149.44 136.38 156.53 132.26 157.47 131.71 164.57 127.59 165.5 127.04 172.6 122.92 173.53 122.38 180.63 118.25 181.57 117.71 188.66 113.58 189.61 113.04 196.7 108.92 197.64 108.37 204.74 104.25 205.68 103.7 212.77 99.58 213.71 99.03 220.8 94.91 221.74 94.36 228.84 90.24 229.78 89.69 235.81 86.19 237.69 85.09"/><polyline class="cls-5" points="245.77 89.76 244.83 89.22 242.95 90.31 236.92 93.81 235.98 94.36 228.88 98.48 227.94 99.03 220.84 103.15 219.91 103.7 212.81 107.82 211.88 108.37 204.78 112.49 203.84 113.04 196.75 117.16 195.8 117.71 188.71 121.83 187.77 122.37 180.67 126.5 179.73 127.04 172.64 131.16 171.7 131.71 164.61 135.84 163.67 136.38 156.57 140.5 155.63 141.05 148.54 145.17 147.6 145.72 140.5 149.84 139.56 150.39 132.47 154.51 131.53 155.06 124.43 159.18 123.5 159.73 117.46 163.24 115.34 164.47 116.28 165.01 118.4 163.78 124.44 160.27 125.38 159.73 132.47 155.6 133.42 155.06 140.51 150.93 141.45 150.39 148.54 146.26 149.48 145.72 156.57 141.6 157.52 141.05 164.61 136.93 165.55 136.38 172.65 132.26 173.59 131.71 180.68 127.59 181.62 127.04 188.72 122.92 189.66 122.37 196.75 118.25 197.69 117.7 204.78 113.58 205.72 113.04 212.82 108.91 213.76 108.37 220.85 104.24 221.79 103.7 228.89 99.57 229.83 99.03 236.92 94.9 237.86 94.36 243.9 90.85 245.77 89.76"/><polyline class="cls-5" points="253.86 94.43 252.92 93.89 251.04 94.98 245.01 98.48 244.07 99.03 236.97 103.15 236.03 103.7 228.93 107.82 228 108.37 220.9 112.49 219.96 113.04 212.87 117.16 211.93 117.71 204.84 121.83 203.89 122.38 196.8 126.5 195.86 127.04 188.76 131.17 187.82 131.71 180.73 135.84 179.79 136.38 172.69 140.51 171.76 141.05 164.66 145.17 163.72 145.72 156.63 149.84 155.69 150.39 148.59 154.51 147.65 155.06 140.56 159.18 139.62 159.73 132.52 163.85 131.59 164.4 125.55 167.91 123.43 169.14 124.37 169.68 126.49 168.45 132.53 164.94 133.47 164.4 140.56 160.28 141.5 159.73 148.6 155.6 149.54 155.06 156.63 150.93 157.57 150.39 164.66 146.27 165.61 145.72 172.7 141.6 173.64 141.05 180.74 136.93 181.68 136.38 188.77 132.26 189.71 131.71 196.81 127.59 197.74 127.04 204.84 122.92 205.78 122.37 212.87 118.25 213.81 117.71 220.91 113.58 221.85 113.04 228.94 108.92 229.88 108.37 236.98 104.24 237.91 103.7 245.01 99.57 245.95 99.03 251.98 95.52 253.86 94.43"/><polyline class="cls-5" points="264.07 99.1 261 97.33 258.06 99.03 252.03 102.54 251.09 103.08 243.99 107.21 243.06 107.75 235.96 111.88 235.02 112.42 227.93 116.55 226.99 117.09 219.89 121.22 218.95 121.76 211.86 125.88 210.91 126.43 203.82 130.55 202.88 131.1 195.78 135.22 194.85 135.77 187.75 139.89 186.82 140.44 179.72 144.56 178.78 145.11 171.69 149.23 170.74 149.78 163.65 153.9 162.71 154.44 155.61 158.57 154.68 159.11 147.58 163.24 146.64 163.78 139.55 167.91 138.61 168.45 132.57 171.96 129.52 173.73 129.39 173.81 132.46 175.58 264.07 99.1"/></g></g></g><g id="Middle"><g class="cls-2"><g class="cls-6"><polyline class="cls-7" points="243.13 79.9 130.9 15.11 21.07 78.94 133.29 143.73 243.13 79.9"/><path class="cls-5" d="M21.07,78.94,130.9,15.11,243.13,79.9,133.29,143.73,21.07,78.94m226.3,1L130.88,12.65,16.82,78.94l116.49,67.25L247.37,79.91"/></g></g></g><g id="Upper"><g class="cls-2"><g class="cls-8"><path class="cls-7" d="M137.35,34.93c-2-1.15-2.24-3-.44-4.33a8.65,8.65,0,0,1,7.89-.51c.17.07.33.16.48.24,2,1.16,2.23,3,.44,4.33a5.56,5.56,0,0,1-1.1.61l6.29,13.44a8.23,8.23,0,0,1,2.93.69,5.39,5.39,0,0,1,.48.25c2,1.15,2.23,3,.44,4.32a8.62,8.62,0,0,1-7.89.52,5.39,5.39,0,0,1-.48-.25,3.1,3.1,0,0,1-1.59-1.82l-7.92-1-.3.24a5.57,5.57,0,0,1-.86.51l6.43,13.73a8.19,8.19,0,0,1,2.55.66,4.12,4.12,0,0,1,.47.25c2,1.15,2.24,3,.44,4.33a8.66,8.66,0,0,1-7.88.52l-.49-.25a2.69,2.69,0,0,1-1.63-2.54L114,63l-.29.15,7.42,12.21a8.39,8.39,0,0,1,3.34.71,5.39,5.39,0,0,1,.48.25c2,1.15,2.23,3,.44,4.32a8.62,8.62,0,0,1-7.89.52l-.49-.25c-2-1.15-2.23-3-.43-4.32a5.4,5.4,0,0,1,.77-.46l-7.41-12.22a8.39,8.39,0,0,1-3.34-.71,5.39,5.39,0,0,1-.48-.25c-2-1.15-2.23-3-.44-4.32a8.62,8.62,0,0,1,7.89-.52c.17.08.34.16.49.25a2.7,2.7,0,0,1,1.63,2.54l21.6,5.86a6.57,6.57,0,0,1,.93-.42l-6.31-13.47a8.37,8.37,0,0,1-3.22-.7,5.39,5.39,0,0,1-.48-.25c-2-1.15-2.23-3-.44-4.32a8.64,8.64,0,0,1,7.9-.52l.46.24a3.2,3.2,0,0,1,1.6,1.83l7.92,1,.3-.24a5.56,5.56,0,0,1,1.1-.61l-6.29-13.44a8.34,8.34,0,0,1-2.94-.69,5.19,5.19,0,0,1-.47-.25m87.39,21.62L131.05,2.46,39.36,55.74l93.69,54.09,91.69-53.28"/><path class="cls-5" d="M39.36,55.74,131.05,2.46l93.69,54.09-91.69,53.28L39.36,55.74M229,56.55,131,0,35.12,55.74l97.95,56.55L229,56.55"/><path class="cls-9" d="M137.29,66.76l-21.6-5.86a2.67,2.67,0,0,1-1.2,1.78A3.45,3.45,0,0,1,114,63l21.61,5.86a2.67,2.67,0,0,1,1.19-1.79l.49-.31"/><path class="cls-9" d="M113.71,63.15a8.5,8.5,0,0,1-3.77.76l7.41,12.22a8.41,8.41,0,0,1,3.78-.77l-7.42-12.21"/><path class="cls-9" d="M144.62,35.27a8.91,8.91,0,0,1-3.86.6l6.29,13.44a8.77,8.77,0,0,1,3.86-.6l-6.29-13.44"/><path class="cls-9" d="M145.65,50.16l-7.92-1a2.24,2.24,0,0,1-.85,2.26l7.92,1a2.22,2.22,0,0,1,.85-2.26"/><path class="cls-9" d="M135.72,52.16a8.56,8.56,0,0,1-3.81.71l6.31,13.47a9.15,9.15,0,0,1,3.93-.45l-6.43-13.73"/><path class="cls-10" d="M154.32,49.65a5.39,5.39,0,0,0-.48-.25,8.23,8.23,0,0,0-2.93-.69,8.77,8.77,0,0,0-3.86.6,5.56,5.56,0,0,0-1.1.61l-.3.24a2.22,2.22,0,0,0-.85,2.26,3.1,3.1,0,0,0,1.59,1.82,5.39,5.39,0,0,0,.48.25,8.62,8.62,0,0,0,7.89-.52c1.79-1.31,1.56-3.17-.44-4.32"/><path class="cls-11" d="M145.28,30.33c-.15-.08-.31-.17-.48-.24a8.65,8.65,0,0,0-7.89.51c-1.8,1.31-1.56,3.18.44,4.33a5.19,5.19,0,0,0,.47.25,8.34,8.34,0,0,0,2.94.69,8.91,8.91,0,0,0,3.86-.6,5.56,5.56,0,0,0,1.1-.61c1.79-1.31,1.56-3.17-.44-4.33"/><path class="cls-11" d="M114.06,58.36c-.15-.09-.32-.17-.49-.25a8.62,8.62,0,0,0-7.89.52c-1.79,1.3-1.56,3.17.44,4.32a5.39,5.39,0,0,0,.48.25,8.39,8.39,0,0,0,3.34.71,8.5,8.5,0,0,0,3.77-.76L114,63a3.45,3.45,0,0,0,.49-.32,2.67,2.67,0,0,0,1.2-1.78,2.7,2.7,0,0,0-1.63-2.54"/><path class="cls-11" d="M136.13,47.32l-.46-.24a8.64,8.64,0,0,0-7.9.52c-1.79,1.3-1.57,3.17.44,4.32a5.39,5.39,0,0,0,.48.25,8.37,8.37,0,0,0,3.22.7,8.56,8.56,0,0,0,3.81-.71,5.57,5.57,0,0,0,.86-.51l.3-.24a2.24,2.24,0,0,0,.85-2.26,3.2,3.2,0,0,0-1.6-1.83"/><path class="cls-10" d="M145.17,66.8a4.12,4.12,0,0,0-.47-.25,8.19,8.19,0,0,0-2.55-.66,9.15,9.15,0,0,0-3.93.45,6.57,6.57,0,0,0-.93.42l-.49.31a2.38,2.38,0,0,0,.44,4.33l.49.25a8.66,8.66,0,0,0,7.88-.52c1.8-1.31,1.56-3.18-.44-4.33"/><path class="cls-10" d="M125,76.32a5.39,5.39,0,0,0-.48-.25,8.92,8.92,0,0,0-7.12.06,5.4,5.4,0,0,0-.77.46c-1.8,1.3-1.57,3.17.43,4.32l.49.25a8.62,8.62,0,0,0,7.89-.52c1.79-1.31,1.56-3.17-.44-4.32"/></g></g></g></g><text class="cls-12" transform="translate(289.62 110.87)">SpatialTis</text></g></g></g></svg>